<?xml version="1.0" standalone="no"?>
<!DOCTYPE svg PUBLIC "-//W3C//DTD SVG 1.1//EN" "http://www.w3.org/Graphics/SVG/1.1/DTD/svg11.dtd">
<svg width="56.91070781901658mm" height="59.26762866407262mm"
 viewBox="0 0 56.91070781901658 59.26762866407262"
 xmlns="http://www.w3.org/2000/svg" version="1.1"
 xmlns:xlink="http://www.w3.org/1999/xlink">
<desc>Output from Flights of Ideas SVG Sketchup Plugin</desc>

  <path id="face0-cut"
 style="fill:none;stroke:#FF0000;stroke-width:0.001;stroke-miterlimit:4;stroke-dasharray:none;stroke-linejoin:round;stroke-linecap:round"
        d="M 1.0,2.7952802468607842 L 24.501471486056516,26.296751732926623 L 51.91168824542433,53.70696849229944 L 49.43681451127782,56.1818422264455 L 48.02260094890471,54.76762866407216 L 48.02260094890471,57.26762866407262 L 49.02260094890471,58.26762866407262 L 53.02260094890471,58.26762866407262 L 55.91070781901658,48.20575353111326 L 12.694775183473666,1.0 L 1.0,2.7952802468607842 M 24.157747083855384,22.063940034198822 L 23.959098805608164,21.80505655771549 L 23.83422327747735,21.503580364093978 L 23.791630560338717,21.18005655771549 L 23.83422327747735,20.856532751337454 L 23.959098805608164,20.555056557715943 L 24.157747083855384,20.29617308123261 L 24.416630560338717,20.097524802984935 L 24.718106753960683,19.97264927485412 L 25.041630560338717,19.93005655771549 L 25.36515436671675,19.97264927485412 L 25.666630560338717,20.097524802984935 L 25.925514036821824,20.296173081232155 L 26.12416231506927,20.555056557715943 L 26.249037843199858,20.856532751337454 L 26.291630560338717,21.18005655771549 L 26.249037843199858,21.503580364093978 L 26.12416231506927,21.80505655771549 L 25.925514036821824,22.063940034198822 L 25.666630560338717,22.26258831244604 L 25.36515436671675,22.387463840576856 L 25.041630560338717,22.43005655771549 L 24.718106753960683,22.387463840576856 L 24.416630560338717,22.26258831244604 L 24.157747083855384,22.063940034198822 M 10.015611460127502,7.921804410465029 L 9.816963181880283,7.66292093398215 L 9.692087653749468,7.361444740360639 L 9.649494936610836,7.03792093398215 L 9.692087653749468,6.714397127604116 L 9.816963181880283,6.41292093398215 L 10.015611460127502,6.154037457498816 L 10.274494936610836,5.955389179251142 L 10.575971130232574,5.830513651120782 L 10.899494936610836,5.78792093398215 L 11.22301874298887,5.830513651120327 L 11.524494936610836,5.955389179251597 L 11.783378413093942,6.154037457498816 L 11.982026691341389,6.41292093398215 L 12.106902219471976,6.714397127603661 L 12.149494936610608,7.03792093398215 L 12.106902219471976,7.361444740360639 L 11.982026691341389,7.66292093398215 L 11.783378413093942,7.921804410465029 L 11.524494936610836,8.120452688712703 L 11.22301874298887,8.245328216843518 L 10.899494936610836,8.287920933982605 L 10.575971130232574,8.245328216843518 L 10.274494936610836,8.120452688712703 L 10.015611460127502,7.921804410465029 "
  />
  <path id="face0-interior"
 style="fill:none;stroke:#FF0000;stroke-width:0.001;stroke-miterlimit:4;stroke-dasharray:none;stroke-linejoin:round;stroke-linecap:round"
        d="M 1.0,2.7952802468607842 M 24.501471486056516,26.296751732926623 M 51.91168824542433,53.70696849229944 M 49.43681451127782,56.1818422264455 M 48.02260094890471,54.76762866407216 M 48.02260094890471,57.26762866407262 M 49.02260094890471,58.26762866407262 M 53.02260094890471,58.26762866407262 M 55.91070781901658,48.20575353111326 M 12.694775183473666,1.0 M 24.157747083855384,22.063940034198822 M 23.959098805608164,21.80505655771549 M 23.83422327747735,21.503580364093978 M 23.791630560338717,21.18005655771549 M 23.83422327747735,20.856532751337454 M 23.959098805608164,20.555056557715943 M 24.157747083855384,20.29617308123261 M 24.416630560338717,20.097524802984935 M 24.718106753960683,19.97264927485412 M 25.041630560338717,19.93005655771549 M 25.36515436671675,19.97264927485412 M 25.666630560338717,20.097524802984935 M 25.925514036821824,20.296173081232155 M 26.12416231506927,20.555056557715943 M 26.249037843199858,20.856532751337454 M 26.291630560338717,21.18005655771549 M 26.249037843199858,21.503580364093978 M 26.12416231506927,21.80505655771549 M 25.925514036821824,22.063940034198822 M 25.666630560338717,22.26258831244604 M 25.36515436671675,22.387463840576856 M 25.041630560338717,22.43005655771549 M 24.718106753960683,22.387463840576856 M 24.416630560338717,22.26258831244604 M 10.015611460127502,7.921804410465029 M 9.816963181880283,7.66292093398215 M 9.692087653749468,7.361444740360639 M 9.649494936610836,7.03792093398215 M 9.692087653749468,6.714397127604116 M 9.816963181880283,6.41292093398215 M 10.015611460127502,6.154037457498816 M 10.274494936610836,5.955389179251142 M 10.575971130232574,5.830513651120782 M 10.899494936610836,5.78792093398215 M 11.22301874298887,5.830513651120327 M 11.524494936610836,5.955389179251597 M 11.783378413093942,6.154037457498816 M 11.982026691341389,6.41292093398215 M 12.106902219471976,6.714397127603661 M 12.149494936610608,7.03792093398215 M 12.106902219471976,7.361444740360639 M 11.982026691341389,7.66292093398215 M 11.783378413093942,7.921804410465029 M 11.524494936610836,8.120452688712703 M 11.22301874298887,8.245328216843518 M 10.899494936610836,8.287920933982605 M 10.575971130232574,8.245328216843518 M 10.274494936610836,8.120452688712703 "
  />
  <path id="face0-interior"
 style="fill:none;stroke:#00FF00;stroke-width:1;stroke-miterlimit:4;stroke-dasharray:none;stroke-linejoin:round;stroke-linecap:round"
        d="M 1.0,2.7952802468607842 M 24.501471486056516,26.296751732926623 M 51.91168824542433,53.70696849229944 M 49.43681451127782,56.1818422264455 M 48.02260094890471,54.76762866407216 M 48.02260094890471,57.26762866407262 M 49.02260094890471,58.26762866407262 M 53.02260094890471,58.26762866407262 M 55.91070781901658,48.20575353111326 M 12.694775183473666,1.0 M 24.157747083855384,22.063940034198822 M 23.959098805608164,21.80505655771549 M 23.83422327747735,21.503580364093978 M 23.791630560338717,21.18005655771549 M 23.83422327747735,20.856532751337454 M 23.959098805608164,20.555056557715943 M 24.157747083855384,20.29617308123261 M 24.416630560338717,20.097524802984935 M 24.718106753960683,19.97264927485412 M 25.041630560338717,19.93005655771549 M 25.36515436671675,19.97264927485412 M 25.666630560338717,20.097524802984935 M 25.925514036821824,20.296173081232155 M 26.12416231506927,20.555056557715943 M 26.249037843199858,20.856532751337454 M 26.291630560338717,21.18005655771549 M 26.249037843199858,21.503580364093978 M 26.12416231506927,21.80505655771549 M 25.925514036821824,22.063940034198822 M 25.666630560338717,22.26258831244604 M 25.36515436671675,22.387463840576856 M 25.041630560338717,22.43005655771549 M 24.718106753960683,22.387463840576856 M 24.416630560338717,22.26258831244604 M 10.015611460127502,7.921804410465029 M 9.816963181880283,7.66292093398215 M 9.692087653749468,7.361444740360639 M 9.649494936610836,7.03792093398215 M 9.692087653749468,6.714397127604116 M 9.816963181880283,6.41292093398215 M 10.015611460127502,6.154037457498816 M 10.274494936610836,5.955389179251142 M 10.575971130232574,5.830513651120782 M 10.899494936610836,5.78792093398215 M 11.22301874298887,5.830513651120327 M 11.524494936610836,5.955389179251597 M 11.783378413093942,6.154037457498816 M 11.982026691341389,6.41292093398215 M 12.106902219471976,6.714397127603661 M 12.149494936610608,7.03792093398215 M 12.106902219471976,7.361444740360639 M 11.982026691341389,7.66292093398215 M 11.783378413093942,7.921804410465029 M 11.524494936610836,8.120452688712703 M 11.22301874298887,8.245328216843518 M 10.899494936610836,8.287920933982605 M 10.575971130232574,8.245328216843518 M 10.274494936610836,8.120452688712703 "
  />
</svg>
