<?xml version="1.0" standalone="no"?>
<!DOCTYPE svg PUBLIC "-//W3C//DTD SVG 1.1//EN" "http://www.w3.org/Graphics/SVG/1.1/DTD/svg11.dtd">
<svg width="136.24264068711886mm" height="108.38964612963855mm"
 viewBox="0 0 136.24264068711886 108.38964612963855"
 xmlns="http://www.w3.org/2000/svg" version="1.1"
 xmlns:xlink="http://www.w3.org/1999/xlink">
<desc>Output from Flights of Ideas SVG Sketchup Plugin</desc>

  <path id="face0-cut"
 style="fill:none;stroke:#FF0000;stroke-width:0.001;stroke-miterlimit:4;stroke-dasharray:none;stroke-linejoin:round;stroke-linecap:round"
        d="M 101.23032709196013,1.0 L 1.0,16.328397971081813 L 1.00000000000432,107.38964612963855 L 67.99918532220613,107.38964612963468 L 68.9991853222059,105.88964612963468 L 68.99918532220522,76.91483512963487 L 67.99918532220295,75.38964612963468 L 61.99918532220454,75.38964612963514 L 18.83791160242731,75.44023383695867 L 16.357229647635677,77.92091579175053 L 13.882355913483025,75.44604205759765 L 59.74774745077525,29.58065052028701 L 61.16196101314881,28.166436957913447 L 94.80142475511752,21.079570194484177 L 91.26589084919738,17.544036288539473 L 93.74076458333957,15.069162554396826 L 97.27629848927563,18.604696460329023 L 135.2426406871184,56.57103865818226 L 135.24264068711886,44.6845091020125 L 101.23032709196013,1.0 M 82.9022135744558,10.837829638618814 L 82.44869122920363,7.872308186604414 L 87.39122698255983,7.116437611182391 L 87.84474932781404,10.081959063197019 L 82.9022135744558,10.837829638618814 M 24.203630364471337,92.95515490025309 L 23.999185322204994,91.40224062963739 L 24.203630364471337,89.8493263590226 L 24.803032899498703,88.40224062963739 L 25.75654463508431,87.15959994251784 L 26.999185322204994,86.20608820693042 L 28.446271051589065,85.6066856719026 L 29.99918532220363,85.40224062963694 L 47.99918532220386,85.40224062963557 L 49.552099592819104,85.60668567190078 L 50.999185322204994,86.20608820692883 L 52.241826009324086,87.15959994251648 L 53.19533774491151,88.40224062963512 L 53.79474027993933,89.8493263590201 L 53.99918532220454,91.40224062963534 L 53.79474027993933,92.95515490025036 L 53.19533774491151,94.40224062963534 L 52.24182600932477,95.64488131675489 L 50.999185322204994,96.59839305234232 L 49.552099592819786,97.19779558736991 L 47.999185322204994,97.4022406296358 L 29.999185322204994,97.40224062963716 L 28.44627105158952,97.1977955873715 L 26.99918532220545,96.59839305234368 L 25.756544635085447,95.64488131675625 L 24.803032899499158,94.40224062963739 L 24.203630364471337,92.95515490025309 M 126.64240303378506,44.362984861032146 L 126.3317428620037,44.124606927135574 L 123.48253456258317,41.31696097706504 L 123.23948616625671,41.00021414014327 L 123.08669955707705,40.631354636114565 L 123.03458688996898,40.235519630608906 L 123.08669955707705,39.839684625103246 L 123.23948616625671,39.47082512107477 L 123.48253456258317,39.15407828415323 L 123.79928139950425,38.911029887826544 L 124.1681409035325,38.758243278647114 L 124.5639759090393,38.70613061153995 L 124.9598109145445,38.75824327864757 L 125.32867041857412,38.91102988782609 L 125.64541725549384,39.154078284152774 L 128.45306320556438,42.0032865835758 L 128.6914411394605,42.31394675535557 L 128.84129177321756,42.675718187701705 L 128.8924030337846,43.06394675535557 L 128.84129177321756,43.452175323009214 L 128.69144113946095,43.8139467553558 L 128.4530632055646,44.124606927135574 L 128.14240303378438,44.36298486103237 L 127.7806316014387,44.51283549478944 L 127.39240303378415,44.5639467553558 L 127.00417446613073,44.51283549478944 L 126.64240303378506,44.362984861032146 M 112.50026741005672,30.220849237299035 L 112.18960723827672,29.982471303402463 L 109.36118011353119,27.15404417865534 L 109.12280217963416,26.84338400687534 L 108.97295154587755,26.481612574529436 L 108.92184028531119,26.093384006875567 L 108.97295154587732,25.7051554392217 L 109.12280217963371,25.343384006875795 L 109.36118011353074,25.032723835095794 L 109.67184028531028,24.79434590119922 L 110.03361171765664,24.644495267441926 L 110.42184028531051,24.593384006875567 L 110.81006885296415,24.64449526744238 L 111.17184028531051,24.79434590119922 L 111.48250045709187,25.03272383509625 L 114.31092758183604,27.861150959842462 L 114.54930551573261,28.171811131622235 L 114.69915614948991,28.53358256396882 L 114.75026741005627,28.92181113162269 L 114.69915614948968,29.310039699275876 L 114.54930551573239,29.671811131622462 L 114.31092758183604,29.982471303402235 L 114.0002674100574,30.220849237299035 L 113.63849597770945,30.370699871056104 L 113.25026741005695,30.421811131622462 L 112.86203884240263,30.37069987105633 L 112.50026741005672,30.220849237299035 M 47.900612306244284,32.35362129329769 L 48.13899024014313,32.04296112151769 L 50.9674173648873,29.21453399677125 L 51.278077536667524,28.976156062874225 L 51.6398489690132,28.826305429117383 L 52.028077536666615,28.77519416855057 L 52.41630610432094,28.82630542911693 L 52.77807753666684,28.976156062873997 L 53.08873770844798,29.214533996770797 L 53.3271156423441,29.52519416855057 L 53.47696627610071,29.8869656008967 L 53.52807753666821,30.275194168550343 L 53.476966276100484,30.66342273620421 L 53.3271156423441,31.02519416855057 L 53.0887377084473,31.33585434033057 L 52.77807753666684,31.57423227422737 L 50.26031058370131,34.16428146507724 L 49.949650411922676,34.40265939897381 L 49.58787897957632,34.55251003273065 L 49.19965041192222,34.60362129329701 L 48.81142184426858,34.55251003273111 L 48.44965041192154,34.402659398974265 L 48.13899024014381,34.16428146507724 L 47.900612306244966,33.85362129329769 L 47.75076167248926,33.49184986095133 L 47.69965041192245,33.103621293297465 L 47.75076167248926,32.715392725643824 L 47.900612306244284,32.35362129329769 M 38.00111736963527,42.25311622991126 L 38.23949530353184,41.94245605813171 L 41.06792242827669,39.11402893338459 L 41.37858260005669,38.875650999488016 L 41.74035403240305,38.725800365731175 L 42.12858260005737,38.67468910516436 L 42.51681116771192,38.72580036573072 L 42.87858260005714,38.875650999487334 L 43.189242771837144,39.11402893338436 L 43.42762070573485,39.42468910516436 L 43.57747133949101,39.786460537510266 L 43.62858260005737,40.174689105164134 L 43.57747133949124,40.562917672818 L 43.4276207057344,40.92468910516391 L 43.18924277183669,41.23534927694391 L 40.36081564709207,44.06377640169103 L 40.050155475311385,44.30215433558806 L 39.68838404296548,44.4520049693449 L 39.30015547531093,44.50311622991126 L 38.91192690765888,44.45200496934444 L 38.550155475311385,44.30215433558806 L 38.23949530353184,44.06377640169126 L 38.001117369635494,43.753116229911484 L 37.851266735879335,43.391344797565125 L 37.80015547531207,43.00311622991126 L 37.85126673587911,42.614887662257615 L 38.00111736963527,42.25311622991126 M 65.99918532220454,78.38964612963446 L 65.99918532220454,81.38964612963446 L 62.999185322204085,81.38964612963446 L 62.99918532220477,78.38964612963446 L 65.99918532220454,78.38964612963446 M 62.99918532220613,104.38964612963423 L 62.9991853222059,101.38964612963423 L 65.9991853222059,101.38964612963468 L 65.9991853222059,104.38964612963468 L 62.99918532220613,104.38964612963423 M 64.49918532220545,89.90224062963443 L 64.88741388985864,89.95335189020125 L 65.249185322205,90.10320252395809 L 65.5598454939834,90.34158045785466 L 65.79822342788111,90.65224062963443 L 65.94807406163818,91.01401206198102 L 65.99918532220454,91.40224062963443 L 65.94807406163773,91.79046919728808 L 65.79822342788088,92.15224062963443 L 65.55984549398318,92.46290080141443 L 65.24918532220522,92.70127873531123 L 64.88741388985841,92.85112936906785 L 64.49918532220545,92.90224062963443 L 64.11095675455022,92.85112936906785 L 63.74918532220431,92.70127873531123 L 63.43852515042454,92.46290080141466 L 63.200147216527284,92.15224062963443 L 63.05029658276999,91.79046919728808 L 62.99918532220522,91.40224062963443 L 63.05029658277067,91.01401206198102 L 63.200147216527284,90.65224062963443 L 63.438525150424994,90.34158045785512 L 63.74918532220431,90.10320252395809 L 64.11095675455022,89.95335189020125 L 64.49918532220545,89.90224062963443 M 6.999185322205221,78.3896461296381 L 6.999185322205676,81.3896461296381 L 3.9991853222040845,81.38964612963832 L 3.9991853222047666,78.38964612963832 L 6.999185322205221,78.3896461296381 M 3.9991853222054488,104.38964612963832 L 3.9991853222054488,101.3896461296381 L 6.999185322205676,101.3896461296381 L 6.9991853222059035,104.38964612963787 L 3.9991853222054488,104.38964612963832 M 4.050296582769761,91.77787469729174 L 3.9991853222047666,91.38964612963832 L 4.050296582769988,91.00141756198468 L 4.2001472165279665,90.6396461296381 L 4.438525150424766,90.32898595785855 L 4.749185322204539,90.09060802396152 L 5.110956754551353,89.94075739020468 L 5.4991853222059035,89.88964612963832 L 5.887413889858408,89.94075739020423 L 6.249185322203857,90.09060802396152 L 6.55984549398454,90.32898595785855 L 6.7982234278820215,90.6396461296381 L 6.948074061638181,91.00141756198445 L 6.999185322205221,91.38964612963832 L 6.948074061638636,91.77787469729174 L 6.798223427881567,92.1396461296381 L 6.559845493984312,92.45030630141764 L 6.249185322203857,92.68868423531512 L 5.887413889857953,92.83853486907196 L 5.499185322205221,92.88964612963832 L 5.110956754550671,92.83853486907196 L 4.749185322204312,92.68868423531512 L 4.4385251504243115,92.4503063014181 L 4.2001472165279665,92.13964612963855 L 4.050296582769761,91.77787469729174 M 37.96586944899309,14.67514336540421 L 38.419391794246394,17.640664817418156 L 33.47685604088997,18.396535392840633 L 33.02333369563553,15.43101394082646 L 37.96586944899309,14.67514336540421 M 51.503605169110415,13.955586142744096 L 51.52511171873584,14.11894460551639 L 51.554716429676546,14.343814710397965 L 51.503605169110415,14.732043278051606 L 51.35375453535403,15.093814710397965 L 51.115376601456546,15.40447488217751 L 50.804716429677455,15.642852816074765 L 50.4429449973311,15.792703449831379 L 50.054716429677455,15.843814710397737 L 49.666487862022905,15.792703449831379 L 49.304716429677,15.642852816074537 L 48.994056257897,15.404474882177965 L 48.75567832400043,15.093814710398192 L 48.60582769024313,14.73204327805206 L 48.55471642967723,14.343814710397965 L 48.60582769024313,13.95558614274455 L 48.75567832400043,13.593814710397965 L 48.994056257897,13.283154538618192 L 49.304716429677,13.044776604720937 L 49.666487862022905,12.894925970964096 L 50.054716429677455,12.843814710397737 L 50.44294499733064,12.894925970964323 L 50.804716429677455,13.044776604720937 L 51.115376601456546,13.283154538618192 L 51.35375453535403,13.593814710397965 L 51.503605169110415,13.955586142744096 "
  />
  <path id="face0-interior"
 style="fill:none;stroke:#FF0000;stroke-width:0.001;stroke-miterlimit:4;stroke-dasharray:none;stroke-linejoin:round;stroke-linecap:round"
        d="M 101.23032709196013,1.0 M 1.0,16.328397971081813 M 1.00000000000432,107.38964612963855 M 67.99918532220613,107.38964612963468 M 68.9991853222059,105.88964612963468 M 68.99918532220522,76.91483512963487 M 67.99918532220295,75.38964612963468 M 61.99918532220454,75.38964612963514 M 18.83791160242731,75.44023383695867 M 16.357229647635677,77.92091579175053 M 13.882355913483025,75.44604205759765 M 59.74774745077525,29.58065052028701 M 61.16196101314881,28.166436957913447 M 94.80142475511752,21.079570194484177 M 91.26589084919738,17.544036288539473 M 93.74076458333957,15.069162554396826 M 97.27629848927563,18.604696460329023 M 135.2426406871184,56.57103865818226 M 135.24264068711886,44.6845091020125 M 82.9022135744558,10.837829638618814 M 82.44869122920363,7.872308186604414 M 87.39122698255983,7.116437611182391 M 87.84474932781404,10.081959063197019 M 24.203630364471337,92.95515490025309 M 23.999185322204994,91.40224062963739 M 24.203630364471337,89.8493263590226 M 24.803032899498703,88.40224062963739 M 25.75654463508431,87.15959994251784 M 26.999185322204994,86.20608820693042 M 28.446271051589065,85.6066856719026 M 29.99918532220363,85.40224062963694 M 47.99918532220386,85.40224062963557 M 49.552099592819104,85.60668567190078 M 50.999185322204994,86.20608820692883 M 52.241826009324086,87.15959994251648 M 53.19533774491151,88.40224062963512 M 53.79474027993933,89.8493263590201 M 53.99918532220454,91.40224062963534 M 53.79474027993933,92.95515490025036 M 53.19533774491151,94.40224062963534 M 52.24182600932477,95.64488131675489 M 50.999185322204994,96.59839305234232 M 49.552099592819786,97.19779558736991 M 47.999185322204994,97.4022406296358 M 29.999185322204994,97.40224062963716 M 28.44627105158952,97.1977955873715 M 26.99918532220545,96.59839305234368 M 25.756544635085447,95.64488131675625 M 24.803032899499158,94.40224062963739 M 126.64240303378506,44.362984861032146 M 126.3317428620037,44.124606927135574 M 123.48253456258317,41.31696097706504 M 123.23948616625671,41.00021414014327 M 123.08669955707705,40.631354636114565 M 123.03458688996898,40.235519630608906 M 123.08669955707705,39.839684625103246 M 123.23948616625671,39.47082512107477 M 123.48253456258317,39.15407828415323 M 123.79928139950425,38.911029887826544 M 124.1681409035325,38.758243278647114 M 124.5639759090393,38.70613061153995 M 124.9598109145445,38.75824327864757 M 125.32867041857412,38.91102988782609 M 125.64541725549384,39.154078284152774 M 128.45306320556438,42.0032865835758 M 128.6914411394605,42.31394675535557 M 128.84129177321756,42.675718187701705 M 128.8924030337846,43.06394675535557 M 128.84129177321756,43.452175323009214 M 128.69144113946095,43.8139467553558 M 128.4530632055646,44.124606927135574 M 128.14240303378438,44.36298486103237 M 127.7806316014387,44.51283549478944 M 127.39240303378415,44.5639467553558 M 127.00417446613073,44.51283549478944 M 112.50026741005672,30.220849237299035 M 112.18960723827672,29.982471303402463 M 109.36118011353119,27.15404417865534 M 109.12280217963416,26.84338400687534 M 108.97295154587755,26.481612574529436 M 108.92184028531119,26.093384006875567 M 108.97295154587732,25.7051554392217 M 109.12280217963371,25.343384006875795 M 109.36118011353074,25.032723835095794 M 109.67184028531028,24.79434590119922 M 110.03361171765664,24.644495267441926 M 110.42184028531051,24.593384006875567 M 110.81006885296415,24.64449526744238 M 111.17184028531051,24.79434590119922 M 111.48250045709187,25.03272383509625 M 114.31092758183604,27.861150959842462 M 114.54930551573261,28.171811131622235 M 114.69915614948991,28.53358256396882 M 114.75026741005627,28.92181113162269 M 114.69915614948968,29.310039699275876 M 114.54930551573239,29.671811131622462 M 114.31092758183604,29.982471303402235 M 114.0002674100574,30.220849237299035 M 113.63849597770945,30.370699871056104 M 113.25026741005695,30.421811131622462 M 112.86203884240263,30.37069987105633 M 47.900612306244284,32.35362129329769 M 48.13899024014313,32.04296112151769 M 50.9674173648873,29.21453399677125 M 51.278077536667524,28.976156062874225 M 51.6398489690132,28.826305429117383 M 52.028077536666615,28.77519416855057 M 52.41630610432094,28.82630542911693 M 52.77807753666684,28.976156062873997 M 53.08873770844798,29.214533996770797 M 53.3271156423441,29.52519416855057 M 53.47696627610071,29.8869656008967 M 53.52807753666821,30.275194168550343 M 53.476966276100484,30.66342273620421 M 53.3271156423441,31.02519416855057 M 53.0887377084473,31.33585434033057 M 52.77807753666684,31.57423227422737 M 50.26031058370131,34.16428146507724 M 49.949650411922676,34.40265939897381 M 49.58787897957632,34.55251003273065 M 49.19965041192222,34.60362129329701 M 48.81142184426858,34.55251003273111 M 48.44965041192154,34.402659398974265 M 48.13899024014381,34.16428146507724 M 47.900612306244966,33.85362129329769 M 47.75076167248926,33.49184986095133 M 47.69965041192245,33.103621293297465 M 47.75076167248926,32.715392725643824 M 38.00111736963527,42.25311622991126 M 38.23949530353184,41.94245605813171 M 41.06792242827669,39.11402893338459 M 41.37858260005669,38.875650999488016 M 41.74035403240305,38.725800365731175 M 42.12858260005737,38.67468910516436 M 42.51681116771192,38.72580036573072 M 42.87858260005714,38.875650999487334 M 43.189242771837144,39.11402893338436 M 43.42762070573485,39.42468910516436 M 43.57747133949101,39.786460537510266 M 43.62858260005737,40.174689105164134 M 43.57747133949124,40.562917672818 M 43.4276207057344,40.92468910516391 M 43.18924277183669,41.23534927694391 M 40.36081564709207,44.06377640169103 M 40.050155475311385,44.30215433558806 M 39.68838404296548,44.4520049693449 M 39.30015547531093,44.50311622991126 M 38.91192690765888,44.45200496934444 M 38.550155475311385,44.30215433558806 M 38.23949530353184,44.06377640169126 M 38.001117369635494,43.753116229911484 M 37.851266735879335,43.391344797565125 M 37.80015547531207,43.00311622991126 M 37.85126673587911,42.614887662257615 M 65.99918532220454,78.38964612963446 M 65.99918532220454,81.38964612963446 M 62.999185322204085,81.38964612963446 M 62.99918532220477,78.38964612963446 M 62.99918532220613,104.38964612963423 M 62.9991853222059,101.38964612963423 M 65.9991853222059,101.38964612963468 M 65.9991853222059,104.38964612963468 M 64.49918532220545,89.90224062963443 M 64.88741388985864,89.95335189020125 M 65.249185322205,90.10320252395809 M 65.5598454939834,90.34158045785466 M 65.79822342788111,90.65224062963443 M 65.94807406163818,91.01401206198102 M 65.99918532220454,91.40224062963443 M 65.94807406163773,91.79046919728808 M 65.79822342788088,92.15224062963443 M 65.55984549398318,92.46290080141443 M 65.24918532220522,92.70127873531123 M 64.88741388985841,92.85112936906785 M 64.49918532220545,92.90224062963443 M 64.11095675455022,92.85112936906785 M 63.74918532220431,92.70127873531123 M 63.43852515042454,92.46290080141466 M 63.200147216527284,92.15224062963443 M 63.05029658276999,91.79046919728808 M 62.99918532220522,91.40224062963443 M 63.05029658277067,91.01401206198102 M 63.200147216527284,90.65224062963443 M 63.438525150424994,90.34158045785512 M 63.74918532220431,90.10320252395809 M 64.11095675455022,89.95335189020125 M 6.999185322205221,78.3896461296381 M 6.999185322205676,81.3896461296381 M 3.9991853222040845,81.38964612963832 M 3.9991853222047666,78.38964612963832 M 3.9991853222054488,104.38964612963832 M 3.9991853222054488,101.3896461296381 M 6.999185322205676,101.3896461296381 M 6.9991853222059035,104.38964612963787 M 4.050296582769761,91.77787469729174 M 3.9991853222047666,91.38964612963832 M 4.050296582769988,91.00141756198468 M 4.2001472165279665,90.6396461296381 M 4.438525150424766,90.32898595785855 M 4.749185322204539,90.09060802396152 M 5.110956754551353,89.94075739020468 M 5.4991853222059035,89.88964612963832 M 5.887413889858408,89.94075739020423 M 6.249185322203857,90.09060802396152 M 6.55984549398454,90.32898595785855 M 6.7982234278820215,90.6396461296381 M 6.948074061638181,91.00141756198445 M 6.999185322205221,91.38964612963832 M 6.948074061638636,91.77787469729174 M 6.798223427881567,92.1396461296381 M 6.559845493984312,92.45030630141764 M 6.249185322203857,92.68868423531512 M 5.887413889857953,92.83853486907196 M 5.499185322205221,92.88964612963832 M 5.110956754550671,92.83853486907196 M 4.749185322204312,92.68868423531512 M 4.4385251504243115,92.4503063014181 M 4.2001472165279665,92.13964612963855 M 37.96586944899309,14.67514336540421 M 38.419391794246394,17.640664817418156 M 33.47685604088997,18.396535392840633 M 33.02333369563553,15.43101394082646 M 51.503605169110415,13.955586142744096 M 51.52511171873584,14.11894460551639 M 51.554716429676546,14.343814710397965 M 51.503605169110415,14.732043278051606 M 51.35375453535403,15.093814710397965 M 51.115376601456546,15.40447488217751 M 50.804716429677455,15.642852816074765 M 50.4429449973311,15.792703449831379 M 50.054716429677455,15.843814710397737 M 49.666487862022905,15.792703449831379 M 49.304716429677,15.642852816074537 M 48.994056257897,15.404474882177965 M 48.75567832400043,15.093814710398192 M 48.60582769024313,14.73204327805206 M 48.55471642967723,14.343814710397965 M 48.60582769024313,13.95558614274455 M 48.75567832400043,13.593814710397965 M 48.994056257897,13.283154538618192 M 49.304716429677,13.044776604720937 M 49.666487862022905,12.894925970964096 M 50.054716429677455,12.843814710397737 M 50.44294499733064,12.894925970964323 M 50.804716429677455,13.044776604720937 M 51.115376601456546,13.283154538618192 M 51.35375453535403,13.593814710397965 "
  />
  <path id="face0-interior"
 style="fill:none;stroke:#00FF00;stroke-width:1;stroke-miterlimit:4;stroke-dasharray:none;stroke-linejoin:round;stroke-linecap:round"
        d="M 101.23032709196013,1.0 M 1.0,16.328397971081813 M 1.00000000000432,107.38964612963855 M 67.99918532220613,107.38964612963468 M 68.9991853222059,105.88964612963468 M 68.99918532220522,76.91483512963487 M 67.99918532220295,75.38964612963468 M 61.99918532220454,75.38964612963514 M 18.83791160242731,75.44023383695867 M 16.357229647635677,77.92091579175053 M 13.882355913483025,75.44604205759765 M 59.74774745077525,29.58065052028701 M 61.16196101314881,28.166436957913447 M 94.80142475511752,21.079570194484177 M 91.26589084919738,17.544036288539473 M 93.74076458333957,15.069162554396826 M 97.27629848927563,18.604696460329023 M 135.2426406871184,56.57103865818226 M 135.24264068711886,44.6845091020125 M 82.9022135744558,10.837829638618814 M 82.44869122920363,7.872308186604414 M 87.39122698255983,7.116437611182391 M 87.84474932781404,10.081959063197019 M 24.203630364471337,92.95515490025309 M 23.999185322204994,91.40224062963739 M 24.203630364471337,89.8493263590226 M 24.803032899498703,88.40224062963739 M 25.75654463508431,87.15959994251784 M 26.999185322204994,86.20608820693042 M 28.446271051589065,85.6066856719026 M 29.99918532220363,85.40224062963694 M 47.99918532220386,85.40224062963557 M 49.552099592819104,85.60668567190078 M 50.999185322204994,86.20608820692883 M 52.241826009324086,87.15959994251648 M 53.19533774491151,88.40224062963512 M 53.79474027993933,89.8493263590201 M 53.99918532220454,91.40224062963534 M 53.79474027993933,92.95515490025036 M 53.19533774491151,94.40224062963534 M 52.24182600932477,95.64488131675489 M 50.999185322204994,96.59839305234232 M 49.552099592819786,97.19779558736991 M 47.999185322204994,97.4022406296358 M 29.999185322204994,97.40224062963716 M 28.44627105158952,97.1977955873715 M 26.99918532220545,96.59839305234368 M 25.756544635085447,95.64488131675625 M 24.803032899499158,94.40224062963739 M 126.64240303378506,44.362984861032146 M 126.3317428620037,44.124606927135574 M 123.48253456258317,41.31696097706504 M 123.23948616625671,41.00021414014327 M 123.08669955707705,40.631354636114565 M 123.03458688996898,40.235519630608906 M 123.08669955707705,39.839684625103246 M 123.23948616625671,39.47082512107477 M 123.48253456258317,39.15407828415323 M 123.79928139950425,38.911029887826544 M 124.1681409035325,38.758243278647114 M 124.5639759090393,38.70613061153995 M 124.9598109145445,38.75824327864757 M 125.32867041857412,38.91102988782609 M 125.64541725549384,39.154078284152774 M 128.45306320556438,42.0032865835758 M 128.6914411394605,42.31394675535557 M 128.84129177321756,42.675718187701705 M 128.8924030337846,43.06394675535557 M 128.84129177321756,43.452175323009214 M 128.69144113946095,43.8139467553558 M 128.4530632055646,44.124606927135574 M 128.14240303378438,44.36298486103237 M 127.7806316014387,44.51283549478944 M 127.39240303378415,44.5639467553558 M 127.00417446613073,44.51283549478944 M 112.50026741005672,30.220849237299035 M 112.18960723827672,29.982471303402463 M 109.36118011353119,27.15404417865534 M 109.12280217963416,26.84338400687534 M 108.97295154587755,26.481612574529436 M 108.92184028531119,26.093384006875567 M 108.97295154587732,25.7051554392217 M 109.12280217963371,25.343384006875795 M 109.36118011353074,25.032723835095794 M 109.67184028531028,24.79434590119922 M 110.03361171765664,24.644495267441926 M 110.42184028531051,24.593384006875567 M 110.81006885296415,24.64449526744238 M 111.17184028531051,24.79434590119922 M 111.48250045709187,25.03272383509625 M 114.31092758183604,27.861150959842462 M 114.54930551573261,28.171811131622235 M 114.69915614948991,28.53358256396882 M 114.75026741005627,28.92181113162269 M 114.69915614948968,29.310039699275876 M 114.54930551573239,29.671811131622462 M 114.31092758183604,29.982471303402235 M 114.0002674100574,30.220849237299035 M 113.63849597770945,30.370699871056104 M 113.25026741005695,30.421811131622462 M 112.86203884240263,30.37069987105633 M 47.900612306244284,32.35362129329769 M 48.13899024014313,32.04296112151769 M 50.9674173648873,29.21453399677125 M 51.278077536667524,28.976156062874225 M 51.6398489690132,28.826305429117383 M 52.028077536666615,28.77519416855057 M 52.41630610432094,28.82630542911693 M 52.77807753666684,28.976156062873997 M 53.08873770844798,29.214533996770797 M 53.3271156423441,29.52519416855057 M 53.47696627610071,29.8869656008967 M 53.52807753666821,30.275194168550343 M 53.476966276100484,30.66342273620421 M 53.3271156423441,31.02519416855057 M 53.0887377084473,31.33585434033057 M 52.77807753666684,31.57423227422737 M 50.26031058370131,34.16428146507724 M 49.949650411922676,34.40265939897381 M 49.58787897957632,34.55251003273065 M 49.19965041192222,34.60362129329701 M 48.81142184426858,34.55251003273111 M 48.44965041192154,34.402659398974265 M 48.13899024014381,34.16428146507724 M 47.900612306244966,33.85362129329769 M 47.75076167248926,33.49184986095133 M 47.69965041192245,33.103621293297465 M 47.75076167248926,32.715392725643824 M 38.00111736963527,42.25311622991126 M 38.23949530353184,41.94245605813171 M 41.06792242827669,39.11402893338459 M 41.37858260005669,38.875650999488016 M 41.74035403240305,38.725800365731175 M 42.12858260005737,38.67468910516436 M 42.51681116771192,38.72580036573072 M 42.87858260005714,38.875650999487334 M 43.189242771837144,39.11402893338436 M 43.42762070573485,39.42468910516436 M 43.57747133949101,39.786460537510266 M 43.62858260005737,40.174689105164134 M 43.57747133949124,40.562917672818 M 43.4276207057344,40.92468910516391 M 43.18924277183669,41.23534927694391 M 40.36081564709207,44.06377640169103 M 40.050155475311385,44.30215433558806 M 39.68838404296548,44.4520049693449 M 39.30015547531093,44.50311622991126 M 38.91192690765888,44.45200496934444 M 38.550155475311385,44.30215433558806 M 38.23949530353184,44.06377640169126 M 38.001117369635494,43.753116229911484 M 37.851266735879335,43.391344797565125 M 37.80015547531207,43.00311622991126 M 37.85126673587911,42.614887662257615 M 65.99918532220454,78.38964612963446 M 65.99918532220454,81.38964612963446 M 62.999185322204085,81.38964612963446 M 62.99918532220477,78.38964612963446 M 62.99918532220613,104.38964612963423 M 62.9991853222059,101.38964612963423 M 65.9991853222059,101.38964612963468 M 65.9991853222059,104.38964612963468 M 64.49918532220545,89.90224062963443 M 64.88741388985864,89.95335189020125 M 65.249185322205,90.10320252395809 M 65.5598454939834,90.34158045785466 M 65.79822342788111,90.65224062963443 M 65.94807406163818,91.01401206198102 M 65.99918532220454,91.40224062963443 M 65.94807406163773,91.79046919728808 M 65.79822342788088,92.15224062963443 M 65.55984549398318,92.46290080141443 M 65.24918532220522,92.70127873531123 M 64.88741388985841,92.85112936906785 M 64.49918532220545,92.90224062963443 M 64.11095675455022,92.85112936906785 M 63.74918532220431,92.70127873531123 M 63.43852515042454,92.46290080141466 M 63.200147216527284,92.15224062963443 M 63.05029658276999,91.79046919728808 M 62.99918532220522,91.40224062963443 M 63.05029658277067,91.01401206198102 M 63.200147216527284,90.65224062963443 M 63.438525150424994,90.34158045785512 M 63.74918532220431,90.10320252395809 M 64.11095675455022,89.95335189020125 M 6.999185322205221,78.3896461296381 M 6.999185322205676,81.3896461296381 M 3.9991853222040845,81.38964612963832 M 3.9991853222047666,78.38964612963832 M 3.9991853222054488,104.38964612963832 M 3.9991853222054488,101.3896461296381 M 6.999185322205676,101.3896461296381 M 6.9991853222059035,104.38964612963787 M 4.050296582769761,91.77787469729174 M 3.9991853222047666,91.38964612963832 M 4.050296582769988,91.00141756198468 M 4.2001472165279665,90.6396461296381 M 4.438525150424766,90.32898595785855 M 4.749185322204539,90.09060802396152 M 5.110956754551353,89.94075739020468 M 5.4991853222059035,89.88964612963832 M 5.887413889858408,89.94075739020423 M 6.249185322203857,90.09060802396152 M 6.55984549398454,90.32898595785855 M 6.7982234278820215,90.6396461296381 M 6.948074061638181,91.00141756198445 M 6.999185322205221,91.38964612963832 M 6.948074061638636,91.77787469729174 M 6.798223427881567,92.1396461296381 M 6.559845493984312,92.45030630141764 M 6.249185322203857,92.68868423531512 M 5.887413889857953,92.83853486907196 M 5.499185322205221,92.88964612963832 M 5.110956754550671,92.83853486907196 M 4.749185322204312,92.68868423531512 M 4.4385251504243115,92.4503063014181 M 4.2001472165279665,92.13964612963855 M 37.96586944899309,14.67514336540421 M 38.419391794246394,17.640664817418156 M 33.47685604088997,18.396535392840633 M 33.02333369563553,15.43101394082646 M 51.503605169110415,13.955586142744096 M 51.52511171873584,14.11894460551639 M 51.554716429676546,14.343814710397965 M 51.503605169110415,14.732043278051606 M 51.35375453535403,15.093814710397965 M 51.115376601456546,15.40447488217751 M 50.804716429677455,15.642852816074765 M 50.4429449973311,15.792703449831379 M 50.054716429677455,15.843814710397737 M 49.666487862022905,15.792703449831379 M 49.304716429677,15.642852816074537 M 48.994056257897,15.404474882177965 M 48.75567832400043,15.093814710398192 M 48.60582769024313,14.73204327805206 M 48.55471642967723,14.343814710397965 M 48.60582769024313,13.95558614274455 M 48.75567832400043,13.593814710397965 M 48.994056257897,13.283154538618192 M 49.304716429677,13.044776604720937 M 49.666487862022905,12.894925970964096 M 50.054716429677455,12.843814710397737 M 50.44294499733064,12.894925970964323 M 50.804716429677455,13.044776604720937 M 51.115376601456546,13.283154538618192 M 51.35375453535403,13.593814710397965 "
  />
</svg>
