<?xml version="1.0" standalone="no"?>
<!DOCTYPE svg PUBLIC "-//W3C//DTD SVG 1.1//EN" "http://www.w3.org/Graphics/SVG/1.1/DTD/svg11.dtd">
<svg width="89.99999999999977mm" height="33.999999999999545mm"
 viewBox="0 0 89.99999999999977 33.999999999999545"
 xmlns="http://www.w3.org/2000/svg" version="1.1"
 xmlns:xlink="http://www.w3.org/1999/xlink">
<desc>Output from Flights of Ideas SVG Sketchup Plugin</desc>

  <path id="face0-cut"
 style="fill:none;stroke:#FF0000;stroke-width:0.001;stroke-miterlimit:4;stroke-dasharray:none;stroke-linejoin:round;stroke-linecap:round"
        d="M 4.0,7.0 L 3.999999999998863,15.499999999999545 L 9.649999999999409,15.499999999999545 L 9.650000000000091,14.249999999999545 L 11.999999999999545,14.249999999999545 L 11.999999999999545,15.499999999999545 L 12.999999999999318,15.499999999998636 L 13.300000000001546,16.999999999999545 L 13.000000000000227,18.499999999999545 L 12.000000000001137,18.499999999999545 L 12.000000000000682,19.75 L 9.650000000001683,19.75 L 9.650000000000773,18.49999999999909 L 6.000000000001364,18.5 L 4.000000000001364,18.5 L 4.0,26.999999999999545 L 1.0,26.999999999999545 L 1.0,29.999999999999545 L 4.0,29.999999999999545 L 4.0,32.999999999999545 L 85.99999999999977,32.999999999999545 L 85.99999999999977,29.999999999999545 L 88.99999999999977,29.999999999999545 L 88.99999999999977,26.999999999999545 L 85.99999999999977,26.999999999999545 L 86.00000000000091,18.5 L 80.35000000000036,18.5 L 80.34999999999923,19.75 L 78.00000000000023,19.750000000000455 L 78.00000000000023,18.5 L 77.0,18.50000000000091 L 76.69999999999823,17.0 L 76.99999999999955,15.5 L 77.99999999999864,15.5 L 77.99999999999909,14.249999999999545 L 80.34999999999854,14.249999999999545 L 80.34999999999854,15.50000000000091 L 83.99999999999841,15.499999999999545 L 85.99999999999864,15.499999999999545 L 85.99999999999977,7.0 L 88.99999999999977,7.0 L 88.99999999999977,3.9999999999995453 L 85.99999999999977,3.9999999999995453 L 85.99999999999977,1.0 L 4.0,1.0 L 4.0,4.0 L 1.0,4.0 L 1.0,7.0 L 4.0,7.0 M 58.49999999999977,23.000000000000455 L 58.55111126056613,22.61177143234636 L 58.7009618943232,22.25 L 58.93933982822,21.939339828220454 L 59.24999999999977,21.700961894323427 L 59.61177143234636,21.55111126056636 L 60.0,21.5 L 60.388228567653414,21.55111126056636 L 60.75,21.700961894322973 L 61.06066017177977,21.93933982822 L 61.29903810567657,22.25 L 61.44888873943364,22.61177143234636 L 61.5,23.000000000000455 L 61.44888873943364,23.38822856765364 L 61.29903810567657,23.75 L 61.06066017177977,24.060660171779546 L 60.75,24.299038105677027 L 60.388228567653414,24.44888873943364 L 60.0,24.5 L 59.61177143234636,24.44888873943364 L 59.24999999999977,24.299038105676573 L 58.93933982822,24.06066017178 L 58.7009618943232,23.75 L 58.55111126056613,23.38822856765364 L 58.49999999999977,23.000000000000455 M 29.999999999999773,21.5 L 30.388228567653414,21.55111126056636 L 30.75,21.700961894323427 L 31.060660171779773,21.93933982822 L 31.299038105676573,22.25 L 31.44888873943364,22.61177143234636 L 31.499999999999773,23.0 L 31.44888873943364,23.38822856765364 L 31.299038105676573,23.75 L 31.060660171779773,24.06066017178 L 30.75,24.299038105677027 L 30.388228567653414,24.44888873943364 L 29.999999999999773,24.500000000000455 L 29.61177143234636,24.448888739434096 L 29.249999999999773,24.299038105677027 L 28.93933982822,24.06066017178 L 28.7009618943232,23.75 L 28.55111126056613,23.38822856765364 L 28.499999999999773,23.000000000000455 L 28.55111126056613,22.61177143234636 L 28.7009618943232,22.25 L 28.93933982822,21.93933982822 L 29.249999999999773,21.700961894323427 L 29.61177143234636,21.55111126056636 L 29.999999999999773,21.5 M 28.55111126056613,11.388228567653641 L 28.499999999999773,11.0 L 28.55111126056613,10.611771432346359 L 28.7009618943232,10.25 L 28.93933982822,9.93933982822 L 29.249999999999773,9.700961894323427 L 29.61177143234636,9.551111260565904 L 29.999999999999773,9.499999999999545 L 30.388228567653414,9.551111260566358 L 30.75,9.700961894322973 L 31.060660171779773,9.93933982822 L 31.299038105676573,10.25 L 31.44888873943364,10.611771432346359 L 31.499999999999773,10.999999999999545 L 31.44888873943364,11.388228567653641 L 31.299038105676573,11.75 L 31.060660171779773,12.06066017178 L 30.75,12.299038105676573 L 30.388228567653414,12.448888739433642 L 29.999999999999773,12.499999999999545 L 29.61177143234636,12.448888739433642 L 29.249999999999773,12.299038105677027 L 28.93933982822,12.060660171779546 L 28.7009618943232,11.75 L 28.55111126056613,11.388228567653641 M 61.44888873943364,10.611771432346359 L 61.5,10.999999999999545 L 61.44888873943364,11.388228567653641 L 61.29903810567657,11.75 L 61.06066017177977,12.06066017178 L 60.75,12.299038105676573 L 60.388228567653414,12.448888739433642 L 60.0,12.5 L 59.61177143234636,12.448888739433642 L 59.24999999999977,12.299038105677027 L 58.93933982822,12.06066017178 L 58.7009618943232,11.75 L 58.55111126056613,11.388228567653641 L 58.49999999999977,10.999999999999545 L 58.55111126056613,10.611771432346359 L 58.7009618943232,10.25 L 58.93933982822,9.939339828220454 L 59.24999999999977,9.700961894323427 L 59.61177143234636,9.551111260566358 L 60.0,9.5 L 60.388228567653414,9.551111260565904 L 60.75,9.700961894322973 L 61.06066017177977,9.939339828220454 L 61.29903810567657,10.25 L 61.44888873943364,10.611771432346359 M 67.10222252113272,17.776457135307737 L 66.99999999999977,17.0 L 67.10222252113272,16.223542864692263 L 67.40192378864663,15.499999999999545 L 67.87867965644023,14.87867965644 L 68.49999999999977,14.4019237886464 L 69.22354286469226,14.102222521132717 L 69.99999999999977,13.999999999999545 L 70.77645713530728,14.102222521132717 L 71.49999999999977,14.4019237886464 L 72.12132034355932,14.87867965644 L 72.59807621135292,15.499999999999545 L 72.89777747886683,16.223542864691808 L 72.99999999999977,17.0 L 72.89777747886683,17.776457135307737 L 72.59807621135292,18.5 L 72.12132034355932,19.121320343559546 L 71.49999999999977,19.598076211353145 L 70.77645713530728,19.89777747886683 L 69.99999999999977,20.0 L 69.22354286469226,19.897777478867283 L 68.49999999999977,19.598076211353145 L 67.87867965644023,19.121320343559546 L 67.40192378864663,18.5 L 67.10222252113272,17.776457135307737 M 42.10222252113226,17.776457135307282 L 41.99999999999977,17.0 L 42.10222252113226,16.223542864692263 L 42.40192378864617,15.499999999999545 L 42.87867965644,14.87867965644 L 43.49999999999977,14.4019237886464 L 44.22354286469226,14.102222521132262 L 44.99999999999977,13.999999999999545 L 45.776457135307055,14.102222521132262 L 46.49999999999977,14.4019237886464 L 47.12132034355932,14.87867965644 L 47.598076211353145,15.499999999999545 L 47.897777478867056,16.223542864691808 L 47.99999999999977,17.0 L 47.897777478867056,17.776457135307282 L 47.598076211353145,18.5 L 47.12132034355932,19.121320343559546 L 46.49999999999977,19.598076211353145 L 45.776457135307055,19.89777747886683 L 44.99999999999977,20.0 L 44.22354286469226,19.89777747886683 L 43.49999999999977,19.598076211353145 L 42.87867965644,19.121320343559546 L 42.40192378864617,18.5 L 42.10222252113226,17.776457135307282 M 17.102222521132262,17.776457135307282 L 16.999999999999545,17.0 L 17.102222521132262,16.223542864691808 L 17.401923788646172,15.499999999999545 L 17.87867965644,14.87867965644 L 18.499999999999545,14.4019237886464 L 19.223542864692263,14.102222521132262 L 19.999999999999545,13.999999999999545 L 20.776457135307055,14.102222521132262 L 21.499999999999545,14.4019237886464 L 22.12132034355932,14.87867965644 L 22.598076211353145,15.499999999999545 L 22.897777478867056,16.223542864691808 L 22.999999999999545,17.0 L 22.897777478867056,17.776457135307282 L 22.598076211353145,18.5 L 22.12132034355932,19.121320343559546 L 21.499999999999545,19.598076211353145 L 20.776457135307055,19.897777478867283 L 19.999999999999545,20.0 L 19.223542864692263,19.897777478867283 L 18.499999999999545,19.598076211353145 L 17.87867965644,19.121320343559546 L 17.401923788646172,18.5 L 17.102222521132262,17.776457135307282 "
  />
  <path id="face0-interior"
 style="fill:none;stroke:#FF0000;stroke-width:0.001;stroke-miterlimit:4;stroke-dasharray:none;stroke-linejoin:round;stroke-linecap:round"
        d="M 4.0,7.0 M 3.999999999998863,15.499999999999545 M 9.649999999999409,15.499999999999545 M 9.650000000000091,14.249999999999545 M 11.999999999999545,14.249999999999545 M 11.999999999999545,15.499999999999545 M 12.999999999999318,15.499999999998636 M 13.300000000001546,16.999999999999545 M 13.000000000000227,18.499999999999545 M 12.000000000001137,18.499999999999545 M 12.000000000000682,19.75 M 9.650000000001683,19.75 M 9.650000000000773,18.49999999999909 M 6.000000000001364,18.5 M 4.000000000001364,18.5 M 4.0,26.999999999999545 M 1.0,26.999999999999545 M 1.0,29.999999999999545 M 4.0,29.999999999999545 M 4.0,32.999999999999545 M 85.99999999999977,32.999999999999545 M 85.99999999999977,29.999999999999545 M 88.99999999999977,29.999999999999545 M 88.99999999999977,26.999999999999545 M 85.99999999999977,26.999999999999545 M 86.00000000000091,18.5 M 80.35000000000036,18.5 M 80.34999999999923,19.75 M 78.00000000000023,19.750000000000455 M 78.00000000000023,18.5 M 77.0,18.50000000000091 M 76.69999999999823,17.0 M 76.99999999999955,15.5 M 77.99999999999864,15.5 M 77.99999999999909,14.249999999999545 M 80.34999999999854,14.249999999999545 M 80.34999999999854,15.50000000000091 M 83.99999999999841,15.499999999999545 M 85.99999999999864,15.499999999999545 M 85.99999999999977,7.0 M 88.99999999999977,7.0 M 88.99999999999977,3.9999999999995453 M 85.99999999999977,3.9999999999995453 M 85.99999999999977,1.0 M 4.0,1.0 M 4.0,4.0 M 1.0,4.0 M 1.0,7.0 M 58.49999999999977,23.000000000000455 M 58.55111126056613,22.61177143234636 M 58.7009618943232,22.25 M 58.93933982822,21.939339828220454 M 59.24999999999977,21.700961894323427 M 59.61177143234636,21.55111126056636 M 60.0,21.5 M 60.388228567653414,21.55111126056636 M 60.75,21.700961894322973 M 61.06066017177977,21.93933982822 M 61.29903810567657,22.25 M 61.44888873943364,22.61177143234636 M 61.5,23.000000000000455 M 61.44888873943364,23.38822856765364 M 61.29903810567657,23.75 M 61.06066017177977,24.060660171779546 M 60.75,24.299038105677027 M 60.388228567653414,24.44888873943364 M 60.0,24.5 M 59.61177143234636,24.44888873943364 M 59.24999999999977,24.299038105676573 M 58.93933982822,24.06066017178 M 58.7009618943232,23.75 M 58.55111126056613,23.38822856765364 M 29.999999999999773,21.5 M 30.388228567653414,21.55111126056636 M 30.75,21.700961894323427 M 31.060660171779773,21.93933982822 M 31.299038105676573,22.25 M 31.44888873943364,22.61177143234636 M 31.499999999999773,23.0 M 31.44888873943364,23.38822856765364 M 31.299038105676573,23.75 M 31.060660171779773,24.06066017178 M 30.75,24.299038105677027 M 30.388228567653414,24.44888873943364 M 29.999999999999773,24.500000000000455 M 29.61177143234636,24.448888739434096 M 29.249999999999773,24.299038105677027 M 28.93933982822,24.06066017178 M 28.7009618943232,23.75 M 28.55111126056613,23.38822856765364 M 28.499999999999773,23.000000000000455 M 28.55111126056613,22.61177143234636 M 28.7009618943232,22.25 M 28.93933982822,21.93933982822 M 29.249999999999773,21.700961894323427 M 29.61177143234636,21.55111126056636 M 28.55111126056613,11.388228567653641 M 28.499999999999773,11.0 M 28.55111126056613,10.611771432346359 M 28.7009618943232,10.25 M 28.93933982822,9.93933982822 M 29.249999999999773,9.700961894323427 M 29.61177143234636,9.551111260565904 M 29.999999999999773,9.499999999999545 M 30.388228567653414,9.551111260566358 M 30.75,9.700961894322973 M 31.060660171779773,9.93933982822 M 31.299038105676573,10.25 M 31.44888873943364,10.611771432346359 M 31.499999999999773,10.999999999999545 M 31.44888873943364,11.388228567653641 M 31.299038105676573,11.75 M 31.060660171779773,12.06066017178 M 30.75,12.299038105676573 M 30.388228567653414,12.448888739433642 M 29.999999999999773,12.499999999999545 M 29.61177143234636,12.448888739433642 M 29.249999999999773,12.299038105677027 M 28.93933982822,12.060660171779546 M 28.7009618943232,11.75 M 61.44888873943364,10.611771432346359 M 61.5,10.999999999999545 M 61.44888873943364,11.388228567653641 M 61.29903810567657,11.75 M 61.06066017177977,12.06066017178 M 60.75,12.299038105676573 M 60.388228567653414,12.448888739433642 M 60.0,12.5 M 59.61177143234636,12.448888739433642 M 59.24999999999977,12.299038105677027 M 58.93933982822,12.06066017178 M 58.7009618943232,11.75 M 58.55111126056613,11.388228567653641 M 58.49999999999977,10.999999999999545 M 58.55111126056613,10.611771432346359 M 58.7009618943232,10.25 M 58.93933982822,9.939339828220454 M 59.24999999999977,9.700961894323427 M 59.61177143234636,9.551111260566358 M 60.0,9.5 M 60.388228567653414,9.551111260565904 M 60.75,9.700961894322973 M 61.06066017177977,9.939339828220454 M 61.29903810567657,10.25 M 67.10222252113272,17.776457135307737 M 66.99999999999977,17.0 M 67.10222252113272,16.223542864692263 M 67.40192378864663,15.499999999999545 M 67.87867965644023,14.87867965644 M 68.49999999999977,14.4019237886464 M 69.22354286469226,14.102222521132717 M 69.99999999999977,13.999999999999545 M 70.77645713530728,14.102222521132717 M 71.49999999999977,14.4019237886464 M 72.12132034355932,14.87867965644 M 72.59807621135292,15.499999999999545 M 72.89777747886683,16.223542864691808 M 72.99999999999977,17.0 M 72.89777747886683,17.776457135307737 M 72.59807621135292,18.5 M 72.12132034355932,19.121320343559546 M 71.49999999999977,19.598076211353145 M 70.77645713530728,19.89777747886683 M 69.99999999999977,20.0 M 69.22354286469226,19.897777478867283 M 68.49999999999977,19.598076211353145 M 67.87867965644023,19.121320343559546 M 67.40192378864663,18.5 M 42.10222252113226,17.776457135307282 M 41.99999999999977,17.0 M 42.10222252113226,16.223542864692263 M 42.40192378864617,15.499999999999545 M 42.87867965644,14.87867965644 M 43.49999999999977,14.4019237886464 M 44.22354286469226,14.102222521132262 M 44.99999999999977,13.999999999999545 M 45.776457135307055,14.102222521132262 M 46.49999999999977,14.4019237886464 M 47.12132034355932,14.87867965644 M 47.598076211353145,15.499999999999545 M 47.897777478867056,16.223542864691808 M 47.99999999999977,17.0 M 47.897777478867056,17.776457135307282 M 47.598076211353145,18.5 M 47.12132034355932,19.121320343559546 M 46.49999999999977,19.598076211353145 M 45.776457135307055,19.89777747886683 M 44.99999999999977,20.0 M 44.22354286469226,19.89777747886683 M 43.49999999999977,19.598076211353145 M 42.87867965644,19.121320343559546 M 42.40192378864617,18.5 M 17.102222521132262,17.776457135307282 M 16.999999999999545,17.0 M 17.102222521132262,16.223542864691808 M 17.401923788646172,15.499999999999545 M 17.87867965644,14.87867965644 M 18.499999999999545,14.4019237886464 M 19.223542864692263,14.102222521132262 M 19.999999999999545,13.999999999999545 M 20.776457135307055,14.102222521132262 M 21.499999999999545,14.4019237886464 M 22.12132034355932,14.87867965644 M 22.598076211353145,15.499999999999545 M 22.897777478867056,16.223542864691808 M 22.999999999999545,17.0 M 22.897777478867056,17.776457135307282 M 22.598076211353145,18.5 M 22.12132034355932,19.121320343559546 M 21.499999999999545,19.598076211353145 M 20.776457135307055,19.897777478867283 M 19.999999999999545,20.0 M 19.223542864692263,19.897777478867283 M 18.499999999999545,19.598076211353145 M 17.87867965644,19.121320343559546 M 17.401923788646172,18.5 "
  />
  <path id="face0-interior"
 style="fill:none;stroke:#00FF00;stroke-width:1;stroke-miterlimit:4;stroke-dasharray:none;stroke-linejoin:round;stroke-linecap:round"
        d="M 4.0,7.0 M 3.999999999998863,15.499999999999545 M 9.649999999999409,15.499999999999545 M 9.650000000000091,14.249999999999545 M 11.999999999999545,14.249999999999545 M 11.999999999999545,15.499999999999545 M 12.999999999999318,15.499999999998636 M 13.300000000001546,16.999999999999545 M 13.000000000000227,18.499999999999545 M 12.000000000001137,18.499999999999545 M 12.000000000000682,19.75 M 9.650000000001683,19.75 M 9.650000000000773,18.49999999999909 M 6.000000000001364,18.5 M 4.000000000001364,18.5 M 4.0,26.999999999999545 M 1.0,26.999999999999545 M 1.0,29.999999999999545 M 4.0,29.999999999999545 M 4.0,32.999999999999545 M 85.99999999999977,32.999999999999545 M 85.99999999999977,29.999999999999545 M 88.99999999999977,29.999999999999545 M 88.99999999999977,26.999999999999545 M 85.99999999999977,26.999999999999545 M 86.00000000000091,18.5 M 80.35000000000036,18.5 M 80.34999999999923,19.75 M 78.00000000000023,19.750000000000455 M 78.00000000000023,18.5 M 77.0,18.50000000000091 M 76.69999999999823,17.0 M 76.99999999999955,15.5 M 77.99999999999864,15.5 M 77.99999999999909,14.249999999999545 M 80.34999999999854,14.249999999999545 M 80.34999999999854,15.50000000000091 M 83.99999999999841,15.499999999999545 M 85.99999999999864,15.499999999999545 M 85.99999999999977,7.0 M 88.99999999999977,7.0 M 88.99999999999977,3.9999999999995453 M 85.99999999999977,3.9999999999995453 M 85.99999999999977,1.0 M 4.0,1.0 M 4.0,4.0 M 1.0,4.0 M 1.0,7.0 M 58.49999999999977,23.000000000000455 M 58.55111126056613,22.61177143234636 M 58.7009618943232,22.25 M 58.93933982822,21.939339828220454 M 59.24999999999977,21.700961894323427 M 59.61177143234636,21.55111126056636 M 60.0,21.5 M 60.388228567653414,21.55111126056636 M 60.75,21.700961894322973 M 61.06066017177977,21.93933982822 M 61.29903810567657,22.25 M 61.44888873943364,22.61177143234636 M 61.5,23.000000000000455 M 61.44888873943364,23.38822856765364 M 61.29903810567657,23.75 M 61.06066017177977,24.060660171779546 M 60.75,24.299038105677027 M 60.388228567653414,24.44888873943364 M 60.0,24.5 M 59.61177143234636,24.44888873943364 M 59.24999999999977,24.299038105676573 M 58.93933982822,24.06066017178 M 58.7009618943232,23.75 M 58.55111126056613,23.38822856765364 M 29.999999999999773,21.5 M 30.388228567653414,21.55111126056636 M 30.75,21.700961894323427 M 31.060660171779773,21.93933982822 M 31.299038105676573,22.25 M 31.44888873943364,22.61177143234636 M 31.499999999999773,23.0 M 31.44888873943364,23.38822856765364 M 31.299038105676573,23.75 M 31.060660171779773,24.06066017178 M 30.75,24.299038105677027 M 30.388228567653414,24.44888873943364 M 29.999999999999773,24.500000000000455 M 29.61177143234636,24.448888739434096 M 29.249999999999773,24.299038105677027 M 28.93933982822,24.06066017178 M 28.7009618943232,23.75 M 28.55111126056613,23.38822856765364 M 28.499999999999773,23.000000000000455 M 28.55111126056613,22.61177143234636 M 28.7009618943232,22.25 M 28.93933982822,21.93933982822 M 29.249999999999773,21.700961894323427 M 29.61177143234636,21.55111126056636 M 28.55111126056613,11.388228567653641 M 28.499999999999773,11.0 M 28.55111126056613,10.611771432346359 M 28.7009618943232,10.25 M 28.93933982822,9.93933982822 M 29.249999999999773,9.700961894323427 M 29.61177143234636,9.551111260565904 M 29.999999999999773,9.499999999999545 M 30.388228567653414,9.551111260566358 M 30.75,9.700961894322973 M 31.060660171779773,9.93933982822 M 31.299038105676573,10.25 M 31.44888873943364,10.611771432346359 M 31.499999999999773,10.999999999999545 M 31.44888873943364,11.388228567653641 M 31.299038105676573,11.75 M 31.060660171779773,12.06066017178 M 30.75,12.299038105676573 M 30.388228567653414,12.448888739433642 M 29.999999999999773,12.499999999999545 M 29.61177143234636,12.448888739433642 M 29.249999999999773,12.299038105677027 M 28.93933982822,12.060660171779546 M 28.7009618943232,11.75 M 61.44888873943364,10.611771432346359 M 61.5,10.999999999999545 M 61.44888873943364,11.388228567653641 M 61.29903810567657,11.75 M 61.06066017177977,12.06066017178 M 60.75,12.299038105676573 M 60.388228567653414,12.448888739433642 M 60.0,12.5 M 59.61177143234636,12.448888739433642 M 59.24999999999977,12.299038105677027 M 58.93933982822,12.06066017178 M 58.7009618943232,11.75 M 58.55111126056613,11.388228567653641 M 58.49999999999977,10.999999999999545 M 58.55111126056613,10.611771432346359 M 58.7009618943232,10.25 M 58.93933982822,9.939339828220454 M 59.24999999999977,9.700961894323427 M 59.61177143234636,9.551111260566358 M 60.0,9.5 M 60.388228567653414,9.551111260565904 M 60.75,9.700961894322973 M 61.06066017177977,9.939339828220454 M 61.29903810567657,10.25 M 67.10222252113272,17.776457135307737 M 66.99999999999977,17.0 M 67.10222252113272,16.223542864692263 M 67.40192378864663,15.499999999999545 M 67.87867965644023,14.87867965644 M 68.49999999999977,14.4019237886464 M 69.22354286469226,14.102222521132717 M 69.99999999999977,13.999999999999545 M 70.77645713530728,14.102222521132717 M 71.49999999999977,14.4019237886464 M 72.12132034355932,14.87867965644 M 72.59807621135292,15.499999999999545 M 72.89777747886683,16.223542864691808 M 72.99999999999977,17.0 M 72.89777747886683,17.776457135307737 M 72.59807621135292,18.5 M 72.12132034355932,19.121320343559546 M 71.49999999999977,19.598076211353145 M 70.77645713530728,19.89777747886683 M 69.99999999999977,20.0 M 69.22354286469226,19.897777478867283 M 68.49999999999977,19.598076211353145 M 67.87867965644023,19.121320343559546 M 67.40192378864663,18.5 M 42.10222252113226,17.776457135307282 M 41.99999999999977,17.0 M 42.10222252113226,16.223542864692263 M 42.40192378864617,15.499999999999545 M 42.87867965644,14.87867965644 M 43.49999999999977,14.4019237886464 M 44.22354286469226,14.102222521132262 M 44.99999999999977,13.999999999999545 M 45.776457135307055,14.102222521132262 M 46.49999999999977,14.4019237886464 M 47.12132034355932,14.87867965644 M 47.598076211353145,15.499999999999545 M 47.897777478867056,16.223542864691808 M 47.99999999999977,17.0 M 47.897777478867056,17.776457135307282 M 47.598076211353145,18.5 M 47.12132034355932,19.121320343559546 M 46.49999999999977,19.598076211353145 M 45.776457135307055,19.89777747886683 M 44.99999999999977,20.0 M 44.22354286469226,19.89777747886683 M 43.49999999999977,19.598076211353145 M 42.87867965644,19.121320343559546 M 42.40192378864617,18.5 M 17.102222521132262,17.776457135307282 M 16.999999999999545,17.0 M 17.102222521132262,16.223542864691808 M 17.401923788646172,15.499999999999545 M 17.87867965644,14.87867965644 M 18.499999999999545,14.4019237886464 M 19.223542864692263,14.102222521132262 M 19.999999999999545,13.999999999999545 M 20.776457135307055,14.102222521132262 M 21.499999999999545,14.4019237886464 M 22.12132034355932,14.87867965644 M 22.598076211353145,15.499999999999545 M 22.897777478867056,16.223542864691808 M 22.999999999999545,17.0 M 22.897777478867056,17.776457135307282 M 22.598076211353145,18.5 M 22.12132034355932,19.121320343559546 M 21.499999999999545,19.598076211353145 M 20.776457135307055,19.897777478867283 M 19.999999999999545,20.0 M 19.223542864692263,19.897777478867283 M 18.499999999999545,19.598076211353145 M 17.87867965644,19.121320343559546 M 17.401923788646172,18.5 "
  />
</svg>
