<?xml version="1.0" standalone="no"?>
<!DOCTYPE svg PUBLIC "-//W3C//DTD SVG 1.1//EN" "http://www.w3.org/Graphics/SVG/1.1/DTD/svg11.dtd">
<svg width="31.142135623729246mm" height="26.70279579551061mm"
 viewBox="0 0 31.142135623729246 26.70279579551061"
 xmlns="http://www.w3.org/2000/svg" version="1.1"
 xmlns:xlink="http://www.w3.org/1999/xlink">
<desc>Output from Flights of Ideas SVG Sketchup Plugin</desc>

  <path id="face0-cut"
 style="fill:none;stroke:#FF0000;stroke-width:0.001;stroke-miterlimit:4;stroke-dasharray:none;stroke-linejoin:round;stroke-linecap:round"
        d="M 28.142135623729246,7.0 L 29.642135623729246,7.0 L 30.14213562372902,6.5 L 30.142135623729246,1.0 L 15.142135623729246,1.0 L 1.0,15.142135623732429 L 4.489592359914241,25.70279579551061 L 26.374368670760532,3.8180194846586346 L 28.849242404915685,6.292893218813333 L 28.142135623729246,7.0 M 18.12436867076258,5.042893218811969 L 18.323016949010025,5.301776695295757 L 18.44789247714084,5.603252888917268 L 18.490485194279472,5.926776695295757 L 18.44789247714084,6.250300501673792 L 18.323016949010025,6.551776695295757 L 18.12436867076258,6.810660171778636 L 17.865480978546657,7.0 L 17.564009000657506,7.134183978157125 L 17.240485194279472,7.176776695295757 L 16.91696138790121,7.1341839781566705 L 16.615481435718948,7.0 L 16.35660171779614,6.810660171779091 L 16.15795343954892,6.551776695295757 L 16.033077911417877,6.250300501673337 L 15.990485194279245,5.9267766952953025 L 16.033077911417877,5.603252888917268 L 16.15795343954892,5.301776695295757 L 16.35660171779614,5.042893218811969 L 16.615485194279472,4.844244940564749 L 16.91696138790121,4.719369412434389 L 17.240485194279472,4.676776695295757 L 17.564009000657506,4.7193694124339345 L 17.865485194279472,4.844244940565204 L 18.12436867076258,5.042893218811969 M 6.457106781185757,16.710155108391973 L 6.258458502938538,16.45127163190864 L 6.133582974807723,16.149795438286674 L 6.090990257669091,15.82627163190864 L 6.133582974807723,15.50274782553015 L 6.258458502938538,15.201271631908185 L 6.457106781185985,14.942388155425306 L 6.715990257669091,14.743739877178086 L 7.017466451290829,14.618864349047271 L 7.340990257669091,14.576271631908185 L 7.664514064047353,14.618864349047271 L 7.965990257669091,14.743739877178086 L 8.224873734152425,14.942388155425306 L 8.423522012399872,15.20127163190864 L 8.548397540530459,15.50274782553015 L 8.590990257669091,15.82627163190864 L 8.548397540530459,16.149795438286674 L 8.423522012399872,16.45127163190864 L 8.224873734152425,16.710155108391973 L 7.965990257669091,16.908803386639192 L 7.664514064047353,17.033678914770007 L 7.340990257669091,17.07627163190864 L 7.017466451290829,17.033678914770007 L 6.715990257669091,16.908803386639192 L 6.457106781185757,16.710155108391973 "
  />
  <path id="face0-interior"
 style="fill:none;stroke:#FF0000;stroke-width:0.001;stroke-miterlimit:4;stroke-dasharray:none;stroke-linejoin:round;stroke-linecap:round"
        d="M 28.142135623729246,7.0 M 29.642135623729246,7.0 M 30.14213562372902,6.5 M 30.142135623729246,1.0 M 15.142135623729246,1.0 M 1.0,15.142135623732429 M 4.489592359914241,25.70279579551061 M 26.374368670760532,3.8180194846586346 M 28.849242404915685,6.292893218813333 M 18.12436867076258,5.042893218811969 M 18.323016949010025,5.301776695295757 M 18.44789247714084,5.603252888917268 M 18.490485194279472,5.926776695295757 M 18.44789247714084,6.250300501673792 M 18.323016949010025,6.551776695295757 M 18.12436867076258,6.810660171778636 M 17.865480978546657,7.0 M 17.564009000657506,7.134183978157125 M 17.240485194279472,7.176776695295757 M 16.91696138790121,7.1341839781566705 M 16.615481435718948,7.0 M 16.35660171779614,6.810660171779091 M 16.15795343954892,6.551776695295757 M 16.033077911417877,6.250300501673337 M 15.990485194279245,5.9267766952953025 M 16.033077911417877,5.603252888917268 M 16.15795343954892,5.301776695295757 M 16.35660171779614,5.042893218811969 M 16.615485194279472,4.844244940564749 M 16.91696138790121,4.719369412434389 M 17.240485194279472,4.676776695295757 M 17.564009000657506,4.7193694124339345 M 17.865485194279472,4.844244940565204 M 6.457106781185757,16.710155108391973 M 6.258458502938538,16.45127163190864 M 6.133582974807723,16.149795438286674 M 6.090990257669091,15.82627163190864 M 6.133582974807723,15.50274782553015 M 6.258458502938538,15.201271631908185 M 6.457106781185985,14.942388155425306 M 6.715990257669091,14.743739877178086 M 7.017466451290829,14.618864349047271 M 7.340990257669091,14.576271631908185 M 7.664514064047353,14.618864349047271 M 7.965990257669091,14.743739877178086 M 8.224873734152425,14.942388155425306 M 8.423522012399872,15.20127163190864 M 8.548397540530459,15.50274782553015 M 8.590990257669091,15.82627163190864 M 8.548397540530459,16.149795438286674 M 8.423522012399872,16.45127163190864 M 8.224873734152425,16.710155108391973 M 7.965990257669091,16.908803386639192 M 7.664514064047353,17.033678914770007 M 7.340990257669091,17.07627163190864 M 7.017466451290829,17.033678914770007 M 6.715990257669091,16.908803386639192 "
  />
  <path id="face0-interior"
 style="fill:none;stroke:#00FF00;stroke-width:1;stroke-miterlimit:4;stroke-dasharray:none;stroke-linejoin:round;stroke-linecap:round"
        d="M 28.142135623729246,7.0 M 29.642135623729246,7.0 M 30.14213562372902,6.5 M 30.142135623729246,1.0 M 15.142135623729246,1.0 M 1.0,15.142135623732429 M 4.489592359914241,25.70279579551061 M 26.374368670760532,3.8180194846586346 M 28.849242404915685,6.292893218813333 M 18.12436867076258,5.042893218811969 M 18.323016949010025,5.301776695295757 M 18.44789247714084,5.603252888917268 M 18.490485194279472,5.926776695295757 M 18.44789247714084,6.250300501673792 M 18.323016949010025,6.551776695295757 M 18.12436867076258,6.810660171778636 M 17.865480978546657,7.0 M 17.564009000657506,7.134183978157125 M 17.240485194279472,7.176776695295757 M 16.91696138790121,7.1341839781566705 M 16.615481435718948,7.0 M 16.35660171779614,6.810660171779091 M 16.15795343954892,6.551776695295757 M 16.033077911417877,6.250300501673337 M 15.990485194279245,5.9267766952953025 M 16.033077911417877,5.603252888917268 M 16.15795343954892,5.301776695295757 M 16.35660171779614,5.042893218811969 M 16.615485194279472,4.844244940564749 M 16.91696138790121,4.719369412434389 M 17.240485194279472,4.676776695295757 M 17.564009000657506,4.7193694124339345 M 17.865485194279472,4.844244940565204 M 6.457106781185757,16.710155108391973 M 6.258458502938538,16.45127163190864 M 6.133582974807723,16.149795438286674 M 6.090990257669091,15.82627163190864 M 6.133582974807723,15.50274782553015 M 6.258458502938538,15.201271631908185 M 6.457106781185985,14.942388155425306 M 6.715990257669091,14.743739877178086 M 7.017466451290829,14.618864349047271 M 7.340990257669091,14.576271631908185 M 7.664514064047353,14.618864349047271 M 7.965990257669091,14.743739877178086 M 8.224873734152425,14.942388155425306 M 8.423522012399872,15.20127163190864 M 8.548397540530459,15.50274782553015 M 8.590990257669091,15.82627163190864 M 8.548397540530459,16.149795438286674 M 8.423522012399872,16.45127163190864 M 8.224873734152425,16.710155108391973 M 7.965990257669091,16.908803386639192 M 7.664514064047353,17.033678914770007 M 7.340990257669091,17.07627163190864 M 7.017466451290829,17.033678914770007 M 6.715990257669091,16.908803386639192 "
  />
</svg>
