<?xml version="1.0" standalone="no"?>
<!DOCTYPE svg PUBLIC "-//W3C//DTD SVG 1.1//EN" "http://www.w3.org/Graphics/SVG/1.1/DTD/svg11.dtd">
<svg width="90.00000000000705mm" height="67.00000000000432mm"
 viewBox="0 0 90.00000000000705 67.00000000000432"
 xmlns="http://www.w3.org/2000/svg" version="1.1"
 xmlns:xlink="http://www.w3.org/1999/xlink">
<desc>Output from Flights of Ideas SVG Sketchup Plugin</desc>

  <path id="face0-cut"
 style="fill:none;stroke:#FF0000;stroke-width:0.001;stroke-miterlimit:4;stroke-dasharray:none;stroke-linejoin:round;stroke-linecap:round"
        d="M 89.00000000000182,6.000000000004093 L 86.00000000000182,6.000000000004093 L 86.00000000000114,1.0000000000045475 L 3.9999999999995453,1.0 L 4.0,6.000000000004093 L 1.0,6.000000000004093 L 1.0000000000002274,11.000000000000455 L 4.000000000000227,11.0 L 3.999999999998863,21.500000000004547 L 9.649999999998954,21.500000000004547 L 9.650000000000091,20.250000000004547 L 11.999999999999318,20.250000000004547 L 11.999999999999318,21.500000000004547 L 12.999999999999318,21.500000000004093 L 13.300000000001091,23.000000000004547 L 13.000000000000682,24.500000000004547 L 12.000000000001819,24.500000000005002 L 12.000000000000682,25.750000000005457 L 9.650000000001228,25.750000000005457 L 9.65000000000191,24.500000000004093 L 6.000000000002046,24.500000000005002 L 4.000000000001819,24.500000000005002 L 4.000000000002501,56.0 L 1.000000000002501,56.0 L 1.0000000000045475,61.0 L 4.0000000000045475,61.0 L 4.000000000003183,66.0 L 86.00000000000477,66.00000000000432 L 86.00000000000682,61.00000000000455 L 89.00000000000705,61.00000000000455 L 89.00000000000455,56.00000000000455 L 86.00000000000432,56.00000000000455 L 86.00000000000341,24.500000000005002 L 80.35000000000241,24.500000000005002 L 80.35000000000105,25.750000000004547 L 78.00000000000159,25.750000000004547 L 78.00000000000227,24.500000000005002 L 77.00000000000205,24.500000000005457 L 76.69999999999959,23.000000000005002 L 77.00000000000114,21.500000000004547 L 78.0,21.500000000004547 L 78.0,20.250000000004547 L 80.35000000000105,20.250000000004547 L 80.35000000000105,21.500000000005457 L 84.00000000000023,21.500000000004547 L 86.00000000000068,21.500000000004547 L 86.00000000000182,11.000000000005002 L 89.00000000000182,11.000000000004547 L 89.00000000000182,6.000000000004093 M 38.69193741539857,18.542821535229905 L 40.00000000000159,18.50000000000182 L 50.000000000001364,18.50000000000273 L 51.308062584604386,18.542821535229905 L 52.61052384440268,18.67110277252641 L 53.90180644032375,18.884294391938056 L 55.17638090205219,19.18148347422084 L 56.42878930606457,19.561397410100653 L 57.65366864730345,20.022409349776808 L 58.84577380438168,20.562545169348596 L 60.000000000001364,21.17949192431388 L 61.111404660393646,21.870607753951845 L 62.175228580175826,22.632933194177895 L 63.186916302003056,23.463203850422815 L 64.14213562373266,24.357864376271664 L 65.03679614958105,25.31308369800081 L 65.86706680582665,26.32477141982781 L 66.62939224605248,27.38859533961022 L 67.32050807569067,28.500000000002274 L 67.93745483065572,29.65422619562287 L 68.47759065022751,30.846331352700872 L 68.93860258990412,32.07121069393952 L 69.31851652578325,33.323619097951905 L 69.61570560806672,34.59819355968011 L 69.82889722747859,35.88947615560119 L 69.95717846477442,37.191937415399934 L 70.00000000000227,38.50000000000273 L 69.95717846477442,39.80806258460507 L 69.82889722747859,41.110523844403815 L 69.61570560806899,42.401806440325345 L 69.31851652578393,43.6763809020531 L 68.9386025899048,44.92878930606594 L 68.47759065023047,46.15366864730413 L 67.9374548306564,47.34577380438259 L 67.3205080756918,48.50000000000273 L 66.62939224605611,49.61140466039478 L 65.86706680582733,50.67522858017719 L 65.03679614958241,51.68691630200374 L 64.14213562373402,52.64213562373334 L 63.18691630200669,53.53679614958173 L 62.17522858017719,54.36706680582711 L 61.11140466039524,55.12939224605316 L 60.00000000000341,55.82050807569158 L 58.84577380438304,56.43745483065641 L 57.653668647307086,56.97759065022865 L 56.42878930606889,57.438602589904804 L 55.17638090205355,57.81851652578325 L 53.9018064403258,58.115705608066946 L 52.61052384440404,58.32889722747905 L 51.30806258460598,58.45717846477464 L 50.00000000000318,58.50000000000273 L 40.00000000000341,58.50000000000182 L 38.69193741540039,58.45717846477419 L 37.389476155602324,58.32889722747859 L 36.09819355968057,58.11570560806649 L 34.82361909795304,57.81851652578325 L 33.57121069394202,57.438602589903894 L 32.34633135270383,56.97759065022774 L 31.154226195623323,56.43745483065595 L 30.000000000002956,55.82050807569067 L 28.8885953396109,55.1293922460527 L 27.824771419828494,54.36706680582711 L 26.813083698003766,53.53679614958219 L 25.85786437627212,52.642135623732884 L 24.96320385042327,51.68691630200374 L 24.13293319417835,50.675228580176736 L 23.37060775395412,49.61140466039433 L 22.679491924314107,48.50000000000182 L 22.06254516934905,47.345773804382134 L 21.52240934977931,46.15366864730413 L 21.061397410100653,44.92878930606457 L 20.681483474221068,43.67638090205264 L 20.38429439194033,42.40180644032489 L 20.17110277252641,41.110523844402906 L 20.04282153523036,39.80806258460461 L 20.0000000000025,38.50000000000182 L 20.04282153523036,37.19193741539857 L 20.171102772525728,35.88947615560119 L 20.3842943919376,34.59819355967966 L 20.681483474221068,33.32361909795145 L 21.06139741009997,32.07121069393861 L 21.522409349776353,30.846331352700417 L 22.06254516934837,29.65422619562196 L 22.67949192431297,28.500000000002274 L 23.370607753951163,27.38859533961022 L 24.132933194176985,26.324771419827357 L 24.963203850422133,25.313083698001265 L 25.8578643762728,24.35786437627121 L 26.813083698000355,23.463203850422815 L 27.82477141982713,22.63293319417744 L 28.888595339609537,21.87060775395139 L 30.00000000000159,21.179491924313425 L 31.154226195621277,20.562545169348596 L 32.34633135269951,20.022409349776353 L 33.57121069393838,19.561397410099744 L 34.82361909795077,19.18148347422084 L 36.0981935596792,18.884294391937146 L 37.38947615560028,18.671102772525956 L 38.69193741539857,18.542821535229905 "
  />
  <path id="face0-interior"
 style="fill:none;stroke:#FF0000;stroke-width:0.001;stroke-miterlimit:4;stroke-dasharray:none;stroke-linejoin:round;stroke-linecap:round"
        d="M 89.00000000000182,6.000000000004093 M 86.00000000000182,6.000000000004093 M 86.00000000000114,1.0000000000045475 M 3.9999999999995453,1.0 M 4.0,6.000000000004093 M 1.0,6.000000000004093 M 1.0000000000002274,11.000000000000455 M 4.000000000000227,11.0 M 3.999999999998863,21.500000000004547 M 9.649999999998954,21.500000000004547 M 9.650000000000091,20.250000000004547 M 11.999999999999318,20.250000000004547 M 11.999999999999318,21.500000000004547 M 12.999999999999318,21.500000000004093 M 13.300000000001091,23.000000000004547 M 13.000000000000682,24.500000000004547 M 12.000000000001819,24.500000000005002 M 12.000000000000682,25.750000000005457 M 9.650000000001228,25.750000000005457 M 9.65000000000191,24.500000000004093 M 6.000000000002046,24.500000000005002 M 4.000000000001819,24.500000000005002 M 4.000000000002501,56.0 M 1.000000000002501,56.0 M 1.0000000000045475,61.0 M 4.0000000000045475,61.0 M 4.000000000003183,66.0 M 86.00000000000477,66.00000000000432 M 86.00000000000682,61.00000000000455 M 89.00000000000705,61.00000000000455 M 89.00000000000455,56.00000000000455 M 86.00000000000432,56.00000000000455 M 86.00000000000341,24.500000000005002 M 80.35000000000241,24.500000000005002 M 80.35000000000105,25.750000000004547 M 78.00000000000159,25.750000000004547 M 78.00000000000227,24.500000000005002 M 77.00000000000205,24.500000000005457 M 76.69999999999959,23.000000000005002 M 77.00000000000114,21.500000000004547 M 78.0,21.500000000004547 M 78.0,20.250000000004547 M 80.35000000000105,20.250000000004547 M 80.35000000000105,21.500000000005457 M 84.00000000000023,21.500000000004547 M 86.00000000000068,21.500000000004547 M 86.00000000000182,11.000000000005002 M 89.00000000000182,11.000000000004547 M 38.69193741539857,18.542821535229905 M 40.00000000000159,18.50000000000182 M 50.000000000001364,18.50000000000273 M 51.308062584604386,18.542821535229905 M 52.61052384440268,18.67110277252641 M 53.90180644032375,18.884294391938056 M 55.17638090205219,19.18148347422084 M 56.42878930606457,19.561397410100653 M 57.65366864730345,20.022409349776808 M 58.84577380438168,20.562545169348596 M 60.000000000001364,21.17949192431388 M 61.111404660393646,21.870607753951845 M 62.175228580175826,22.632933194177895 M 63.186916302003056,23.463203850422815 M 64.14213562373266,24.357864376271664 M 65.03679614958105,25.31308369800081 M 65.86706680582665,26.32477141982781 M 66.62939224605248,27.38859533961022 M 67.32050807569067,28.500000000002274 M 67.93745483065572,29.65422619562287 M 68.47759065022751,30.846331352700872 M 68.93860258990412,32.07121069393952 M 69.31851652578325,33.323619097951905 M 69.61570560806672,34.59819355968011 M 69.82889722747859,35.88947615560119 M 69.95717846477442,37.191937415399934 M 70.00000000000227,38.50000000000273 M 69.95717846477442,39.80806258460507 M 69.82889722747859,41.110523844403815 M 69.61570560806899,42.401806440325345 M 69.31851652578393,43.6763809020531 M 68.9386025899048,44.92878930606594 M 68.47759065023047,46.15366864730413 M 67.9374548306564,47.34577380438259 M 67.3205080756918,48.50000000000273 M 66.62939224605611,49.61140466039478 M 65.86706680582733,50.67522858017719 M 65.03679614958241,51.68691630200374 M 64.14213562373402,52.64213562373334 M 63.18691630200669,53.53679614958173 M 62.17522858017719,54.36706680582711 M 61.11140466039524,55.12939224605316 M 60.00000000000341,55.82050807569158 M 58.84577380438304,56.43745483065641 M 57.653668647307086,56.97759065022865 M 56.42878930606889,57.438602589904804 M 55.17638090205355,57.81851652578325 M 53.9018064403258,58.115705608066946 M 52.61052384440404,58.32889722747905 M 51.30806258460598,58.45717846477464 M 50.00000000000318,58.50000000000273 M 40.00000000000341,58.50000000000182 M 38.69193741540039,58.45717846477419 M 37.389476155602324,58.32889722747859 M 36.09819355968057,58.11570560806649 M 34.82361909795304,57.81851652578325 M 33.57121069394202,57.438602589903894 M 32.34633135270383,56.97759065022774 M 31.154226195623323,56.43745483065595 M 30.000000000002956,55.82050807569067 M 28.8885953396109,55.1293922460527 M 27.824771419828494,54.36706680582711 M 26.813083698003766,53.53679614958219 M 25.85786437627212,52.642135623732884 M 24.96320385042327,51.68691630200374 M 24.13293319417835,50.675228580176736 M 23.37060775395412,49.61140466039433 M 22.679491924314107,48.50000000000182 M 22.06254516934905,47.345773804382134 M 21.52240934977931,46.15366864730413 M 21.061397410100653,44.92878930606457 M 20.681483474221068,43.67638090205264 M 20.38429439194033,42.40180644032489 M 20.17110277252641,41.110523844402906 M 20.04282153523036,39.80806258460461 M 20.0000000000025,38.50000000000182 M 20.04282153523036,37.19193741539857 M 20.171102772525728,35.88947615560119 M 20.3842943919376,34.59819355967966 M 20.681483474221068,33.32361909795145 M 21.06139741009997,32.07121069393861 M 21.522409349776353,30.846331352700417 M 22.06254516934837,29.65422619562196 M 22.67949192431297,28.500000000002274 M 23.370607753951163,27.38859533961022 M 24.132933194176985,26.324771419827357 M 24.963203850422133,25.313083698001265 M 25.8578643762728,24.35786437627121 M 26.813083698000355,23.463203850422815 M 27.82477141982713,22.63293319417744 M 28.888595339609537,21.87060775395139 M 30.00000000000159,21.179491924313425 M 31.154226195621277,20.562545169348596 M 32.34633135269951,20.022409349776353 M 33.57121069393838,19.561397410099744 M 34.82361909795077,19.18148347422084 M 36.0981935596792,18.884294391937146 M 37.38947615560028,18.671102772525956 "
  />
  <path id="face0-interior"
 style="fill:none;stroke:#00FF00;stroke-width:1;stroke-miterlimit:4;stroke-dasharray:none;stroke-linejoin:round;stroke-linecap:round"
        d="M 89.00000000000182,6.000000000004093 M 86.00000000000182,6.000000000004093 M 86.00000000000114,1.0000000000045475 M 3.9999999999995453,1.0 M 4.0,6.000000000004093 M 1.0,6.000000000004093 M 1.0000000000002274,11.000000000000455 M 4.000000000000227,11.0 M 3.999999999998863,21.500000000004547 M 9.649999999998954,21.500000000004547 M 9.650000000000091,20.250000000004547 M 11.999999999999318,20.250000000004547 M 11.999999999999318,21.500000000004547 M 12.999999999999318,21.500000000004093 M 13.300000000001091,23.000000000004547 M 13.000000000000682,24.500000000004547 M 12.000000000001819,24.500000000005002 M 12.000000000000682,25.750000000005457 M 9.650000000001228,25.750000000005457 M 9.65000000000191,24.500000000004093 M 6.000000000002046,24.500000000005002 M 4.000000000001819,24.500000000005002 M 4.000000000002501,56.0 M 1.000000000002501,56.0 M 1.0000000000045475,61.0 M 4.0000000000045475,61.0 M 4.000000000003183,66.0 M 86.00000000000477,66.00000000000432 M 86.00000000000682,61.00000000000455 M 89.00000000000705,61.00000000000455 M 89.00000000000455,56.00000000000455 M 86.00000000000432,56.00000000000455 M 86.00000000000341,24.500000000005002 M 80.35000000000241,24.500000000005002 M 80.35000000000105,25.750000000004547 M 78.00000000000159,25.750000000004547 M 78.00000000000227,24.500000000005002 M 77.00000000000205,24.500000000005457 M 76.69999999999959,23.000000000005002 M 77.00000000000114,21.500000000004547 M 78.0,21.500000000004547 M 78.0,20.250000000004547 M 80.35000000000105,20.250000000004547 M 80.35000000000105,21.500000000005457 M 84.00000000000023,21.500000000004547 M 86.00000000000068,21.500000000004547 M 86.00000000000182,11.000000000005002 M 89.00000000000182,11.000000000004547 M 38.69193741539857,18.542821535229905 M 40.00000000000159,18.50000000000182 M 50.000000000001364,18.50000000000273 M 51.308062584604386,18.542821535229905 M 52.61052384440268,18.67110277252641 M 53.90180644032375,18.884294391938056 M 55.17638090205219,19.18148347422084 M 56.42878930606457,19.561397410100653 M 57.65366864730345,20.022409349776808 M 58.84577380438168,20.562545169348596 M 60.000000000001364,21.17949192431388 M 61.111404660393646,21.870607753951845 M 62.175228580175826,22.632933194177895 M 63.186916302003056,23.463203850422815 M 64.14213562373266,24.357864376271664 M 65.03679614958105,25.31308369800081 M 65.86706680582665,26.32477141982781 M 66.62939224605248,27.38859533961022 M 67.32050807569067,28.500000000002274 M 67.93745483065572,29.65422619562287 M 68.47759065022751,30.846331352700872 M 68.93860258990412,32.07121069393952 M 69.31851652578325,33.323619097951905 M 69.61570560806672,34.59819355968011 M 69.82889722747859,35.88947615560119 M 69.95717846477442,37.191937415399934 M 70.00000000000227,38.50000000000273 M 69.95717846477442,39.80806258460507 M 69.82889722747859,41.110523844403815 M 69.61570560806899,42.401806440325345 M 69.31851652578393,43.6763809020531 M 68.9386025899048,44.92878930606594 M 68.47759065023047,46.15366864730413 M 67.9374548306564,47.34577380438259 M 67.3205080756918,48.50000000000273 M 66.62939224605611,49.61140466039478 M 65.86706680582733,50.67522858017719 M 65.03679614958241,51.68691630200374 M 64.14213562373402,52.64213562373334 M 63.18691630200669,53.53679614958173 M 62.17522858017719,54.36706680582711 M 61.11140466039524,55.12939224605316 M 60.00000000000341,55.82050807569158 M 58.84577380438304,56.43745483065641 M 57.653668647307086,56.97759065022865 M 56.42878930606889,57.438602589904804 M 55.17638090205355,57.81851652578325 M 53.9018064403258,58.115705608066946 M 52.61052384440404,58.32889722747905 M 51.30806258460598,58.45717846477464 M 50.00000000000318,58.50000000000273 M 40.00000000000341,58.50000000000182 M 38.69193741540039,58.45717846477419 M 37.389476155602324,58.32889722747859 M 36.09819355968057,58.11570560806649 M 34.82361909795304,57.81851652578325 M 33.57121069394202,57.438602589903894 M 32.34633135270383,56.97759065022774 M 31.154226195623323,56.43745483065595 M 30.000000000002956,55.82050807569067 M 28.8885953396109,55.1293922460527 M 27.824771419828494,54.36706680582711 M 26.813083698003766,53.53679614958219 M 25.85786437627212,52.642135623732884 M 24.96320385042327,51.68691630200374 M 24.13293319417835,50.675228580176736 M 23.37060775395412,49.61140466039433 M 22.679491924314107,48.50000000000182 M 22.06254516934905,47.345773804382134 M 21.52240934977931,46.15366864730413 M 21.061397410100653,44.92878930606457 M 20.681483474221068,43.67638090205264 M 20.38429439194033,42.40180644032489 M 20.17110277252641,41.110523844402906 M 20.04282153523036,39.80806258460461 M 20.0000000000025,38.50000000000182 M 20.04282153523036,37.19193741539857 M 20.171102772525728,35.88947615560119 M 20.3842943919376,34.59819355967966 M 20.681483474221068,33.32361909795145 M 21.06139741009997,32.07121069393861 M 21.522409349776353,30.846331352700417 M 22.06254516934837,29.65422619562196 M 22.67949192431297,28.500000000002274 M 23.370607753951163,27.38859533961022 M 24.132933194176985,26.324771419827357 M 24.963203850422133,25.313083698001265 M 25.8578643762728,24.35786437627121 M 26.813083698000355,23.463203850422815 M 27.82477141982713,22.63293319417744 M 28.888595339609537,21.87060775395139 M 30.00000000000159,21.179491924313425 M 31.154226195621277,20.562545169348596 M 32.34633135269951,20.022409349776353 M 33.57121069393838,19.561397410099744 M 34.82361909795077,19.18148347422084 M 36.0981935596792,18.884294391937146 M 37.38947615560028,18.671102772525956 "
  />
</svg>
