<?xml version="1.0" standalone="no"?>
<!DOCTYPE svg PUBLIC "-//W3C//DTD SVG 1.1//EN" "http://www.w3.org/Graphics/SVG/1.1/DTD/svg11.dtd">
<svg width="90.0mm" height="120.14106507815563mm"
 viewBox="0 0 90.0 120.14106507815563"
 xmlns="http://www.w3.org/2000/svg" version="1.1"
 xmlns:xlink="http://www.w3.org/1999/xlink">
<desc>Output from Flights of Ideas SVG Sketchup Plugin</desc>

  <path id="face0-cut"
 style="fill:none;stroke:#FF0000;stroke-width:0.001;stroke-miterlimit:4;stroke-dasharray:none;stroke-linejoin:round;stroke-linecap:round"
        d="M 86.0,1.0 L 4.000000000000455,1.0 L 4.000000000000455,4.000000000000455 L 1.0000000000002274,4.000000000000455 L 1.0000000000002274,7.000000000000455 L 4.000000000000455,7.000000000000455 L 3.999999999998863,15.5 L 9.649999999999864,15.5 L 9.650000000000546,14.25 L 11.999999999999545,14.249999999999545 L 12.0,15.5 L 12.999999999999773,15.49999999999909 L 13.300000000001774,17.0 L 13.000000000000455,18.5 L 12.000000000001137,18.5 L 12.000000000000227,19.750000000000455 L 9.650000000001228,19.750000000000455 L 9.650000000001228,18.499999999999545 L 6.0000000000009095,18.5 L 4.000000000001137,18.5 L 4.000000000000455,27.0 L 1.0,27.0 L 1.0000000000002274,30.0 L 4.000000000000455,30.0 L 4.000000000000455,33.0 L 29.199999999999363,33.0 L 29.199999999999363,119.14106507815563 L 60.7999999999995,119.14106507815563 L 60.7999999999995,33.0 L 86.0,33.0 L 86.0,30.0 L 89.0,30.0 L 89.0,27.0 L 86.0,27.0 L 86.00000000000091,18.5 L 80.35000000000059,18.500000000000455 L 80.34999999999945,19.750000000000455 L 78.00000000000023,19.750000000000455 L 78.00000000000023,18.5 L 77.00000000000023,18.500000000001364 L 76.69999999999845,17.000000000000455 L 76.99999999999977,15.500000000000455 L 77.99999999999886,15.5 L 77.99999999999932,14.249999999999545 L 80.34999999999877,14.25 L 80.34999999999877,15.50000000000091 L 83.99999999999864,15.5 L 85.99999999999886,15.5 L 86.0,7.000000000000455 L 89.0,7.000000000000455 L 89.0,4.0 L 86.0,4.0 L 86.0,1.0 M 46.555634918610394,44.444365081389606 L 46.9052558883252,44.90000000000009 L 47.125036817835735,45.43059810077466 L 47.19999999999982,46.000000000000455 L 47.19999999999959,56.000000000000455 L 47.12503681783596,56.569401899225795 L 46.905255888325655,57.09999999999991 L 46.555634918610394,57.555634918610394 L 46.09999999999991,57.90525588832588 L 45.56940189922534,58.125036817835735 L 44.99999999999932,58.20000000000027 L 44.430598100774205,58.12503681783619 L 43.899999999999864,57.90525588832588 L 43.44436508138938,57.555634918610394 L 43.09474411167412,57.09999999999991 L 42.87496318216358,56.569401899225795 L 42.80000000000018,56.0 L 42.79999999999973,46.0 L 42.87496318216404,45.43059810077466 L 43.09474411167412,44.90000000000009 L 43.44436508138915,44.444365081389606 L 43.899999999999864,44.09474411167457 L 44.430598100774205,43.874963182164265 L 44.99999999999977,43.80000000000018 L 45.56940189922534,43.874963182164265 L 46.100000000000136,44.09474411167457 L 46.555634918610394,44.444365081389606 M 46.905255888325655,87.09999999999991 L 46.555634918610394,87.5556349186104 L 46.100000000000136,87.90525588832588 L 45.56940189922534,88.12503681783619 L 45.000000000000455,88.20000000000027 L 44.43059810077466,88.12503681783619 L 43.899999999999864,87.90525588832588 L 43.44436508138983,87.5556349186104 L 43.09474411167457,87.09999999999991 L 42.87496318216404,86.5694018992258 L 42.79999999999973,86.0 L 42.80000000000018,66.0 L 42.87496318216358,65.43059810077466 L 43.09474411167389,64.90000000000009 L 43.44436508138983,64.4443650813896 L 43.899999999999636,64.09474411167412 L 44.43059810077466,63.874963182164265 L 44.99999999999977,63.80000000000018 L 45.56940189922534,63.874963182164265 L 46.100000000000136,64.09474411167412 L 46.55563491860994,64.4443650813896 L 46.905255888325655,64.90000000000009 L 47.12503681783596,65.43059810077466 L 47.19999999999982,66.0 L 47.19999999999959,86.00000000000045 L 47.12503681783596,86.5694018992258 L 46.905255888325655,87.09999999999991 M 45.000000000000455,108.19999999999982 L 44.430598100774205,108.12503681783573 L 43.899999999999864,107.90525588832543 L 43.44436508138938,107.5556349186104 L 43.09474411167412,107.09999999999991 L 42.87496318216449,106.56940189922534 L 42.80000000000018,105.99999999999955 L 42.80000000000018,96.0 L 42.87496318216404,95.43059810077466 L 43.09474411167457,94.90000000000009 L 43.44436508138983,94.4443650813896 L 43.899999999999864,94.09474411167457 L 44.43059810077466,93.87496318216427 L 45.000000000000455,93.80000000000018 L 45.56940189922534,93.87496318216381 L 46.100000000000136,94.09474411167457 L 46.555634918610394,94.4443650813896 L 46.905255888325655,94.90000000000009 L 47.12503681783596,95.43059810077466 L 47.19999999999982,96.0 L 47.19999999999982,105.99999999999955 L 47.125036817835735,106.56940189922534 L 46.90525588832634,107.09999999999991 L 46.555634918610394,107.5556349186104 L 46.100000000000136,107.90525588832543 L 45.56940189922534,108.12503681783573 L 45.000000000000455,108.19999999999982 M 61.44888873943387,10.611771432346359 L 61.5,11.000000000000455 L 61.44888873943387,11.388228567654096 L 61.2990381056768,11.750000000000455 L 61.06066017177977,12.060660171780455 L 60.75000000000023,12.299038105677027 L 60.38822856765364,12.448888739433642 L 60.0,12.5 L 59.611771432346586,12.448888739434096 L 59.24999999999977,12.299038105677027 L 58.93933982822023,12.06066017178 L 58.7009618943232,11.750000000000455 L 58.55111126056636,11.388228567654096 L 58.5,11.0 L 58.55111126056636,10.611771432346359 L 58.7009618943232,10.250000000000455 L 58.93933982822023,9.939339828220454 L 59.24999999999977,9.700961894323427 L 59.611771432346586,9.551111260566358 L 60.0,9.500000000000455 L 60.38822856765364,9.551111260566813 L 60.75000000000023,9.700961894323427 L 61.06066017177977,9.939339828220454 L 61.2990381056768,10.250000000000455 L 61.44888873943387,10.611771432346359 M 39.204445042265206,12.552914270615474 L 39.00000000000023,11.0 L 39.20444504226566,9.447085729385435 L 39.803847577293254,8.000000000000455 L 40.75735931288045,6.757359312880908 L 42.000000000000455,5.803847577293709 L 43.44708572938475,5.204445042265888 L 45.000000000000455,5.0 L 46.55291427061479,5.204445042265888 L 48.000000000000455,5.803847577293709 L 49.24264068711955,6.757359312880908 L 50.19615242270652,8.0 L 50.79555495773434,9.447085729385435 L 51.00000000000023,11.0 L 50.79555495773434,12.552914270615474 L 50.19615242270652,14.0 L 49.24264068711955,15.242640687119547 L 48.0,16.196152422706746 L 46.55291427061525,16.795554957734566 L 45.0,17.000000000000455 L 43.44708572938475,16.79555495773502 L 42.000000000000455,16.1961524227072 L 40.75735931288045,15.242640687119547 L 39.803847577293254,14.000000000000455 L 39.204445042265206,12.552914270615474 M 28.551111260566586,11.388228567654096 L 28.499999999999773,11.0 L 28.551111260566586,10.611771432346359 L 28.7009618943232,10.250000000000455 L 28.939339828220454,9.939339828220454 L 29.250000000000455,9.700961894323882 L 29.61177143234636,9.551111260566813 L 30.000000000000227,9.500000000000455 L 30.388228567654096,9.551111260566813 L 30.75,9.700961894323882 L 31.06066017178,9.939339828220454 L 31.299038105676573,10.250000000000455 L 31.44888873943387,10.611771432346359 L 31.499999999999773,11.0 L 31.44888873943387,11.388228567654096 L 31.299038105676573,11.750000000000455 L 31.06066017178,12.060660171780455 L 30.75,12.299038105677027 L 30.388228567654096,12.448888739433642 L 30.000000000000227,12.500000000000455 L 29.61177143234636,12.448888739434096 L 29.250000000000455,12.299038105677027 L 28.939339828220454,12.06066017178 L 28.7009618943232,11.750000000000455 L 28.551111260566586,11.388228567654096 M 30.000000000000227,19.500000000000455 L 30.388228567654096,19.551111260566813 L 30.75,19.700961894323427 L 31.06066017178,19.939339828220454 L 31.299038105676573,20.25 L 31.44888873943387,20.61177143234636 L 31.499999999999773,21.000000000000455 L 31.44888873943364,21.38822856765364 L 31.299038105676573,21.75 L 31.06066017178,22.06066017178 L 30.749999999999773,22.299038105677027 L 30.388228567654096,22.448888739434096 L 30.000000000000227,22.500000000000455 L 29.61177143234636,22.448888739434096 L 29.250000000000455,22.299038105677027 L 28.939339828220454,22.06066017178 L 28.7009618943232,21.75 L 28.551111260566586,21.38822856765364 L 28.500000000000227,21.000000000000455 L 28.551111260566586,20.611771432346814 L 28.7009618943232,20.25 L 28.939339828220454,19.939339828220454 L 29.250000000000455,19.700961894323427 L 29.611771432345904,19.551111260566813 L 30.000000000000227,19.500000000000455 M 58.5,21.000000000000455 L 58.55111126056636,20.61177143234636 L 58.7009618943232,20.250000000000455 L 58.93933982822023,19.939339828220454 L 59.24999999999977,19.700961894323427 L 59.611771432346586,19.551111260566813 L 60.0,19.500000000000455 L 60.38822856765364,19.551111260566813 L 60.75000000000023,19.700961894323427 L 61.06066017177977,19.939339828220454 L 61.2990381056768,20.250000000000455 L 61.44888873943387,20.61177143234636 L 61.5,21.000000000000455 L 61.44888873943387,21.388228567654096 L 61.2990381056768,21.75 L 61.06066017177977,22.06066017178 L 60.75000000000023,22.299038105677027 L 60.38822856765364,22.448888739434096 L 60.0,22.500000000000455 L 59.611771432346586,22.448888739434096 L 59.24999999999977,22.299038105677027 L 58.93933982822023,22.06066017178 L 58.7009618943232,21.75 L 58.55111126056636,21.388228567654096 L 58.5,21.000000000000455 "
  />
  <path id="face0-interior"
 style="fill:none;stroke:#FF0000;stroke-width:0.001;stroke-miterlimit:4;stroke-dasharray:none;stroke-linejoin:round;stroke-linecap:round"
        d="M 86.0,1.0 M 4.000000000000455,1.0 M 4.000000000000455,4.000000000000455 M 1.0000000000002274,4.000000000000455 M 1.0000000000002274,7.000000000000455 M 4.000000000000455,7.000000000000455 M 3.999999999998863,15.5 M 9.649999999999864,15.5 M 9.650000000000546,14.25 M 11.999999999999545,14.249999999999545 M 12.0,15.5 M 12.999999999999773,15.49999999999909 M 13.300000000001774,17.0 M 13.000000000000455,18.5 M 12.000000000001137,18.5 M 12.000000000000227,19.750000000000455 M 9.650000000001228,19.750000000000455 M 9.650000000001228,18.499999999999545 M 6.0000000000009095,18.5 M 4.000000000001137,18.5 M 4.000000000000455,27.0 M 1.0,27.0 M 1.0000000000002274,30.0 M 4.000000000000455,30.0 M 4.000000000000455,33.0 M 29.199999999999363,33.0 M 29.199999999999363,119.14106507815563 M 60.7999999999995,119.14106507815563 M 60.7999999999995,33.0 M 86.0,33.0 M 86.0,30.0 M 89.0,30.0 M 89.0,27.0 M 86.0,27.0 M 86.00000000000091,18.5 M 80.35000000000059,18.500000000000455 M 80.34999999999945,19.750000000000455 M 78.00000000000023,19.750000000000455 M 78.00000000000023,18.5 M 77.00000000000023,18.500000000001364 M 76.69999999999845,17.000000000000455 M 76.99999999999977,15.500000000000455 M 77.99999999999886,15.5 M 77.99999999999932,14.249999999999545 M 80.34999999999877,14.25 M 80.34999999999877,15.50000000000091 M 83.99999999999864,15.5 M 85.99999999999886,15.5 M 86.0,7.000000000000455 M 89.0,7.000000000000455 M 89.0,4.0 M 86.0,4.0 M 46.555634918610394,44.444365081389606 M 46.9052558883252,44.90000000000009 M 47.125036817835735,45.43059810077466 M 47.19999999999982,46.000000000000455 M 47.19999999999959,56.000000000000455 M 47.12503681783596,56.569401899225795 M 46.905255888325655,57.09999999999991 M 46.555634918610394,57.555634918610394 M 46.09999999999991,57.90525588832588 M 45.56940189922534,58.125036817835735 M 44.99999999999932,58.20000000000027 M 44.430598100774205,58.12503681783619 M 43.899999999999864,57.90525588832588 M 43.44436508138938,57.555634918610394 M 43.09474411167412,57.09999999999991 M 42.87496318216358,56.569401899225795 M 42.80000000000018,56.0 M 42.79999999999973,46.0 M 42.87496318216404,45.43059810077466 M 43.09474411167412,44.90000000000009 M 43.44436508138915,44.444365081389606 M 43.899999999999864,44.09474411167457 M 44.430598100774205,43.874963182164265 M 44.99999999999977,43.80000000000018 M 45.56940189922534,43.874963182164265 M 46.100000000000136,44.09474411167457 M 46.905255888325655,87.09999999999991 M 46.555634918610394,87.5556349186104 M 46.100000000000136,87.90525588832588 M 45.56940189922534,88.12503681783619 M 45.000000000000455,88.20000000000027 M 44.43059810077466,88.12503681783619 M 43.899999999999864,87.90525588832588 M 43.44436508138983,87.5556349186104 M 43.09474411167457,87.09999999999991 M 42.87496318216404,86.5694018992258 M 42.79999999999973,86.0 M 42.80000000000018,66.0 M 42.87496318216358,65.43059810077466 M 43.09474411167389,64.90000000000009 M 43.44436508138983,64.4443650813896 M 43.899999999999636,64.09474411167412 M 44.43059810077466,63.874963182164265 M 44.99999999999977,63.80000000000018 M 45.56940189922534,63.874963182164265 M 46.100000000000136,64.09474411167412 M 46.55563491860994,64.4443650813896 M 46.905255888325655,64.90000000000009 M 47.12503681783596,65.43059810077466 M 47.19999999999982,66.0 M 47.19999999999959,86.00000000000045 M 47.12503681783596,86.5694018992258 M 45.000000000000455,108.19999999999982 M 44.430598100774205,108.12503681783573 M 43.899999999999864,107.90525588832543 M 43.44436508138938,107.5556349186104 M 43.09474411167412,107.09999999999991 M 42.87496318216449,106.56940189922534 M 42.80000000000018,105.99999999999955 M 42.80000000000018,96.0 M 42.87496318216404,95.43059810077466 M 43.09474411167457,94.90000000000009 M 43.44436508138983,94.4443650813896 M 43.899999999999864,94.09474411167457 M 44.43059810077466,93.87496318216427 M 45.000000000000455,93.80000000000018 M 45.56940189922534,93.87496318216381 M 46.100000000000136,94.09474411167457 M 46.555634918610394,94.4443650813896 M 46.905255888325655,94.90000000000009 M 47.12503681783596,95.43059810077466 M 47.19999999999982,96.0 M 47.19999999999982,105.99999999999955 M 47.125036817835735,106.56940189922534 M 46.90525588832634,107.09999999999991 M 46.555634918610394,107.5556349186104 M 46.100000000000136,107.90525588832543 M 45.56940189922534,108.12503681783573 M 61.44888873943387,10.611771432346359 M 61.5,11.000000000000455 M 61.44888873943387,11.388228567654096 M 61.2990381056768,11.750000000000455 M 61.06066017177977,12.060660171780455 M 60.75000000000023,12.299038105677027 M 60.38822856765364,12.448888739433642 M 60.0,12.5 M 59.611771432346586,12.448888739434096 M 59.24999999999977,12.299038105677027 M 58.93933982822023,12.06066017178 M 58.7009618943232,11.750000000000455 M 58.55111126056636,11.388228567654096 M 58.5,11.0 M 58.55111126056636,10.611771432346359 M 58.7009618943232,10.250000000000455 M 58.93933982822023,9.939339828220454 M 59.24999999999977,9.700961894323427 M 59.611771432346586,9.551111260566358 M 60.0,9.500000000000455 M 60.38822856765364,9.551111260566813 M 60.75000000000023,9.700961894323427 M 61.06066017177977,9.939339828220454 M 61.2990381056768,10.250000000000455 M 39.204445042265206,12.552914270615474 M 39.00000000000023,11.0 M 39.20444504226566,9.447085729385435 M 39.803847577293254,8.000000000000455 M 40.75735931288045,6.757359312880908 M 42.000000000000455,5.803847577293709 M 43.44708572938475,5.204445042265888 M 45.000000000000455,5.0 M 46.55291427061479,5.204445042265888 M 48.000000000000455,5.803847577293709 M 49.24264068711955,6.757359312880908 M 50.19615242270652,8.0 M 50.79555495773434,9.447085729385435 M 51.00000000000023,11.0 M 50.79555495773434,12.552914270615474 M 50.19615242270652,14.0 M 49.24264068711955,15.242640687119547 M 48.0,16.196152422706746 M 46.55291427061525,16.795554957734566 M 45.0,17.000000000000455 M 43.44708572938475,16.79555495773502 M 42.000000000000455,16.1961524227072 M 40.75735931288045,15.242640687119547 M 39.803847577293254,14.000000000000455 M 28.551111260566586,11.388228567654096 M 28.499999999999773,11.0 M 28.551111260566586,10.611771432346359 M 28.7009618943232,10.250000000000455 M 28.939339828220454,9.939339828220454 M 29.250000000000455,9.700961894323882 M 29.61177143234636,9.551111260566813 M 30.000000000000227,9.500000000000455 M 30.388228567654096,9.551111260566813 M 30.75,9.700961894323882 M 31.06066017178,9.939339828220454 M 31.299038105676573,10.250000000000455 M 31.44888873943387,10.611771432346359 M 31.499999999999773,11.0 M 31.44888873943387,11.388228567654096 M 31.299038105676573,11.750000000000455 M 31.06066017178,12.060660171780455 M 30.75,12.299038105677027 M 30.388228567654096,12.448888739433642 M 30.000000000000227,12.500000000000455 M 29.61177143234636,12.448888739434096 M 29.250000000000455,12.299038105677027 M 28.939339828220454,12.06066017178 M 28.7009618943232,11.750000000000455 M 30.000000000000227,19.500000000000455 M 30.388228567654096,19.551111260566813 M 30.75,19.700961894323427 M 31.06066017178,19.939339828220454 M 31.299038105676573,20.25 M 31.44888873943387,20.61177143234636 M 31.499999999999773,21.000000000000455 M 31.44888873943364,21.38822856765364 M 31.299038105676573,21.75 M 31.06066017178,22.06066017178 M 30.749999999999773,22.299038105677027 M 30.388228567654096,22.448888739434096 M 30.000000000000227,22.500000000000455 M 29.61177143234636,22.448888739434096 M 29.250000000000455,22.299038105677027 M 28.939339828220454,22.06066017178 M 28.7009618943232,21.75 M 28.551111260566586,21.38822856765364 M 28.500000000000227,21.000000000000455 M 28.551111260566586,20.611771432346814 M 28.7009618943232,20.25 M 28.939339828220454,19.939339828220454 M 29.250000000000455,19.700961894323427 M 29.611771432345904,19.551111260566813 M 58.5,21.000000000000455 M 58.55111126056636,20.61177143234636 M 58.7009618943232,20.250000000000455 M 58.93933982822023,19.939339828220454 M 59.24999999999977,19.700961894323427 M 59.611771432346586,19.551111260566813 M 60.0,19.500000000000455 M 60.38822856765364,19.551111260566813 M 60.75000000000023,19.700961894323427 M 61.06066017177977,19.939339828220454 M 61.2990381056768,20.250000000000455 M 61.44888873943387,20.61177143234636 M 61.5,21.000000000000455 M 61.44888873943387,21.388228567654096 M 61.2990381056768,21.75 M 61.06066017177977,22.06066017178 M 60.75000000000023,22.299038105677027 M 60.38822856765364,22.448888739434096 M 60.0,22.500000000000455 M 59.611771432346586,22.448888739434096 M 59.24999999999977,22.299038105677027 M 58.93933982822023,22.06066017178 M 58.7009618943232,21.75 M 58.55111126056636,21.388228567654096 "
  />
  <path id="face0-interior"
 style="fill:none;stroke:#00FF00;stroke-width:1;stroke-miterlimit:4;stroke-dasharray:none;stroke-linejoin:round;stroke-linecap:round"
        d="M 86.0,1.0 M 4.000000000000455,1.0 M 4.000000000000455,4.000000000000455 M 1.0000000000002274,4.000000000000455 M 1.0000000000002274,7.000000000000455 M 4.000000000000455,7.000000000000455 M 3.999999999998863,15.5 M 9.649999999999864,15.5 M 9.650000000000546,14.25 M 11.999999999999545,14.249999999999545 M 12.0,15.5 M 12.999999999999773,15.49999999999909 M 13.300000000001774,17.0 M 13.000000000000455,18.5 M 12.000000000001137,18.5 M 12.000000000000227,19.750000000000455 M 9.650000000001228,19.750000000000455 M 9.650000000001228,18.499999999999545 M 6.0000000000009095,18.5 M 4.000000000001137,18.5 M 4.000000000000455,27.0 M 1.0,27.0 M 1.0000000000002274,30.0 M 4.000000000000455,30.0 M 4.000000000000455,33.0 M 29.199999999999363,33.0 M 29.199999999999363,119.14106507815563 M 60.7999999999995,119.14106507815563 M 60.7999999999995,33.0 M 86.0,33.0 M 86.0,30.0 M 89.0,30.0 M 89.0,27.0 M 86.0,27.0 M 86.00000000000091,18.5 M 80.35000000000059,18.500000000000455 M 80.34999999999945,19.750000000000455 M 78.00000000000023,19.750000000000455 M 78.00000000000023,18.5 M 77.00000000000023,18.500000000001364 M 76.69999999999845,17.000000000000455 M 76.99999999999977,15.500000000000455 M 77.99999999999886,15.5 M 77.99999999999932,14.249999999999545 M 80.34999999999877,14.25 M 80.34999999999877,15.50000000000091 M 83.99999999999864,15.5 M 85.99999999999886,15.5 M 86.0,7.000000000000455 M 89.0,7.000000000000455 M 89.0,4.0 M 86.0,4.0 M 46.555634918610394,44.444365081389606 M 46.9052558883252,44.90000000000009 M 47.125036817835735,45.43059810077466 M 47.19999999999982,46.000000000000455 M 47.19999999999959,56.000000000000455 M 47.12503681783596,56.569401899225795 M 46.905255888325655,57.09999999999991 M 46.555634918610394,57.555634918610394 M 46.09999999999991,57.90525588832588 M 45.56940189922534,58.125036817835735 M 44.99999999999932,58.20000000000027 M 44.430598100774205,58.12503681783619 M 43.899999999999864,57.90525588832588 M 43.44436508138938,57.555634918610394 M 43.09474411167412,57.09999999999991 M 42.87496318216358,56.569401899225795 M 42.80000000000018,56.0 M 42.79999999999973,46.0 M 42.87496318216404,45.43059810077466 M 43.09474411167412,44.90000000000009 M 43.44436508138915,44.444365081389606 M 43.899999999999864,44.09474411167457 M 44.430598100774205,43.874963182164265 M 44.99999999999977,43.80000000000018 M 45.56940189922534,43.874963182164265 M 46.100000000000136,44.09474411167457 M 46.905255888325655,87.09999999999991 M 46.555634918610394,87.5556349186104 M 46.100000000000136,87.90525588832588 M 45.56940189922534,88.12503681783619 M 45.000000000000455,88.20000000000027 M 44.43059810077466,88.12503681783619 M 43.899999999999864,87.90525588832588 M 43.44436508138983,87.5556349186104 M 43.09474411167457,87.09999999999991 M 42.87496318216404,86.5694018992258 M 42.79999999999973,86.0 M 42.80000000000018,66.0 M 42.87496318216358,65.43059810077466 M 43.09474411167389,64.90000000000009 M 43.44436508138983,64.4443650813896 M 43.899999999999636,64.09474411167412 M 44.43059810077466,63.874963182164265 M 44.99999999999977,63.80000000000018 M 45.56940189922534,63.874963182164265 M 46.100000000000136,64.09474411167412 M 46.55563491860994,64.4443650813896 M 46.905255888325655,64.90000000000009 M 47.12503681783596,65.43059810077466 M 47.19999999999982,66.0 M 47.19999999999959,86.00000000000045 M 47.12503681783596,86.5694018992258 M 45.000000000000455,108.19999999999982 M 44.430598100774205,108.12503681783573 M 43.899999999999864,107.90525588832543 M 43.44436508138938,107.5556349186104 M 43.09474411167412,107.09999999999991 M 42.87496318216449,106.56940189922534 M 42.80000000000018,105.99999999999955 M 42.80000000000018,96.0 M 42.87496318216404,95.43059810077466 M 43.09474411167457,94.90000000000009 M 43.44436508138983,94.4443650813896 M 43.899999999999864,94.09474411167457 M 44.43059810077466,93.87496318216427 M 45.000000000000455,93.80000000000018 M 45.56940189922534,93.87496318216381 M 46.100000000000136,94.09474411167457 M 46.555634918610394,94.4443650813896 M 46.905255888325655,94.90000000000009 M 47.12503681783596,95.43059810077466 M 47.19999999999982,96.0 M 47.19999999999982,105.99999999999955 M 47.125036817835735,106.56940189922534 M 46.90525588832634,107.09999999999991 M 46.555634918610394,107.5556349186104 M 46.100000000000136,107.90525588832543 M 45.56940189922534,108.12503681783573 M 61.44888873943387,10.611771432346359 M 61.5,11.000000000000455 M 61.44888873943387,11.388228567654096 M 61.2990381056768,11.750000000000455 M 61.06066017177977,12.060660171780455 M 60.75000000000023,12.299038105677027 M 60.38822856765364,12.448888739433642 M 60.0,12.5 M 59.611771432346586,12.448888739434096 M 59.24999999999977,12.299038105677027 M 58.93933982822023,12.06066017178 M 58.7009618943232,11.750000000000455 M 58.55111126056636,11.388228567654096 M 58.5,11.0 M 58.55111126056636,10.611771432346359 M 58.7009618943232,10.250000000000455 M 58.93933982822023,9.939339828220454 M 59.24999999999977,9.700961894323427 M 59.611771432346586,9.551111260566358 M 60.0,9.500000000000455 M 60.38822856765364,9.551111260566813 M 60.75000000000023,9.700961894323427 M 61.06066017177977,9.939339828220454 M 61.2990381056768,10.250000000000455 M 39.204445042265206,12.552914270615474 M 39.00000000000023,11.0 M 39.20444504226566,9.447085729385435 M 39.803847577293254,8.000000000000455 M 40.75735931288045,6.757359312880908 M 42.000000000000455,5.803847577293709 M 43.44708572938475,5.204445042265888 M 45.000000000000455,5.0 M 46.55291427061479,5.204445042265888 M 48.000000000000455,5.803847577293709 M 49.24264068711955,6.757359312880908 M 50.19615242270652,8.0 M 50.79555495773434,9.447085729385435 M 51.00000000000023,11.0 M 50.79555495773434,12.552914270615474 M 50.19615242270652,14.0 M 49.24264068711955,15.242640687119547 M 48.0,16.196152422706746 M 46.55291427061525,16.795554957734566 M 45.0,17.000000000000455 M 43.44708572938475,16.79555495773502 M 42.000000000000455,16.1961524227072 M 40.75735931288045,15.242640687119547 M 39.803847577293254,14.000000000000455 M 28.551111260566586,11.388228567654096 M 28.499999999999773,11.0 M 28.551111260566586,10.611771432346359 M 28.7009618943232,10.250000000000455 M 28.939339828220454,9.939339828220454 M 29.250000000000455,9.700961894323882 M 29.61177143234636,9.551111260566813 M 30.000000000000227,9.500000000000455 M 30.388228567654096,9.551111260566813 M 30.75,9.700961894323882 M 31.06066017178,9.939339828220454 M 31.299038105676573,10.250000000000455 M 31.44888873943387,10.611771432346359 M 31.499999999999773,11.0 M 31.44888873943387,11.388228567654096 M 31.299038105676573,11.750000000000455 M 31.06066017178,12.060660171780455 M 30.75,12.299038105677027 M 30.388228567654096,12.448888739433642 M 30.000000000000227,12.500000000000455 M 29.61177143234636,12.448888739434096 M 29.250000000000455,12.299038105677027 M 28.939339828220454,12.06066017178 M 28.7009618943232,11.750000000000455 M 30.000000000000227,19.500000000000455 M 30.388228567654096,19.551111260566813 M 30.75,19.700961894323427 M 31.06066017178,19.939339828220454 M 31.299038105676573,20.25 M 31.44888873943387,20.61177143234636 M 31.499999999999773,21.000000000000455 M 31.44888873943364,21.38822856765364 M 31.299038105676573,21.75 M 31.06066017178,22.06066017178 M 30.749999999999773,22.299038105677027 M 30.388228567654096,22.448888739434096 M 30.000000000000227,22.500000000000455 M 29.61177143234636,22.448888739434096 M 29.250000000000455,22.299038105677027 M 28.939339828220454,22.06066017178 M 28.7009618943232,21.75 M 28.551111260566586,21.38822856765364 M 28.500000000000227,21.000000000000455 M 28.551111260566586,20.611771432346814 M 28.7009618943232,20.25 M 28.939339828220454,19.939339828220454 M 29.250000000000455,19.700961894323427 M 29.611771432345904,19.551111260566813 M 58.5,21.000000000000455 M 58.55111126056636,20.61177143234636 M 58.7009618943232,20.250000000000455 M 58.93933982822023,19.939339828220454 M 59.24999999999977,19.700961894323427 M 59.611771432346586,19.551111260566813 M 60.0,19.500000000000455 M 60.38822856765364,19.551111260566813 M 60.75000000000023,19.700961894323427 M 61.06066017177977,19.939339828220454 M 61.2990381056768,20.250000000000455 M 61.44888873943387,20.61177143234636 M 61.5,21.000000000000455 M 61.44888873943387,21.388228567654096 M 61.2990381056768,21.75 M 61.06066017177977,22.06066017178 M 60.75000000000023,22.299038105677027 M 60.38822856765364,22.448888739434096 M 60.0,22.500000000000455 M 59.611771432346586,22.448888739434096 M 59.24999999999977,22.299038105677027 M 58.93933982822023,22.06066017178 M 58.7009618943232,21.75 M 58.55111126056636,21.388228567654096 "
  />
</svg>
