<?xml version="1.0" encoding="UTF-8"?>
<svg xmlns="http://www.w3.org/2000/svg" xmlns:xlink="http://www.w3.org/1999/xlink" width="2267.715107pt" height="1133.857553pt" viewBox="0 0 2267.715107 1133.857553" version="1.1">
<g id="surface56">
<path style="fill:none;stroke-width:1;stroke-linecap:butt;stroke-linejoin:miter;stroke:rgb(0%,0%,0%);stroke-opacity:1;stroke-miterlimit:10;" d="M -0.000608695 0.00012675 L 749.999907 0.00012675 " transform="matrix(2.834644,0,0,-2.834644,141.732194,992.125359)"/>
<path style="fill:none;stroke-width:1;stroke-linecap:butt;stroke-linejoin:miter;stroke:rgb(0%,0%,0%);stroke-opacity:1;stroke-miterlimit:10;" d="M -0.000608695 0.00012675 L -0.000608695 350 " transform="matrix(2.834644,0,0,-2.834644,141.732194,992.125359)"/>
<path style="fill:none;stroke-width:0.2;stroke-linecap:butt;stroke-linejoin:miter;stroke:rgb(0%,0%,100%);stroke-opacity:1;stroke-miterlimit:10;" d="M -0.000608695 0.00012675 L 500.000195 0.00012675 " transform="matrix(2.834644,0,0,-2.834644,141.732194,992.125359)"/>
<path style="fill:none;stroke-width:0.2;stroke-linecap:butt;stroke-linejoin:miter;stroke:rgb(0%,0%,100%);stroke-opacity:1;stroke-miterlimit:10;" d="M -0.000608695 0.00012675 L 500.000195 3.930294 " transform="matrix(2.834644,0,0,-2.834644,141.732194,992.125359)"/>
<path style="fill:none;stroke-width:0.2;stroke-linecap:butt;stroke-linejoin:miter;stroke:rgb(0%,0%,100%);stroke-opacity:1;stroke-miterlimit:10;" d="M -0.000608695 0.00012675 L 500.000195 7.86184 " transform="matrix(2.834644,0,0,-2.834644,141.732194,992.125359)"/>
<path style="fill:none;stroke-width:0.2;stroke-linecap:butt;stroke-linejoin:miter;stroke:rgb(0%,0%,100%);stroke-opacity:1;stroke-miterlimit:10;" d="M -0.000608695 0.00012675 L 500.000195 11.792007 " transform="matrix(2.834644,0,0,-2.834644,141.732194,992.125359)"/>
<path style="fill:none;stroke-width:0.2;stroke-linecap:butt;stroke-linejoin:miter;stroke:rgb(0%,0%,100%);stroke-opacity:1;stroke-miterlimit:10;" d="M -0.000608695 0.00012675 L 500.000195 15.723552 " transform="matrix(2.834644,0,0,-2.834644,141.732194,992.125359)"/>
<path style="fill:none;stroke-width:0.2;stroke-linecap:butt;stroke-linejoin:miter;stroke:rgb(0%,0%,100%);stroke-opacity:1;stroke-miterlimit:10;" d="M -0.000608695 0.00012675 L 500.000195 19.65372 " transform="matrix(2.834644,0,0,-2.834644,141.732194,992.125359)"/>
<path style="fill:none;stroke-width:0.2;stroke-linecap:butt;stroke-linejoin:miter;stroke:rgb(0%,0%,100%);stroke-opacity:1;stroke-miterlimit:10;" d="M -0.000608695 0.00012675 L 500.000195 23.585265 " transform="matrix(2.834644,0,0,-2.834644,141.732194,992.125359)"/>
<path style="fill:none;stroke-width:0.2;stroke-linecap:butt;stroke-linejoin:miter;stroke:rgb(0%,0%,100%);stroke-opacity:1;stroke-miterlimit:10;" d="M -0.000608695 0.00012675 L 500.000195 27.515433 " transform="matrix(2.834644,0,0,-2.834644,141.732194,992.125359)"/>
<path style="fill:none;stroke-width:0.2;stroke-linecap:butt;stroke-linejoin:miter;stroke:rgb(0%,0%,100%);stroke-opacity:1;stroke-miterlimit:10;" d="M -0.000608695 0.00012675 L 500.000195 31.446978 " transform="matrix(2.834644,0,0,-2.834644,141.732194,992.125359)"/>
<path style="fill:none;stroke-width:0.2;stroke-linecap:butt;stroke-linejoin:miter;stroke:rgb(0%,0%,100%);stroke-opacity:1;stroke-miterlimit:10;" d="M -0.000608695 0.00012675 L 500.000195 35.377146 " transform="matrix(2.834644,0,0,-2.834644,141.732194,992.125359)"/>
<path style="fill:none;stroke-width:0.2;stroke-linecap:butt;stroke-linejoin:miter;stroke:rgb(0%,0%,100%);stroke-opacity:1;stroke-miterlimit:10;" d="M -0.000608695 0.00012675 L 500.000195 39.308691 " transform="matrix(2.834644,0,0,-2.834644,141.732194,992.125359)"/>
<path style="fill:none;stroke-width:0.2;stroke-linecap:butt;stroke-linejoin:miter;stroke:rgb(0%,0%,100%);stroke-opacity:1;stroke-miterlimit:10;" d="M -0.000608695 0.00012675 L 500.000195 43.238858 " transform="matrix(2.834644,0,0,-2.834644,141.732194,992.125359)"/>
<path style="fill:none;stroke-width:0.2;stroke-linecap:butt;stroke-linejoin:miter;stroke:rgb(0%,0%,100%);stroke-opacity:1;stroke-miterlimit:10;" d="M -0.000608695 0.00012675 L 500.000195 47.170404 " transform="matrix(2.834644,0,0,-2.834644,141.732194,992.125359)"/>
<path style="fill:none;stroke-width:0.2;stroke-linecap:butt;stroke-linejoin:miter;stroke:rgb(0%,0%,100%);stroke-opacity:1;stroke-miterlimit:10;" d="M -0.000608695 0.00012675 L 500.000195 51.100571 " transform="matrix(2.834644,0,0,-2.834644,141.732194,992.125359)"/>
<path style="fill:none;stroke-width:0.2;stroke-linecap:butt;stroke-linejoin:miter;stroke:rgb(0%,0%,100%);stroke-opacity:1;stroke-miterlimit:10;" d="M -0.000608695 0.00012675 L 500.000195 55.032117 " transform="matrix(2.834644,0,0,-2.834644,141.732194,992.125359)"/>
<path style="fill:none;stroke-width:0.2;stroke-linecap:butt;stroke-linejoin:miter;stroke:rgb(0%,0%,100%);stroke-opacity:1;stroke-miterlimit:10;" d="M -0.000608695 0.00012675 L 500.000195 58.962284 " transform="matrix(2.834644,0,0,-2.834644,141.732194,992.125359)"/>
<path style="fill:none;stroke-width:0.2;stroke-linecap:butt;stroke-linejoin:miter;stroke:rgb(0%,0%,100%);stroke-opacity:1;stroke-miterlimit:10;" d="M -0.000608695 0.00012675 L 500.000195 62.892452 " transform="matrix(2.834644,0,0,-2.834644,141.732194,992.125359)"/>
<path style="fill:none;stroke-width:0.2;stroke-linecap:butt;stroke-linejoin:miter;stroke:rgb(0%,0%,100%);stroke-opacity:1;stroke-miterlimit:10;" d="M -0.000608695 0.00012675 L 500.000195 66.823997 " transform="matrix(2.834644,0,0,-2.834644,141.732194,992.125359)"/>
<path style="fill:none;stroke-width:0.2;stroke-linecap:butt;stroke-linejoin:miter;stroke:rgb(0%,0%,100%);stroke-opacity:1;stroke-miterlimit:10;" d="M -0.000608695 0.00012675 L 500.000195 70.754164 " transform="matrix(2.834644,0,0,-2.834644,141.732194,992.125359)"/>
<path style="fill:none;stroke-width:0.2;stroke-linecap:butt;stroke-linejoin:miter;stroke:rgb(0%,0%,100%);stroke-opacity:1;stroke-miterlimit:10;" d="M -0.000608695 0.00012675 L 500.000195 74.68571 " transform="matrix(2.834644,0,0,-2.834644,141.732194,992.125359)"/>
<path style="fill:none;stroke-width:0.2;stroke-linecap:butt;stroke-linejoin:miter;stroke:rgb(0%,0%,100%);stroke-opacity:1;stroke-miterlimit:10;" d="M -0.000608695 0.00012675 L 500.000195 78.615877 " transform="matrix(2.834644,0,0,-2.834644,141.732194,992.125359)"/>
<path style="fill:none;stroke-width:0.2;stroke-linecap:butt;stroke-linejoin:miter;stroke:rgb(0%,0%,100%);stroke-opacity:1;stroke-miterlimit:10;" d="M -0.000608695 0.00012675 L 500.000195 82.547423 " transform="matrix(2.834644,0,0,-2.834644,141.732194,992.125359)"/>
<path style="fill:none;stroke-width:0.2;stroke-linecap:butt;stroke-linejoin:miter;stroke:rgb(0%,0%,100%);stroke-opacity:1;stroke-miterlimit:10;" d="M -0.000608695 0.00012675 L 500.000195 86.47759 " transform="matrix(2.834644,0,0,-2.834644,141.732194,992.125359)"/>
<path style="fill:none;stroke-width:0.2;stroke-linecap:butt;stroke-linejoin:miter;stroke:rgb(0%,0%,100%);stroke-opacity:1;stroke-miterlimit:10;" d="M -0.000608695 0.00012675 L 500.000195 90.409136 " transform="matrix(2.834644,0,0,-2.834644,141.732194,992.125359)"/>
<path style="fill:none;stroke-width:0.2;stroke-linecap:butt;stroke-linejoin:miter;stroke:rgb(0%,0%,100%);stroke-opacity:1;stroke-miterlimit:10;" d="M -0.000608695 0.00012675 L 500.000195 94.339303 " transform="matrix(2.834644,0,0,-2.834644,141.732194,992.125359)"/>
<path style="fill:none;stroke-width:0.2;stroke-linecap:butt;stroke-linejoin:miter;stroke:rgb(0%,0%,100%);stroke-opacity:1;stroke-miterlimit:10;" d="M -0.000608695 0.00012675 L 500.000195 98.270848 " transform="matrix(2.834644,0,0,-2.834644,141.732194,992.125359)"/>
<path style="fill:none;stroke-width:0.2;stroke-linecap:butt;stroke-linejoin:miter;stroke:rgb(0%,0%,100%);stroke-opacity:1;stroke-miterlimit:10;" d="M -0.000608695 0.00012675 L 500.000195 102.201016 " transform="matrix(2.834644,0,0,-2.834644,141.732194,992.125359)"/>
<path style="fill:none;stroke-width:0.2;stroke-linecap:butt;stroke-linejoin:miter;stroke:rgb(0%,0%,100%);stroke-opacity:1;stroke-miterlimit:10;" d="M -0.000608695 0.00012675 L 500.000195 106.132561 " transform="matrix(2.834644,0,0,-2.834644,141.732194,992.125359)"/>
<path style="fill:none;stroke-width:0.2;stroke-linecap:butt;stroke-linejoin:miter;stroke:rgb(0%,0%,100%);stroke-opacity:1;stroke-miterlimit:10;" d="M -0.000608695 0.00012675 L 500.000195 110.062729 " transform="matrix(2.834644,0,0,-2.834644,141.732194,992.125359)"/>
<path style="fill:none;stroke-width:0.2;stroke-linecap:butt;stroke-linejoin:miter;stroke:rgb(0%,0%,100%);stroke-opacity:1;stroke-miterlimit:10;" d="M -0.000608695 0.00012675 L 500.000195 113.994274 " transform="matrix(2.834644,0,0,-2.834644,141.732194,992.125359)"/>
<path style="fill:none;stroke-width:0.2;stroke-linecap:butt;stroke-linejoin:miter;stroke:rgb(0%,0%,100%);stroke-opacity:1;stroke-miterlimit:10;" d="M -0.000608695 0.00012675 L 500.000195 117.924441 " transform="matrix(2.834644,0,0,-2.834644,141.732194,992.125359)"/>
<path style="fill:none;stroke-width:0.2;stroke-linecap:butt;stroke-linejoin:miter;stroke:rgb(0%,0%,100%);stroke-opacity:1;stroke-miterlimit:10;" d="M -0.000608695 0.00012675 L 500.000195 121.855987 " transform="matrix(2.834644,0,0,-2.834644,141.732194,992.125359)"/>
<path style="fill:none;stroke-width:0.2;stroke-linecap:butt;stroke-linejoin:miter;stroke:rgb(0%,0%,100%);stroke-opacity:1;stroke-miterlimit:10;" d="M -0.000608695 0.00012675 L 500.000195 125.786154 " transform="matrix(2.834644,0,0,-2.834644,141.732194,992.125359)"/>
<path style="fill:none;stroke-width:0.2;stroke-linecap:butt;stroke-linejoin:miter;stroke:rgb(0%,0%,100%);stroke-opacity:1;stroke-miterlimit:10;" d="M -0.000608695 0.00012675 L 500.000195 129.716322 " transform="matrix(2.834644,0,0,-2.834644,141.732194,992.125359)"/>
<path style="fill:none;stroke-width:0.2;stroke-linecap:butt;stroke-linejoin:miter;stroke:rgb(0%,0%,100%);stroke-opacity:1;stroke-miterlimit:10;" d="M -0.000608695 0.00012675 L 500.000195 133.647867 " transform="matrix(2.834644,0,0,-2.834644,141.732194,992.125359)"/>
<path style="fill:none;stroke-width:0.2;stroke-linecap:butt;stroke-linejoin:miter;stroke:rgb(0%,0%,100%);stroke-opacity:1;stroke-miterlimit:10;" d="M -0.000608695 0.00012675 L 500.000195 137.578035 " transform="matrix(2.834644,0,0,-2.834644,141.732194,992.125359)"/>
<path style="fill:none;stroke-width:0.2;stroke-linecap:butt;stroke-linejoin:miter;stroke:rgb(0%,0%,100%);stroke-opacity:1;stroke-miterlimit:10;" d="M -0.000608695 0.00012675 L 500.000195 141.50958 " transform="matrix(2.834644,0,0,-2.834644,141.732194,992.125359)"/>
<path style="fill:none;stroke-width:0.2;stroke-linecap:butt;stroke-linejoin:miter;stroke:rgb(0%,0%,100%);stroke-opacity:1;stroke-miterlimit:10;" d="M -0.000608695 0.00012675 L 500.000195 145.439747 " transform="matrix(2.834644,0,0,-2.834644,141.732194,992.125359)"/>
<path style="fill:none;stroke-width:0.2;stroke-linecap:butt;stroke-linejoin:miter;stroke:rgb(0%,0%,100%);stroke-opacity:1;stroke-miterlimit:10;" d="M -0.000608695 0.00012675 L 500.000195 149.371293 " transform="matrix(2.834644,0,0,-2.834644,141.732194,992.125359)"/>
<path style="fill:none;stroke-width:0.2;stroke-linecap:butt;stroke-linejoin:miter;stroke:rgb(0%,0%,100%);stroke-opacity:1;stroke-miterlimit:10;" d="M -0.000608695 0.00012675 L 500.000195 153.30146 " transform="matrix(2.834644,0,0,-2.834644,141.732194,992.125359)"/>
<path style="fill:none;stroke-width:0.2;stroke-linecap:butt;stroke-linejoin:miter;stroke:rgb(0%,0%,100%);stroke-opacity:1;stroke-miterlimit:10;" d="M -0.000608695 0.00012675 L 500.000195 157.233006 " transform="matrix(2.834644,0,0,-2.834644,141.732194,992.125359)"/>
<path style="fill:none;stroke-width:0.2;stroke-linecap:butt;stroke-linejoin:miter;stroke:rgb(0%,0%,100%);stroke-opacity:1;stroke-miterlimit:10;" d="M -0.000608695 0.00012675 L 500.000195 161.163173 " transform="matrix(2.834644,0,0,-2.834644,141.732194,992.125359)"/>
<path style="fill:none;stroke-width:0.2;stroke-linecap:butt;stroke-linejoin:miter;stroke:rgb(0%,0%,100%);stroke-opacity:1;stroke-miterlimit:10;" d="M -0.000608695 0.00012675 L 500.000195 165.094719 " transform="matrix(2.834644,0,0,-2.834644,141.732194,992.125359)"/>
<path style="fill:none;stroke-width:0.2;stroke-linecap:butt;stroke-linejoin:miter;stroke:rgb(0%,0%,100%);stroke-opacity:1;stroke-miterlimit:10;" d="M -0.000608695 0.00012675 L 500.000195 169.024886 " transform="matrix(2.834644,0,0,-2.834644,141.732194,992.125359)"/>
<path style="fill:none;stroke-width:0.2;stroke-linecap:butt;stroke-linejoin:miter;stroke:rgb(0%,0%,100%);stroke-opacity:1;stroke-miterlimit:10;" d="M -0.000608695 0.00012675 L 500.000195 172.956431 " transform="matrix(2.834644,0,0,-2.834644,141.732194,992.125359)"/>
<path style="fill:none;stroke-width:0.2;stroke-linecap:butt;stroke-linejoin:miter;stroke:rgb(0%,0%,100%);stroke-opacity:1;stroke-miterlimit:10;" d="M -0.000608695 0.00012675 L 500.000195 176.886599 " transform="matrix(2.834644,0,0,-2.834644,141.732194,992.125359)"/>
<path style="fill:none;stroke-width:0.2;stroke-linecap:butt;stroke-linejoin:miter;stroke:rgb(0%,0%,100%);stroke-opacity:1;stroke-miterlimit:10;" d="M -0.000608695 0.00012675 L 500.000195 180.818144 " transform="matrix(2.834644,0,0,-2.834644,141.732194,992.125359)"/>
<path style="fill:none;stroke-width:0.2;stroke-linecap:butt;stroke-linejoin:miter;stroke:rgb(0%,0%,100%);stroke-opacity:1;stroke-miterlimit:10;" d="M -0.000608695 0.00012675 L 500.000195 184.748312 " transform="matrix(2.834644,0,0,-2.834644,141.732194,992.125359)"/>
<path style="fill:none;stroke-width:0.2;stroke-linecap:butt;stroke-linejoin:miter;stroke:rgb(0%,0%,100%);stroke-opacity:1;stroke-miterlimit:10;" d="M -0.000608695 0.00012675 L 500.000195 188.679857 " transform="matrix(2.834644,0,0,-2.834644,141.732194,992.125359)"/>
<path style="fill:none;stroke-width:0.2;stroke-linecap:butt;stroke-linejoin:miter;stroke:rgb(0%,0%,100%);stroke-opacity:1;stroke-miterlimit:10;" d="M -0.000608695 0.00012675 L 500.000195 192.610025 " transform="matrix(2.834644,0,0,-2.834644,141.732194,992.125359)"/>
<path style="fill:none;stroke-width:0.2;stroke-linecap:butt;stroke-linejoin:miter;stroke:rgb(0%,0%,100%);stroke-opacity:1;stroke-miterlimit:10;" d="M -0.000608695 0.00012675 L 500.000195 196.540192 " transform="matrix(2.834644,0,0,-2.834644,141.732194,992.125359)"/>
<path style="fill:none;stroke-width:0.2;stroke-linecap:butt;stroke-linejoin:miter;stroke:rgb(0%,0%,100%);stroke-opacity:1;stroke-miterlimit:10;" d="M -0.000608695 0.00012675 L 500.000195 200.471737 " transform="matrix(2.834644,0,0,-2.834644,141.732194,992.125359)"/>
<path style="fill:none;stroke-width:0.2;stroke-linecap:butt;stroke-linejoin:miter;stroke:rgb(0%,0%,100%);stroke-opacity:1;stroke-miterlimit:10;" d="M -0.000608695 0.00012675 L 500.000195 204.401905 " transform="matrix(2.834644,0,0,-2.834644,141.732194,992.125359)"/>
<path style="fill:none;stroke-width:0.2;stroke-linecap:butt;stroke-linejoin:miter;stroke:rgb(0%,0%,100%);stroke-opacity:1;stroke-miterlimit:10;" d="M -0.000608695 0.00012675 L 500.000195 208.33345 " transform="matrix(2.834644,0,0,-2.834644,141.732194,992.125359)"/>
<path style="fill:none;stroke-width:0.2;stroke-linecap:butt;stroke-linejoin:miter;stroke:rgb(100%,0%,0%);stroke-opacity:1;stroke-miterlimit:10;" d="M 199.999713 0.00012675 L 500.000195 0.00012675 " transform="matrix(2.834644,0,0,-2.834644,141.732194,992.125359)"/>
<path style="fill:none;stroke-width:0.2;stroke-linecap:butt;stroke-linejoin:miter;stroke:rgb(100%,0%,0%);stroke-opacity:1;stroke-miterlimit:10;" d="M 199.999713 0.00012675 L 499.681868 13.825993 " transform="matrix(2.834644,0,0,-2.834644,141.732194,992.125359)"/>
<path style="fill:none;stroke-width:0.2;stroke-linecap:butt;stroke-linejoin:miter;stroke:rgb(100%,0%,0%);stroke-opacity:1;stroke-miterlimit:10;" d="M 199.999713 0.00012675 L 498.725508 27.62292 " transform="matrix(2.834644,0,0,-2.834644,141.732194,992.125359)"/>
<path style="fill:none;stroke-width:0.2;stroke-linecap:butt;stroke-linejoin:miter;stroke:rgb(100%,0%,0%);stroke-opacity:1;stroke-miterlimit:10;" d="M 199.999713 0.00012675 L 497.135251 41.360591 " transform="matrix(2.834644,0,0,-2.834644,141.732194,992.125359)"/>
<path style="fill:none;stroke-width:0.2;stroke-linecap:butt;stroke-linejoin:miter;stroke:rgb(100%,0%,0%);stroke-opacity:1;stroke-miterlimit:10;" d="M 199.999713 0.00012675 L 494.913852 55.010068 " transform="matrix(2.834644,0,0,-2.834644,141.732194,992.125359)"/>
<path style="fill:none;stroke-width:0.2;stroke-linecap:butt;stroke-linejoin:miter;stroke:rgb(100%,0%,0%);stroke-opacity:1;stroke-miterlimit:10;" d="M 199.999713 0.00012675 L 492.064068 68.54379 " transform="matrix(2.834644,0,0,-2.834644,141.732194,992.125359)"/>
<path style="fill:none;stroke-width:0.2;stroke-linecap:butt;stroke-linejoin:miter;stroke:rgb(100%,0%,0%);stroke-opacity:1;stroke-miterlimit:10;" d="M 199.999713 0.00012675 L 488.595543 81.931439 " transform="matrix(2.834644,0,0,-2.834644,141.732194,992.125359)"/>
<path style="fill:none;stroke-width:0.2;stroke-linecap:butt;stroke-linejoin:miter;stroke:rgb(100%,0%,0%);stroke-opacity:1;stroke-miterlimit:10;" d="M 199.999713 0.00012675 L 484.512414 95.144078 " transform="matrix(2.834644,0,0,-2.834644,141.732194,992.125359)"/>
<path style="fill:none;stroke-width:0.2;stroke-linecap:butt;stroke-linejoin:miter;stroke:rgb(100%,0%,0%);stroke-opacity:1;stroke-miterlimit:10;" d="M 199.999713 0.00012675 L 479.825703 108.155523 " transform="matrix(2.834644,0,0,-2.834644,141.732194,992.125359)"/>
<path style="fill:none;stroke-width:0.2;stroke-linecap:butt;stroke-linejoin:miter;stroke:rgb(100%,0%,0%);stroke-opacity:1;stroke-miterlimit:10;" d="M 199.999713 0.00012675 L 474.543679 120.936835 " transform="matrix(2.834644,0,0,-2.834644,141.732194,992.125359)"/>
<path style="fill:none;stroke-width:0.2;stroke-linecap:butt;stroke-linejoin:miter;stroke:rgb(100%,0%,0%);stroke-opacity:1;stroke-miterlimit:10;" d="M 199.999713 0.00012675 L 468.678745 133.461832 " transform="matrix(2.834644,0,0,-2.834644,141.732194,992.125359)"/>
<path style="fill:none;stroke-width:0.2;stroke-linecap:butt;stroke-linejoin:miter;stroke:rgb(100%,0%,0%);stroke-opacity:1;stroke-miterlimit:10;" d="M 199.999713 0.00012675 L 462.241924 145.701575 " transform="matrix(2.834644,0,0,-2.834644,141.732194,992.125359)"/>
<path style="fill:none;stroke-width:0.2;stroke-linecap:butt;stroke-linejoin:miter;stroke:rgb(100%,0%,0%);stroke-opacity:1;stroke-miterlimit:10;" d="M 199.999713 0.00012675 L 455.248376 157.632637 " transform="matrix(2.834644,0,0,-2.834644,141.732194,992.125359)"/>
<path style="fill:none;stroke-width:0.2;stroke-linecap:butt;stroke-linejoin:miter;stroke:rgb(100%,0%,0%);stroke-opacity:1;stroke-miterlimit:10;" d="M 199.999713 0.00012675 L 447.71188 169.228836 " transform="matrix(2.834644,0,0,-2.834644,141.732194,992.125359)"/>
<path style="fill:none;stroke-width:0.2;stroke-linecap:butt;stroke-linejoin:miter;stroke:rgb(100%,0%,0%);stroke-opacity:1;stroke-miterlimit:10;" d="M 199.999713 0.00012675 L 439.650352 180.465366 " transform="matrix(2.834644,0,0,-2.834644,141.732194,992.125359)"/>
<path style="fill:none;stroke-width:0.2;stroke-linecap:butt;stroke-linejoin:miter;stroke:rgb(100%,0%,0%);stroke-opacity:1;stroke-miterlimit:10;" d="M 199.999713 0.00012675 L 431.078949 191.318802 " transform="matrix(2.834644,0,0,-2.834644,141.732194,992.125359)"/>
<path style="fill:none;stroke-width:0.2;stroke-linecap:butt;stroke-linejoin:miter;stroke:rgb(100%,0%,0%);stroke-opacity:1;stroke-miterlimit:10;" d="M 199.999713 0.00012675 L 422.015586 201.764338 " transform="matrix(2.834644,0,0,-2.834644,141.732194,992.125359)"/>
<path style="fill:none;stroke-width:0.2;stroke-linecap:butt;stroke-linejoin:miter;stroke:rgb(100%,0%,0%);stroke-opacity:1;stroke-miterlimit:10;" d="M 199.999713 0.00012675 L 412.480934 211.782682 " transform="matrix(2.834644,0,0,-2.834644,141.732194,992.125359)"/>
<path style="fill:none;stroke-width:0.2;stroke-linecap:butt;stroke-linejoin:miter;stroke:rgb(100%,0%,0%);stroke-opacity:1;stroke-miterlimit:10;" d="M 199.999713 0.00012675 L 402.494285 221.350407 " transform="matrix(2.834644,0,0,-2.834644,141.732194,992.125359)"/>
<path style="fill:none;stroke-width:0.2;stroke-linecap:butt;stroke-linejoin:miter;stroke:rgb(100%,0%,0%);stroke-opacity:1;stroke-miterlimit:10;" d="M 199.999713 0.00012675 L 392.079065 230.446843 " transform="matrix(2.834644,0,0,-2.834644,141.732194,992.125359)"/>
<path style="fill:none;stroke-width:0.2;stroke-linecap:butt;stroke-linejoin:miter;stroke:rgb(100%,0%,0%);stroke-opacity:1;stroke-miterlimit:10;" d="M 199.999713 0.00012675 L 381.25319 239.054075 " transform="matrix(2.834644,0,0,-2.834644,141.732194,992.125359)"/>
<path style="fill:none;stroke-width:0.2;stroke-linecap:butt;stroke-linejoin:miter;stroke:rgb(100%,0%,0%);stroke-opacity:1;stroke-miterlimit:10;" d="M 199.999713 0.00012675 L 370.044221 247.154189 " transform="matrix(2.834644,0,0,-2.834644,141.732194,992.125359)"/>
<path style="fill:none;stroke-width:0.2;stroke-linecap:butt;stroke-linejoin:miter;stroke:rgb(100%,0%,0%);stroke-opacity:1;stroke-miterlimit:10;" d="M 199.999713 0.00012675 L 358.472827 254.727891 " transform="matrix(2.834644,0,0,-2.834644,141.732194,992.125359)"/>
<path style="fill:none;stroke-width:0.2;stroke-linecap:butt;stroke-linejoin:miter;stroke:rgb(100%,0%,0%);stroke-opacity:1;stroke-miterlimit:10;" d="M 199.999713 0.00012675 L 346.565191 261.761403 " transform="matrix(2.834644,0,0,-2.834644,141.732194,992.125359)"/>
<path style="fill:none;stroke-width:0.2;stroke-linecap:butt;stroke-linejoin:miter;stroke:rgb(100%,0%,0%);stroke-opacity:1;stroke-miterlimit:10;" d="M 199.999713 0.00012675 L 334.344741 268.236808 " transform="matrix(2.834644,0,0,-2.834644,141.732194,992.125359)"/>
<path style="fill:none;stroke-width:0.2;stroke-linecap:butt;stroke-linejoin:miter;stroke:rgb(100%,0%,0%);stroke-opacity:1;stroke-miterlimit:10;" d="M 199.999713 0.00012675 L 321.840414 274.144462 " transform="matrix(2.834644,0,0,-2.834644,141.732194,992.125359)"/>
<path style="fill:none;stroke-width:0.2;stroke-linecap:butt;stroke-linejoin:miter;stroke:rgb(100%,0%,0%);stroke-opacity:1;stroke-miterlimit:10;" d="M 199.999713 0.00012675 L 309.077017 279.467827 " transform="matrix(2.834644,0,0,-2.834644,141.732194,992.125359)"/>
<path style="fill:none;stroke-width:0.2;stroke-linecap:butt;stroke-linejoin:miter;stroke:rgb(100%,0%,0%);stroke-opacity:1;stroke-miterlimit:10;" d="M 199.999713 0.00012675 L 296.08073 284.197257 " transform="matrix(2.834644,0,0,-2.834644,141.732194,992.125359)"/>
<path style="fill:none;stroke-width:0.2;stroke-linecap:butt;stroke-linejoin:miter;stroke:rgb(100%,0%,0%);stroke-opacity:1;stroke-miterlimit:10;" d="M 199.999713 0.00012675 L 282.880494 288.324484 " transform="matrix(2.834644,0,0,-2.834644,141.732194,992.125359)"/>
<path style="fill:none;stroke-width:0.2;stroke-linecap:butt;stroke-linejoin:miter;stroke:rgb(100%,0%,0%);stroke-opacity:1;stroke-miterlimit:10;" d="M 199.999713 0.00012675 L 269.505247 291.837105 " transform="matrix(2.834644,0,0,-2.834644,141.732194,992.125359)"/>
<path style="fill:none;stroke-width:0.2;stroke-linecap:butt;stroke-linejoin:miter;stroke:rgb(100%,0%,0%);stroke-opacity:1;stroke-miterlimit:10;" d="M 199.999713 0.00012675 L 255.981171 294.730987 " transform="matrix(2.834644,0,0,-2.834644,141.732194,992.125359)"/>
<path style="fill:none;stroke-width:0.2;stroke-linecap:butt;stroke-linejoin:miter;stroke:rgb(100%,0%,0%);stroke-opacity:1;stroke-miterlimit:10;" d="M 199.999713 0.00012675 L 242.338585 296.997862 " transform="matrix(2.834644,0,0,-2.834644,141.732194,992.125359)"/>
<path style="fill:none;stroke-width:0.2;stroke-linecap:butt;stroke-linejoin:miter;stroke:rgb(100%,0%,0%);stroke-opacity:1;stroke-miterlimit:10;" d="M 199.999713 0.00012675 L 228.606426 298.633594 " transform="matrix(2.834644,0,0,-2.834644,141.732194,992.125359)"/>
<path style="fill:none;stroke-width:0.2;stroke-linecap:butt;stroke-linejoin:miter;stroke:rgb(100%,0%,0%);stroke-opacity:1;stroke-miterlimit:10;" d="M 199.999713 0.00012675 L 214.812254 299.63405 " transform="matrix(2.834644,0,0,-2.834644,141.732194,992.125359)"/>
<path style="fill:none;stroke-width:0.2;stroke-linecap:butt;stroke-linejoin:miter;stroke:rgb(100%,0%,0%);stroke-opacity:1;stroke-miterlimit:10;" d="M 199.999713 0.00012675 L 200.987767 299.997853 " transform="matrix(2.834644,0,0,-2.834644,141.732194,992.125359)"/>
<path style="fill:none;stroke-width:0.2;stroke-linecap:butt;stroke-linejoin:miter;stroke:rgb(100%,0%,0%);stroke-opacity:1;stroke-miterlimit:10;" d="M 199.999713 0.00012675 L 187.160523 299.725001 " transform="matrix(2.834644,0,0,-2.834644,141.732194,992.125359)"/>
<path style="fill:none;stroke-width:0.2;stroke-linecap:butt;stroke-linejoin:miter;stroke:rgb(100%,0%,0%);stroke-opacity:1;stroke-miterlimit:10;" d="M 199.999713 0.00012675 L 173.360839 298.815495 " transform="matrix(2.834644,0,0,-2.834644,141.732194,992.125359)"/>
<path style="fill:none;stroke-width:0.2;stroke-linecap:butt;stroke-linejoin:miter;stroke:rgb(100%,0%,0%);stroke-opacity:1;stroke-miterlimit:10;" d="M 199.999713 0.00012675 L 159.617656 297.269335 " transform="matrix(2.834644,0,0,-2.834644,141.732194,992.125359)"/>
<path style="fill:none;stroke-width:0.2;stroke-linecap:butt;stroke-linejoin:miter;stroke:rgb(100%,0%,0%);stroke-opacity:1;stroke-miterlimit:10;" d="M 199.999713 0.00012675 L 145.961289 295.093412 " transform="matrix(2.834644,0,0,-2.834644,141.732194,992.125359)"/>
<path style="fill:none;stroke-width:0.2;stroke-linecap:butt;stroke-linejoin:miter;stroke:rgb(100%,0%,0%);stroke-opacity:1;stroke-miterlimit:10;" d="M 199.999713 0.00012675 L 132.417921 292.289102 " transform="matrix(2.834644,0,0,-2.834644,141.732194,992.125359)"/>
<path style="fill:none;stroke-width:0.2;stroke-linecap:butt;stroke-linejoin:miter;stroke:rgb(100%,0%,0%);stroke-opacity:1;stroke-miterlimit:10;" d="M 199.999713 0.00012675 L 119.019247 288.863297 " transform="matrix(2.834644,0,0,-2.834644,141.732194,992.125359)"/>
<path style="fill:none;stroke-width:0.2;stroke-linecap:butt;stroke-linejoin:miter;stroke:rgb(100%,0%,0%);stroke-opacity:1;stroke-miterlimit:10;" d="M 199.999713 0.00012675 L 105.792828 284.824265 " transform="matrix(2.834644,0,0,-2.834644,141.732194,992.125359)"/>
<path style="fill:none;stroke-width:0.2;stroke-linecap:butt;stroke-linejoin:miter;stroke:rgb(100%,0%,0%);stroke-opacity:1;stroke-miterlimit:10;" d="M 199.999713 0.00012675 L 92.766225 280.180273 " transform="matrix(2.834644,0,0,-2.834644,141.732194,992.125359)"/>
<path style="fill:none;stroke-width:0.2;stroke-linecap:butt;stroke-linejoin:miter;stroke:rgb(100%,0%,0%);stroke-opacity:1;stroke-miterlimit:10;" d="M 199.999713 0.00012675 L 79.968376 274.940968 " transform="matrix(2.834644,0,0,-2.834644,141.732194,992.125359)"/>
<path style="fill:none;stroke-width:0.2;stroke-linecap:butt;stroke-linejoin:miter;stroke:rgb(100%,0%,0%);stroke-opacity:1;stroke-miterlimit:10;" d="M 199.999713 0.00012675 L 67.424087 269.115997 " transform="matrix(2.834644,0,0,-2.834644,141.732194,992.125359)"/>
<path style="fill:none;stroke-width:0.2;stroke-linecap:butt;stroke-linejoin:miter;stroke:rgb(100%,0%,0%);stroke-opacity:1;stroke-miterlimit:10;" d="M 199.999713 0.00012675 L 55.162295 262.720518 " transform="matrix(2.834644,0,0,-2.834644,141.732194,992.125359)"/>
<path style="fill:none;stroke-width:0.2;stroke-linecap:butt;stroke-linejoin:miter;stroke:rgb(100%,0%,0%);stroke-opacity:1;stroke-miterlimit:10;" d="M 199.999713 0.00012675 L 43.207806 255.765555 " transform="matrix(2.834644,0,0,-2.834644,141.732194,992.125359)"/>
<path style="fill:none;stroke-width:0.2;stroke-linecap:butt;stroke-linejoin:miter;stroke:rgb(100%,0%,0%);stroke-opacity:1;stroke-miterlimit:10;" d="M 199.999713 0.00012675 L 31.588181 248.269022 " transform="matrix(2.834644,0,0,-2.834644,141.732194,992.125359)"/>
<path style="fill:none;stroke-width:0.2;stroke-linecap:butt;stroke-linejoin:miter;stroke:rgb(100%,0%,0%);stroke-opacity:1;stroke-miterlimit:10;" d="M 199.999713 0.00012675 L 20.324089 240.243323 " transform="matrix(2.834644,0,0,-2.834644,141.732194,992.125359)"/>
<path style="fill:none;stroke-width:0.2;stroke-linecap:butt;stroke-linejoin:miter;stroke:rgb(100%,0%,0%);stroke-opacity:1;stroke-miterlimit:10;" d="M 199.999713 0.00012675 L 9.443093 231.707749 " transform="matrix(2.834644,0,0,-2.834644,141.732194,992.125359)"/>
<path style="fill:none;stroke-width:0.2;stroke-linecap:butt;stroke-linejoin:miter;stroke:rgb(100%,0%,0%);stroke-opacity:1;stroke-miterlimit:10;" d="M 199.999713 0.00012675 L -1.03276 222.678837 " transform="matrix(2.834644,0,0,-2.834644,141.732194,992.125359)"/>
<path style="fill:none;stroke-width:0.2;stroke-linecap:butt;stroke-linejoin:miter;stroke:rgb(100%,0%,0%);stroke-opacity:1;stroke-miterlimit:10;" d="M 199.999713 0.00012675 L -11.081421 213.177258 " transform="matrix(2.834644,0,0,-2.834644,141.732194,992.125359)"/>
<path style="fill:none;stroke-width:0.2;stroke-linecap:butt;stroke-linejoin:miter;stroke:rgb(100%,0%,0%);stroke-opacity:1;stroke-miterlimit:10;" d="M 199.999713 0.00012675 L -20.682219 203.222303 " transform="matrix(2.834644,0,0,-2.834644,141.732194,992.125359)"/>
<path style="fill:none;stroke-width:0.2;stroke-linecap:butt;stroke-linejoin:miter;stroke:rgb(100%,0%,0%);stroke-opacity:1;stroke-miterlimit:10;" d="M 199.999713 0.00012675 L -29.813106 192.836023 " transform="matrix(2.834644,0,0,-2.834644,141.732194,992.125359)"/>
<path style="fill:none;stroke-width:1;stroke-linecap:butt;stroke-linejoin:miter;stroke:rgb(0%,0%,0%);stroke-opacity:1;stroke-miterlimit:10;" d="M 240.238453 9.443828 L 239.851224 11.313827 L 239.395093 13.17418 L 238.868682 15.023509 L 238.271991 16.859057 L 237.605021 18.679446 L 236.86777 20.483299 L 236.060239 22.269238 L 235.183806 24.035884 L 234.235715 25.780482 L 233.217344 27.501652 L 232.128693 29.198018 L 230.971141 30.868202 L 229.740552 32.510824 L 228.441061 34.12313 L 227.069912 35.702363 L 225.628483 37.249901 L 224.115396 38.76161 L 222.529273 40.237489 L 220.87287 41.673406 L 219.142053 43.070738 L 217.339578 44.423972 L 215.461311 45.734487 L 213.510008 46.999527 L 211.482912 48.214957 L 209.380024 49.382157 L 207.198589 50.49699 L 204.938605 51.556702 L 202.598694 52.561293 L 200.176102 53.506627 L 197.669449 54.389951 L 195.078735 55.211262 L 192.397071 55.965049 L 189.625835 56.649935 L 186.760891 57.261784 L 183.796729 57.797841 L 180.73197 58.25535 L 177.561103 58.628799 L 174.278613 58.915431 L 170.880369 59.109734 L 167.359479 59.207575 L 163.707676 59.202063 L 159.91669 59.089064 L 155.979633 58.860309 L 151.882723 58.508909 L 147.614936 58.025218 L 143.16387 57.400966 L 138.51161 56.623752 L 133.638864 55.682551 " transform="matrix(2.834644,0,0,-2.834644,141.732194,992.125359)"/>
</g>
</svg>
