<?xml version="1.0" encoding="UTF-8"?>
<svg xmlns="http://www.w3.org/2000/svg" xmlns:xlink="http://www.w3.org/1999/xlink" width="2267.715107pt" height="1133.857553pt" viewBox="0 0 2267.715107 1133.857553" version="1.1">
<g id="surface46">
<path style="fill:none;stroke-width:1;stroke-linecap:butt;stroke-linejoin:miter;stroke:rgb(0%,0%,0%);stroke-opacity:1;stroke-miterlimit:10;" d="M -0.000608695 0.00012675 L 749.999907 0.00012675 " transform="matrix(2.834644,0,0,-2.834644,141.732194,992.125359)"/>
<path style="fill:none;stroke-width:1;stroke-linecap:butt;stroke-linejoin:miter;stroke:rgb(0%,0%,0%);stroke-opacity:1;stroke-miterlimit:10;" d="M -0.000608695 0.00012675 L -0.000608695 350 " transform="matrix(2.834644,0,0,-2.834644,141.732194,992.125359)"/>
<path style="fill:none;stroke-width:0.2;stroke-linecap:butt;stroke-linejoin:miter;stroke:rgb(0%,0%,100%);stroke-opacity:1;stroke-miterlimit:10;" d="M -0.000608695 0.00012675 L 400.000034 0.00012675 " transform="matrix(2.834644,0,0,-2.834644,141.732194,992.125359)"/>
<path style="fill:none;stroke-width:0.2;stroke-linecap:butt;stroke-linejoin:miter;stroke:rgb(0%,0%,100%);stroke-opacity:1;stroke-miterlimit:10;" d="M -0.000608695 0.00012675 L 400.000034 2.695571 " transform="matrix(2.834644,0,0,-2.834644,141.732194,992.125359)"/>
<path style="fill:none;stroke-width:0.2;stroke-linecap:butt;stroke-linejoin:miter;stroke:rgb(0%,0%,100%);stroke-opacity:1;stroke-miterlimit:10;" d="M -0.000608695 0.00012675 L 400.000034 5.391016 " transform="matrix(2.834644,0,0,-2.834644,141.732194,992.125359)"/>
<path style="fill:none;stroke-width:0.2;stroke-linecap:butt;stroke-linejoin:miter;stroke:rgb(0%,0%,100%);stroke-opacity:1;stroke-miterlimit:10;" d="M -0.000608695 0.00012675 L 400.000034 8.08646 " transform="matrix(2.834644,0,0,-2.834644,141.732194,992.125359)"/>
<path style="fill:none;stroke-width:0.2;stroke-linecap:butt;stroke-linejoin:miter;stroke:rgb(0%,0%,100%);stroke-opacity:1;stroke-miterlimit:10;" d="M -0.000608695 0.00012675 L 400.000034 10.781904 " transform="matrix(2.834644,0,0,-2.834644,141.732194,992.125359)"/>
<path style="fill:none;stroke-width:0.2;stroke-linecap:butt;stroke-linejoin:miter;stroke:rgb(0%,0%,100%);stroke-opacity:1;stroke-miterlimit:10;" d="M -0.000608695 0.00012675 L 400.000034 13.477349 " transform="matrix(2.834644,0,0,-2.834644,141.732194,992.125359)"/>
<path style="fill:none;stroke-width:0.2;stroke-linecap:butt;stroke-linejoin:miter;stroke:rgb(0%,0%,100%);stroke-opacity:1;stroke-miterlimit:10;" d="M -0.000608695 0.00012675 L 400.000034 16.172793 " transform="matrix(2.834644,0,0,-2.834644,141.732194,992.125359)"/>
<path style="fill:none;stroke-width:0.2;stroke-linecap:butt;stroke-linejoin:miter;stroke:rgb(0%,0%,100%);stroke-opacity:1;stroke-miterlimit:10;" d="M -0.000608695 0.00012675 L 400.000034 18.868238 " transform="matrix(2.834644,0,0,-2.834644,141.732194,992.125359)"/>
<path style="fill:none;stroke-width:0.2;stroke-linecap:butt;stroke-linejoin:miter;stroke:rgb(0%,0%,100%);stroke-opacity:1;stroke-miterlimit:10;" d="M -0.000608695 0.00012675 L 400.000034 21.563682 " transform="matrix(2.834644,0,0,-2.834644,141.732194,992.125359)"/>
<path style="fill:none;stroke-width:0.2;stroke-linecap:butt;stroke-linejoin:miter;stroke:rgb(0%,0%,100%);stroke-opacity:1;stroke-miterlimit:10;" d="M -0.000608695 0.00012675 L 400.000034 24.259126 " transform="matrix(2.834644,0,0,-2.834644,141.732194,992.125359)"/>
<path style="fill:none;stroke-width:0.2;stroke-linecap:butt;stroke-linejoin:miter;stroke:rgb(0%,0%,100%);stroke-opacity:1;stroke-miterlimit:10;" d="M -0.000608695 0.00012675 L 400.000034 26.954571 " transform="matrix(2.834644,0,0,-2.834644,141.732194,992.125359)"/>
<path style="fill:none;stroke-width:0.2;stroke-linecap:butt;stroke-linejoin:miter;stroke:rgb(0%,0%,100%);stroke-opacity:1;stroke-miterlimit:10;" d="M -0.000608695 0.00012675 L 400.000034 29.650015 " transform="matrix(2.834644,0,0,-2.834644,141.732194,992.125359)"/>
<path style="fill:none;stroke-width:0.2;stroke-linecap:butt;stroke-linejoin:miter;stroke:rgb(0%,0%,100%);stroke-opacity:1;stroke-miterlimit:10;" d="M -0.000608695 0.00012675 L 400.000034 32.34546 " transform="matrix(2.834644,0,0,-2.834644,141.732194,992.125359)"/>
<path style="fill:none;stroke-width:0.2;stroke-linecap:butt;stroke-linejoin:miter;stroke:rgb(0%,0%,100%);stroke-opacity:1;stroke-miterlimit:10;" d="M -0.000608695 0.00012675 L 400.000034 35.040904 " transform="matrix(2.834644,0,0,-2.834644,141.732194,992.125359)"/>
<path style="fill:none;stroke-width:0.2;stroke-linecap:butt;stroke-linejoin:miter;stroke:rgb(0%,0%,100%);stroke-opacity:1;stroke-miterlimit:10;" d="M -0.000608695 0.00012675 L 400.000034 37.736348 " transform="matrix(2.834644,0,0,-2.834644,141.732194,992.125359)"/>
<path style="fill:none;stroke-width:0.2;stroke-linecap:butt;stroke-linejoin:miter;stroke:rgb(0%,0%,100%);stroke-opacity:1;stroke-miterlimit:10;" d="M -0.000608695 0.00012675 L 400.000034 40.431793 " transform="matrix(2.834644,0,0,-2.834644,141.732194,992.125359)"/>
<path style="fill:none;stroke-width:0.2;stroke-linecap:butt;stroke-linejoin:miter;stroke:rgb(0%,0%,100%);stroke-opacity:1;stroke-miterlimit:10;" d="M -0.000608695 0.00012675 L 400.000034 43.127237 " transform="matrix(2.834644,0,0,-2.834644,141.732194,992.125359)"/>
<path style="fill:none;stroke-width:0.2;stroke-linecap:butt;stroke-linejoin:miter;stroke:rgb(0%,0%,100%);stroke-opacity:1;stroke-miterlimit:10;" d="M -0.000608695 0.00012675 L 400.000034 45.822682 " transform="matrix(2.834644,0,0,-2.834644,141.732194,992.125359)"/>
<path style="fill:none;stroke-width:0.2;stroke-linecap:butt;stroke-linejoin:miter;stroke:rgb(0%,0%,100%);stroke-opacity:1;stroke-miterlimit:10;" d="M -0.000608695 0.00012675 L 400.000034 48.518126 " transform="matrix(2.834644,0,0,-2.834644,141.732194,992.125359)"/>
<path style="fill:none;stroke-width:0.2;stroke-linecap:butt;stroke-linejoin:miter;stroke:rgb(0%,0%,100%);stroke-opacity:1;stroke-miterlimit:10;" d="M -0.000608695 0.00012675 L 400.000034 51.21357 " transform="matrix(2.834644,0,0,-2.834644,141.732194,992.125359)"/>
<path style="fill:none;stroke-width:0.2;stroke-linecap:butt;stroke-linejoin:miter;stroke:rgb(0%,0%,100%);stroke-opacity:1;stroke-miterlimit:10;" d="M -0.000608695 0.00012675 L 400.000034 53.909015 " transform="matrix(2.834644,0,0,-2.834644,141.732194,992.125359)"/>
<path style="fill:none;stroke-width:0.2;stroke-linecap:butt;stroke-linejoin:miter;stroke:rgb(0%,0%,100%);stroke-opacity:1;stroke-miterlimit:10;" d="M -0.000608695 0.00012675 L 400.000034 56.604459 " transform="matrix(2.834644,0,0,-2.834644,141.732194,992.125359)"/>
<path style="fill:none;stroke-width:0.2;stroke-linecap:butt;stroke-linejoin:miter;stroke:rgb(0%,0%,100%);stroke-opacity:1;stroke-miterlimit:10;" d="M -0.000608695 0.00012675 L 400.000034 59.298526 " transform="matrix(2.834644,0,0,-2.834644,141.732194,992.125359)"/>
<path style="fill:none;stroke-width:0.2;stroke-linecap:butt;stroke-linejoin:miter;stroke:rgb(0%,0%,100%);stroke-opacity:1;stroke-miterlimit:10;" d="M -0.000608695 0.00012675 L 400.000034 61.99397 " transform="matrix(2.834644,0,0,-2.834644,141.732194,992.125359)"/>
<path style="fill:none;stroke-width:0.2;stroke-linecap:butt;stroke-linejoin:miter;stroke:rgb(0%,0%,100%);stroke-opacity:1;stroke-miterlimit:10;" d="M -0.000608695 0.00012675 L 400.000034 64.689414 " transform="matrix(2.834644,0,0,-2.834644,141.732194,992.125359)"/>
<path style="fill:none;stroke-width:0.2;stroke-linecap:butt;stroke-linejoin:miter;stroke:rgb(0%,0%,100%);stroke-opacity:1;stroke-miterlimit:10;" d="M -0.000608695 0.00012675 L 400.000034 67.384859 " transform="matrix(2.834644,0,0,-2.834644,141.732194,992.125359)"/>
<path style="fill:none;stroke-width:0.2;stroke-linecap:butt;stroke-linejoin:miter;stroke:rgb(0%,0%,100%);stroke-opacity:1;stroke-miterlimit:10;" d="M -0.000608695 0.00012675 L 400.000034 70.080303 " transform="matrix(2.834644,0,0,-2.834644,141.732194,992.125359)"/>
<path style="fill:none;stroke-width:0.2;stroke-linecap:butt;stroke-linejoin:miter;stroke:rgb(0%,0%,100%);stroke-opacity:1;stroke-miterlimit:10;" d="M -0.000608695 0.00012675 L 400.000034 72.775748 " transform="matrix(2.834644,0,0,-2.834644,141.732194,992.125359)"/>
<path style="fill:none;stroke-width:0.2;stroke-linecap:butt;stroke-linejoin:miter;stroke:rgb(0%,0%,100%);stroke-opacity:1;stroke-miterlimit:10;" d="M -0.000608695 0.00012675 L 400.000034 75.471192 " transform="matrix(2.834644,0,0,-2.834644,141.732194,992.125359)"/>
<path style="fill:none;stroke-width:0.2;stroke-linecap:butt;stroke-linejoin:miter;stroke:rgb(0%,0%,100%);stroke-opacity:1;stroke-miterlimit:10;" d="M -0.000608695 0.00012675 L 400.000034 78.166636 " transform="matrix(2.834644,0,0,-2.834644,141.732194,992.125359)"/>
<path style="fill:none;stroke-width:0.2;stroke-linecap:butt;stroke-linejoin:miter;stroke:rgb(0%,0%,100%);stroke-opacity:1;stroke-miterlimit:10;" d="M -0.000608695 0.00012675 L 400.000034 80.862081 " transform="matrix(2.834644,0,0,-2.834644,141.732194,992.125359)"/>
<path style="fill:none;stroke-width:0.2;stroke-linecap:butt;stroke-linejoin:miter;stroke:rgb(0%,0%,100%);stroke-opacity:1;stroke-miterlimit:10;" d="M -0.000608695 0.00012675 L 400.000034 83.557525 " transform="matrix(2.834644,0,0,-2.834644,141.732194,992.125359)"/>
<path style="fill:none;stroke-width:0.2;stroke-linecap:butt;stroke-linejoin:miter;stroke:rgb(0%,0%,100%);stroke-opacity:1;stroke-miterlimit:10;" d="M -0.000608695 0.00012675 L 400.000034 86.25297 " transform="matrix(2.834644,0,0,-2.834644,141.732194,992.125359)"/>
<path style="fill:none;stroke-width:0.2;stroke-linecap:butt;stroke-linejoin:miter;stroke:rgb(0%,0%,100%);stroke-opacity:1;stroke-miterlimit:10;" d="M -0.000608695 0.00012675 L 400.000034 88.948414 " transform="matrix(2.834644,0,0,-2.834644,141.732194,992.125359)"/>
<path style="fill:none;stroke-width:0.2;stroke-linecap:butt;stroke-linejoin:miter;stroke:rgb(0%,0%,100%);stroke-opacity:1;stroke-miterlimit:10;" d="M -0.000608695 0.00012675 L 400.000034 91.643859 " transform="matrix(2.834644,0,0,-2.834644,141.732194,992.125359)"/>
<path style="fill:none;stroke-width:0.2;stroke-linecap:butt;stroke-linejoin:miter;stroke:rgb(0%,0%,100%);stroke-opacity:1;stroke-miterlimit:10;" d="M -0.000608695 0.00012675 L 400.000034 94.339303 " transform="matrix(2.834644,0,0,-2.834644,141.732194,992.125359)"/>
<path style="fill:none;stroke-width:0.2;stroke-linecap:butt;stroke-linejoin:miter;stroke:rgb(0%,0%,100%);stroke-opacity:1;stroke-miterlimit:10;" d="M -0.000608695 0.00012675 L 400.000034 97.034747 " transform="matrix(2.834644,0,0,-2.834644,141.732194,992.125359)"/>
<path style="fill:none;stroke-width:0.2;stroke-linecap:butt;stroke-linejoin:miter;stroke:rgb(0%,0%,100%);stroke-opacity:1;stroke-miterlimit:10;" d="M -0.000608695 0.00012675 L 400.000034 99.730192 " transform="matrix(2.834644,0,0,-2.834644,141.732194,992.125359)"/>
<path style="fill:none;stroke-width:0.2;stroke-linecap:butt;stroke-linejoin:miter;stroke:rgb(0%,0%,100%);stroke-opacity:1;stroke-miterlimit:10;" d="M -0.000608695 0.00012675 L 400.000034 102.425636 " transform="matrix(2.834644,0,0,-2.834644,141.732194,992.125359)"/>
<path style="fill:none;stroke-width:0.2;stroke-linecap:butt;stroke-linejoin:miter;stroke:rgb(0%,0%,100%);stroke-opacity:1;stroke-miterlimit:10;" d="M -0.000608695 0.00012675 L 400.000034 105.121081 " transform="matrix(2.834644,0,0,-2.834644,141.732194,992.125359)"/>
<path style="fill:none;stroke-width:0.2;stroke-linecap:butt;stroke-linejoin:miter;stroke:rgb(0%,0%,100%);stroke-opacity:1;stroke-miterlimit:10;" d="M -0.000608695 0.00012675 L 400.000034 107.816525 " transform="matrix(2.834644,0,0,-2.834644,141.732194,992.125359)"/>
<path style="fill:none;stroke-width:0.2;stroke-linecap:butt;stroke-linejoin:miter;stroke:rgb(0%,0%,100%);stroke-opacity:1;stroke-miterlimit:10;" d="M -0.000608695 0.00012675 L 400.000034 110.511969 " transform="matrix(2.834644,0,0,-2.834644,141.732194,992.125359)"/>
<path style="fill:none;stroke-width:0.2;stroke-linecap:butt;stroke-linejoin:miter;stroke:rgb(0%,0%,100%);stroke-opacity:1;stroke-miterlimit:10;" d="M -0.000608695 0.00012675 L 400.000034 113.207414 " transform="matrix(2.834644,0,0,-2.834644,141.732194,992.125359)"/>
<path style="fill:none;stroke-width:0.2;stroke-linecap:butt;stroke-linejoin:miter;stroke:rgb(0%,0%,100%);stroke-opacity:1;stroke-miterlimit:10;" d="M -0.000608695 0.00012675 L 400.000034 115.902858 " transform="matrix(2.834644,0,0,-2.834644,141.732194,992.125359)"/>
<path style="fill:none;stroke-width:0.2;stroke-linecap:butt;stroke-linejoin:miter;stroke:rgb(0%,0%,100%);stroke-opacity:1;stroke-miterlimit:10;" d="M -0.000608695 0.00012675 L 400.000034 118.598303 " transform="matrix(2.834644,0,0,-2.834644,141.732194,992.125359)"/>
<path style="fill:none;stroke-width:0.2;stroke-linecap:butt;stroke-linejoin:miter;stroke:rgb(0%,0%,100%);stroke-opacity:1;stroke-miterlimit:10;" d="M -0.000608695 0.00012675 L 400.000034 121.293747 " transform="matrix(2.834644,0,0,-2.834644,141.732194,992.125359)"/>
<path style="fill:none;stroke-width:0.2;stroke-linecap:butt;stroke-linejoin:miter;stroke:rgb(0%,0%,100%);stroke-opacity:1;stroke-miterlimit:10;" d="M -0.000608695 0.00012675 L 400.000034 123.989191 " transform="matrix(2.834644,0,0,-2.834644,141.732194,992.125359)"/>
<path style="fill:none;stroke-width:0.2;stroke-linecap:butt;stroke-linejoin:miter;stroke:rgb(0%,0%,100%);stroke-opacity:1;stroke-miterlimit:10;" d="M -0.000608695 0.00012675 L 400.000034 126.684636 " transform="matrix(2.834644,0,0,-2.834644,141.732194,992.125359)"/>
<path style="fill:none;stroke-width:0.2;stroke-linecap:butt;stroke-linejoin:miter;stroke:rgb(0%,0%,100%);stroke-opacity:1;stroke-miterlimit:10;" d="M -0.000608695 0.00012675 L 400.000034 129.38008 " transform="matrix(2.834644,0,0,-2.834644,141.732194,992.125359)"/>
<path style="fill:none;stroke-width:0.2;stroke-linecap:butt;stroke-linejoin:miter;stroke:rgb(0%,0%,100%);stroke-opacity:1;stroke-miterlimit:10;" d="M -0.000608695 0.00012675 L 400.000034 132.075525 " transform="matrix(2.834644,0,0,-2.834644,141.732194,992.125359)"/>
<path style="fill:none;stroke-width:0.2;stroke-linecap:butt;stroke-linejoin:miter;stroke:rgb(0%,0%,100%);stroke-opacity:1;stroke-miterlimit:10;" d="M -0.000608695 0.00012675 L 400.000034 134.770969 " transform="matrix(2.834644,0,0,-2.834644,141.732194,992.125359)"/>
<path style="fill:none;stroke-width:0.2;stroke-linecap:butt;stroke-linejoin:miter;stroke:rgb(0%,0%,100%);stroke-opacity:1;stroke-miterlimit:10;" d="M -0.000608695 0.00012675 L 400.000034 137.466413 " transform="matrix(2.834644,0,0,-2.834644,141.732194,992.125359)"/>
<path style="fill:none;stroke-width:0.2;stroke-linecap:butt;stroke-linejoin:miter;stroke:rgb(0%,0%,100%);stroke-opacity:1;stroke-miterlimit:10;" d="M -0.000608695 0.00012675 L 400.000034 140.161858 " transform="matrix(2.834644,0,0,-2.834644,141.732194,992.125359)"/>
<path style="fill:none;stroke-width:0.2;stroke-linecap:butt;stroke-linejoin:miter;stroke:rgb(0%,0%,100%);stroke-opacity:1;stroke-miterlimit:10;" d="M -0.000608695 0.00012675 L 400.000034 142.857302 " transform="matrix(2.834644,0,0,-2.834644,141.732194,992.125359)"/>
<path style="fill:none;stroke-width:0.2;stroke-linecap:butt;stroke-linejoin:miter;stroke:rgb(100%,0%,0%);stroke-opacity:1;stroke-miterlimit:10;" d="M 199.999713 0.00012675 L 400.000034 0.00012675 " transform="matrix(2.834644,0,0,-2.834644,141.732194,992.125359)"/>
<path style="fill:none;stroke-width:0.2;stroke-linecap:butt;stroke-linejoin:miter;stroke:rgb(100%,0%,0%);stroke-opacity:1;stroke-miterlimit:10;" d="M 199.999713 0.00012675 L 399.844315 7.901803 " transform="matrix(2.834644,0,0,-2.834644,141.732194,992.125359)"/>
<path style="fill:none;stroke-width:0.2;stroke-linecap:butt;stroke-linejoin:miter;stroke:rgb(100%,0%,0%);stroke-opacity:1;stroke-miterlimit:10;" d="M 199.999713 0.00012675 L 399.375782 15.789698 " transform="matrix(2.834644,0,0,-2.834644,141.732194,992.125359)"/>
<path style="fill:none;stroke-width:0.2;stroke-linecap:butt;stroke-linejoin:miter;stroke:rgb(100%,0%,0%);stroke-opacity:1;stroke-miterlimit:10;" d="M 199.999713 0.00012675 L 398.595812 23.654167 " transform="matrix(2.834644,0,0,-2.834644,141.732194,992.125359)"/>
<path style="fill:none;stroke-width:0.2;stroke-linecap:butt;stroke-linejoin:miter;stroke:rgb(100%,0%,0%);stroke-opacity:1;stroke-miterlimit:10;" d="M 199.999713 0.00012675 L 397.507161 31.481429 " transform="matrix(2.834644,0,0,-2.834644,141.732194,992.125359)"/>
<path style="fill:none;stroke-width:0.2;stroke-linecap:butt;stroke-linejoin:miter;stroke:rgb(100%,0%,0%);stroke-opacity:1;stroke-miterlimit:10;" d="M 199.999713 0.00012675 L 396.108452 39.26046 " transform="matrix(2.834644,0,0,-2.834644,141.732194,992.125359)"/>
<path style="fill:none;stroke-width:0.2;stroke-linecap:butt;stroke-linejoin:miter;stroke:rgb(100%,0%,0%);stroke-opacity:1;stroke-miterlimit:10;" d="M 199.999713 0.00012675 L 394.405195 46.977478 " transform="matrix(2.834644,0,0,-2.834644,141.732194,992.125359)"/>
<path style="fill:none;stroke-width:0.2;stroke-linecap:butt;stroke-linejoin:miter;stroke:rgb(100%,0%,0%);stroke-opacity:1;stroke-miterlimit:10;" d="M 199.999713 0.00012675 L 392.397392 54.621461 " transform="matrix(2.834644,0,0,-2.834644,141.732194,992.125359)"/>
<path style="fill:none;stroke-width:0.2;stroke-linecap:butt;stroke-linejoin:miter;stroke:rgb(100%,0%,0%);stroke-opacity:1;stroke-miterlimit:10;" d="M 199.999713 0.00012675 L 390.089177 62.178627 " transform="matrix(2.834644,0,0,-2.834644,141.732194,992.125359)"/>
<path style="fill:none;stroke-width:0.2;stroke-linecap:butt;stroke-linejoin:miter;stroke:rgb(100%,0%,0%);stroke-opacity:1;stroke-miterlimit:10;" d="M 199.999713 0.00012675 L 387.483305 69.640709 " transform="matrix(2.834644,0,0,-2.834644,141.732194,992.125359)"/>
<path style="fill:none;stroke-width:0.2;stroke-linecap:butt;stroke-linejoin:miter;stroke:rgb(100%,0%,0%);stroke-opacity:1;stroke-miterlimit:10;" d="M 199.999713 0.00012675 L 384.586667 76.992547 " transform="matrix(2.834644,0,0,-2.834644,141.732194,992.125359)"/>
<path style="fill:none;stroke-width:0.2;stroke-linecap:butt;stroke-linejoin:miter;stroke:rgb(100%,0%,0%);stroke-opacity:1;stroke-miterlimit:10;" d="M 199.999713 0.00012675 L 381.400641 84.224496 " transform="matrix(2.834644,0,0,-2.834644,141.732194,992.125359)"/>
<path style="fill:none;stroke-width:0.2;stroke-linecap:butt;stroke-linejoin:miter;stroke:rgb(100%,0%,0%);stroke-opacity:1;stroke-miterlimit:10;" d="M 199.999713 0.00012675 L 377.930738 91.325532 " transform="matrix(2.834644,0,0,-2.834644,141.732194,992.125359)"/>
<path style="fill:none;stroke-width:0.2;stroke-linecap:butt;stroke-linejoin:miter;stroke:rgb(100%,0%,0%);stroke-opacity:1;stroke-miterlimit:10;" d="M 199.999713 0.00012675 L 374.18385 98.284629 " transform="matrix(2.834644,0,0,-2.834644,141.732194,992.125359)"/>
<path style="fill:none;stroke-width:0.2;stroke-linecap:butt;stroke-linejoin:miter;stroke:rgb(100%,0%,0%);stroke-opacity:1;stroke-miterlimit:10;" d="M 199.999713 0.00012675 L 370.165488 105.089386 " transform="matrix(2.834644,0,0,-2.834644,141.732194,992.125359)"/>
<path style="fill:none;stroke-width:0.2;stroke-linecap:butt;stroke-linejoin:miter;stroke:rgb(100%,0%,0%);stroke-opacity:1;stroke-miterlimit:10;" d="M 199.999713 0.00012675 L 365.881165 111.728778 " transform="matrix(2.834644,0,0,-2.834644,141.732194,992.125359)"/>
<path style="fill:none;stroke-width:0.2;stroke-linecap:butt;stroke-linejoin:miter;stroke:rgb(100%,0%,0%);stroke-opacity:1;stroke-miterlimit:10;" d="M 199.999713 0.00012675 L 361.33777 118.195915 " transform="matrix(2.834644,0,0,-2.834644,141.732194,992.125359)"/>
<path style="fill:none;stroke-width:0.2;stroke-linecap:butt;stroke-linejoin:miter;stroke:rgb(100%,0%,0%);stroke-opacity:1;stroke-miterlimit:10;" d="M 199.999713 0.00012675 L 356.542194 124.477017 " transform="matrix(2.834644,0,0,-2.834644,141.732194,992.125359)"/>
<path style="fill:none;stroke-width:0.2;stroke-linecap:butt;stroke-linejoin:miter;stroke:rgb(100%,0%,0%);stroke-opacity:1;stroke-miterlimit:10;" d="M 199.999713 0.00012675 L 351.502705 130.563816 " transform="matrix(2.834644,0,0,-2.834644,141.732194,992.125359)"/>
<path style="fill:none;stroke-width:0.2;stroke-linecap:butt;stroke-linejoin:miter;stroke:rgb(100%,0%,0%);stroke-opacity:1;stroke-miterlimit:10;" d="M 199.999713 0.00012675 L 346.226194 136.448043 " transform="matrix(2.834644,0,0,-2.834644,141.732194,992.125359)"/>
<path style="fill:none;stroke-width:0.2;stroke-linecap:butt;stroke-linejoin:miter;stroke:rgb(100%,0%,0%);stroke-opacity:1;stroke-miterlimit:10;" d="M 199.999713 0.00012675 L 340.720928 142.118673 " transform="matrix(2.834644,0,0,-2.834644,141.732194,992.125359)"/>
<path style="fill:none;stroke-width:0.2;stroke-linecap:butt;stroke-linejoin:miter;stroke:rgb(100%,0%,0%);stroke-opacity:1;stroke-miterlimit:10;" d="M 199.999713 0.00012675 L 334.996553 147.566062 " transform="matrix(2.834644,0,0,-2.834644,141.732194,992.125359)"/>
<path style="fill:none;stroke-width:0.2;stroke-linecap:butt;stroke-linejoin:miter;stroke:rgb(100%,0%,0%);stroke-opacity:1;stroke-miterlimit:10;" d="M 199.999713 0.00012675 L 329.061339 152.784696 " transform="matrix(2.834644,0,0,-2.834644,141.732194,992.125359)"/>
<path style="fill:none;stroke-width:0.2;stroke-linecap:butt;stroke-linejoin:miter;stroke:rgb(100%,0%,0%);stroke-opacity:1;stroke-miterlimit:10;" d="M 199.999713 0.00012675 L 322.924931 157.763551 " transform="matrix(2.834644,0,0,-2.834644,141.732194,992.125359)"/>
<path style="fill:none;stroke-width:0.2;stroke-linecap:butt;stroke-linejoin:miter;stroke:rgb(100%,0%,0%);stroke-opacity:1;stroke-miterlimit:10;" d="M 199.999713 0.00012675 L 316.595598 162.497115 " transform="matrix(2.834644,0,0,-2.834644,141.732194,992.125359)"/>
<path style="fill:none;stroke-width:0.2;stroke-linecap:butt;stroke-linejoin:miter;stroke:rgb(100%,0%,0%);stroke-opacity:1;stroke-miterlimit:10;" d="M 199.999713 0.00012675 L 310.085741 166.97712 " transform="matrix(2.834644,0,0,-2.834644,141.732194,992.125359)"/>
<path style="fill:none;stroke-width:0.2;stroke-linecap:butt;stroke-linejoin:miter;stroke:rgb(100%,0%,0%);stroke-opacity:1;stroke-miterlimit:10;" d="M 199.999713 0.00012675 L 303.402252 171.195298 " transform="matrix(2.834644,0,0,-2.834644,141.732194,992.125359)"/>
<path style="fill:none;stroke-width:0.2;stroke-linecap:butt;stroke-linejoin:miter;stroke:rgb(100%,0%,0%);stroke-opacity:1;stroke-miterlimit:10;" d="M 199.999713 0.00012675 L 296.55891 175.147514 " transform="matrix(2.834644,0,0,-2.834644,141.732194,992.125359)"/>
<path style="fill:none;stroke-width:0.2;stroke-linecap:butt;stroke-linejoin:miter;stroke:rgb(100%,0%,0%);stroke-opacity:1;stroke-miterlimit:10;" d="M 199.999713 0.00012675 L 289.563983 178.8255 " transform="matrix(2.834644,0,0,-2.834644,141.732194,992.125359)"/>
<path style="fill:none;stroke-width:0.2;stroke-linecap:butt;stroke-linejoin:miter;stroke:rgb(100%,0%,0%);stroke-opacity:1;stroke-miterlimit:10;" d="M 199.999713 0.00012675 L 282.428497 182.223744 " transform="matrix(2.834644,0,0,-2.834644,141.732194,992.125359)"/>
<path style="fill:none;stroke-width:0.2;stroke-linecap:butt;stroke-linejoin:miter;stroke:rgb(100%,0%,0%);stroke-opacity:1;stroke-miterlimit:10;" d="M 199.999713 0.00012675 L 275.164853 185.338112 " transform="matrix(2.834644,0,0,-2.834644,141.732194,992.125359)"/>
<path style="fill:none;stroke-width:0.2;stroke-linecap:butt;stroke-linejoin:miter;stroke:rgb(100%,0%,0%);stroke-opacity:1;stroke-miterlimit:10;" d="M 199.999713 0.00012675 L 267.784076 188.163093 " transform="matrix(2.834644,0,0,-2.834644,141.732194,992.125359)"/>
<path style="fill:none;stroke-width:0.2;stroke-linecap:butt;stroke-linejoin:miter;stroke:rgb(100%,0%,0%);stroke-opacity:1;stroke-miterlimit:10;" d="M 199.999713 0.00012675 L 260.298568 190.693172 " transform="matrix(2.834644,0,0,-2.834644,141.732194,992.125359)"/>
<path style="fill:none;stroke-width:0.2;stroke-linecap:butt;stroke-linejoin:miter;stroke:rgb(100%,0%,0%);stroke-opacity:1;stroke-miterlimit:10;" d="M 199.999713 0.00012675 L 252.717975 192.926974 " transform="matrix(2.834644,0,0,-2.834644,141.732194,992.125359)"/>
<path style="fill:none;stroke-width:0.2;stroke-linecap:butt;stroke-linejoin:miter;stroke:rgb(100%,0%,0%);stroke-opacity:1;stroke-miterlimit:10;" d="M 199.999713 0.00012675 L 245.0547 194.858984 " transform="matrix(2.834644,0,0,-2.834644,141.732194,992.125359)"/>
<path style="fill:none;stroke-width:0.2;stroke-linecap:butt;stroke-linejoin:miter;stroke:rgb(100%,0%,0%);stroke-opacity:1;stroke-miterlimit:10;" d="M 199.999713 0.00012675 L 237.321145 196.486448 " transform="matrix(2.834644,0,0,-2.834644,141.732194,992.125359)"/>
<path style="fill:none;stroke-width:0.2;stroke-linecap:butt;stroke-linejoin:miter;stroke:rgb(100%,0%,0%);stroke-opacity:1;stroke-miterlimit:10;" d="M 199.999713 0.00012675 L 229.529712 197.807988 " transform="matrix(2.834644,0,0,-2.834644,141.732194,992.125359)"/>
<path style="fill:none;stroke-width:0.2;stroke-linecap:butt;stroke-linejoin:miter;stroke:rgb(100%,0%,0%);stroke-opacity:1;stroke-miterlimit:10;" d="M 199.999713 0.00012675 L 221.691425 198.820847 " transform="matrix(2.834644,0,0,-2.834644,141.732194,992.125359)"/>
<path style="fill:none;stroke-width:0.2;stroke-linecap:butt;stroke-linejoin:miter;stroke:rgb(100%,0%,0%);stroke-opacity:1;stroke-miterlimit:10;" d="M 199.999713 0.00012675 L 213.820066 199.522268 " transform="matrix(2.834644,0,0,-2.834644,141.732194,992.125359)"/>
<path style="fill:none;stroke-width:0.2;stroke-linecap:butt;stroke-linejoin:miter;stroke:rgb(100%,0%,0%);stroke-opacity:1;stroke-miterlimit:10;" d="M 199.999713 0.00012675 L 205.926659 199.912254 " transform="matrix(2.834644,0,0,-2.834644,141.732194,992.125359)"/>
<path style="fill:none;stroke-width:0.2;stroke-linecap:butt;stroke-linejoin:miter;stroke:rgb(100%,0%,0%);stroke-opacity:1;stroke-miterlimit:10;" d="M 199.999713 0.00012675 L 198.023605 199.990802 " transform="matrix(2.834644,0,0,-2.834644,141.732194,992.125359)"/>
<path style="fill:none;stroke-width:0.2;stroke-linecap:butt;stroke-linejoin:miter;stroke:rgb(100%,0%,0%);stroke-opacity:1;stroke-miterlimit:10;" d="M 199.999713 0.00012675 L 190.124685 199.756535 " transform="matrix(2.834644,0,0,-2.834644,141.732194,992.125359)"/>
<path style="fill:none;stroke-width:0.2;stroke-linecap:butt;stroke-linejoin:miter;stroke:rgb(100%,0%,0%);stroke-opacity:1;stroke-miterlimit:10;" d="M 199.999713 0.00012675 L 182.240923 199.209454 " transform="matrix(2.834644,0,0,-2.834644,141.732194,992.125359)"/>
<path style="fill:none;stroke-width:0.2;stroke-linecap:butt;stroke-linejoin:miter;stroke:rgb(100%,0%,0%);stroke-opacity:1;stroke-miterlimit:10;" d="M 199.999713 0.00012675 L 174.384723 198.352313 " transform="matrix(2.834644,0,0,-2.834644,141.732194,992.125359)"/>
<path style="fill:none;stroke-width:0.2;stroke-linecap:butt;stroke-linejoin:miter;stroke:rgb(100%,0%,0%);stroke-opacity:1;stroke-miterlimit:10;" d="M 199.999713 0.00012675 L 166.568485 197.186492 " transform="matrix(2.834644,0,0,-2.834644,141.732194,992.125359)"/>
<path style="fill:none;stroke-width:0.2;stroke-linecap:butt;stroke-linejoin:miter;stroke:rgb(100%,0%,0%);stroke-opacity:1;stroke-miterlimit:10;" d="M 199.999713 0.00012675 L 158.804613 195.710612 " transform="matrix(2.834644,0,0,-2.834644,141.732194,992.125359)"/>
<path style="fill:none;stroke-width:0.2;stroke-linecap:butt;stroke-linejoin:miter;stroke:rgb(100%,0%,0%);stroke-opacity:1;stroke-miterlimit:10;" d="M 199.999713 0.00012675 L 151.104131 193.931564 " transform="matrix(2.834644,0,0,-2.834644,141.732194,992.125359)"/>
<path style="fill:none;stroke-width:0.2;stroke-linecap:butt;stroke-linejoin:miter;stroke:rgb(100%,0%,0%);stroke-opacity:1;stroke-miterlimit:10;" d="M 199.999713 0.00012675 L 143.480818 191.847969 " transform="matrix(2.834644,0,0,-2.834644,141.732194,992.125359)"/>
<path style="fill:none;stroke-width:0.2;stroke-linecap:butt;stroke-linejoin:miter;stroke:rgb(100%,0%,0%);stroke-opacity:1;stroke-miterlimit:10;" d="M 199.999713 0.00012675 L 135.945701 189.465339 " transform="matrix(2.834644,0,0,-2.834644,141.732194,992.125359)"/>
<path style="fill:none;stroke-width:0.2;stroke-linecap:butt;stroke-linejoin:miter;stroke:rgb(100%,0%,0%);stroke-opacity:1;stroke-miterlimit:10;" d="M 199.999713 0.00012675 L 128.51118 186.786431 " transform="matrix(2.834644,0,0,-2.834644,141.732194,992.125359)"/>
<path style="fill:none;stroke-width:0.2;stroke-linecap:butt;stroke-linejoin:miter;stroke:rgb(100%,0%,0%);stroke-opacity:1;stroke-miterlimit:10;" d="M 199.999713 0.00012675 L 121.186903 183.816757 " transform="matrix(2.834644,0,0,-2.834644,141.732194,992.125359)"/>
<path style="fill:none;stroke-width:0.2;stroke-linecap:butt;stroke-linejoin:miter;stroke:rgb(100%,0%,0%);stroke-opacity:1;stroke-miterlimit:10;" d="M 199.999713 0.00012675 L 113.986648 180.559073 " transform="matrix(2.834644,0,0,-2.834644,141.732194,992.125359)"/>
<path style="fill:none;stroke-width:0.2;stroke-linecap:butt;stroke-linejoin:miter;stroke:rgb(100%,0%,0%);stroke-opacity:1;stroke-miterlimit:10;" d="M 199.999713 0.00012675 L 106.921442 177.020269 " transform="matrix(2.834644,0,0,-2.834644,141.732194,992.125359)"/>
<path style="fill:none;stroke-width:0.2;stroke-linecap:butt;stroke-linejoin:miter;stroke:rgb(100%,0%,0%);stroke-opacity:1;stroke-miterlimit:10;" d="M 199.999713 0.00012675 L 99.999552 173.204478 " transform="matrix(2.834644,0,0,-2.834644,141.732194,992.125359)"/>
<path style="fill:none;stroke-width:1;stroke-linecap:butt;stroke-linejoin:miter;stroke:rgb(0%,0%,0%);stroke-opacity:1;stroke-miterlimit:10;" d="M 236.757527 20.739615 L 236.060239 22.269238 L 235.313342 23.785081 L 234.514079 25.284387 L 233.662451 26.767157 L 232.759835 28.232013 L 231.804854 29.678954 L 230.798886 31.105224 L 229.740552 32.510824 L 228.63123 33.894376 L 227.469543 35.2545 L 226.255491 36.591198 L 224.989073 37.901713 L 223.668912 39.187424 L 222.297763 40.445573 L 220.87287 41.673406 L 219.394234 42.873678 L 217.861855 44.042255 L 216.275732 45.179137 L 214.634487 46.282947 L 212.939499 47.352305 L 211.188012 48.385834 L 209.380024 49.382157 L 207.515538 50.339894 L 205.593173 51.259046 L 203.611553 52.138235 L 201.570677 52.973326 L 199.469168 53.765699 L 197.305646 54.511218 L 195.078735 55.211262 L 192.785678 55.861696 L 190.427853 56.461143 L 187.999748 57.008225 L 185.502742 57.500185 L 182.931321 57.937023 L 180.285486 58.313228 L 177.561103 58.628799 L 174.755415 58.879602 L 171.864289 59.064259 L 168.883591 59.177258 L 165.810563 59.218599 " transform="matrix(2.834644,0,0,-2.834644,141.732194,992.125359)"/>
</g>
</svg>
