<?xml version="1.0" encoding="UTF-8"?>
<svg xmlns="http://www.w3.org/2000/svg" xmlns:xlink="http://www.w3.org/1999/xlink" width="2267.715107pt" height="1133.857553pt" viewBox="0 0 2267.715107 1133.857553" version="1.1">
<g id="surface1">
<path style="fill:none;stroke-width:1;stroke-linecap:butt;stroke-linejoin:miter;stroke:rgb(0%,0%,0%);stroke-opacity:1;stroke-miterlimit:10;" d="M -0.000608695 0.00012675 L 749.999907 0.00012675 " transform="matrix(2.834644,0,0,-2.834644,141.732194,992.125359)"/>
<path style="fill:none;stroke-width:1;stroke-linecap:butt;stroke-linejoin:miter;stroke:rgb(0%,0%,0%);stroke-opacity:1;stroke-miterlimit:10;" d="M -0.000608695 0.00012675 L -0.000608695 350 " transform="matrix(2.834644,0,0,-2.834644,141.732194,992.125359)"/>
<path style="fill:none;stroke-width:0.2;stroke-linecap:butt;stroke-linejoin:miter;stroke:rgb(0%,0%,100%);stroke-opacity:1;stroke-miterlimit:10;" d="M -0.000608695 0.00012675 L 492.999756 0.00012675 " transform="matrix(2.834644,0,0,-2.834644,141.732194,992.125359)"/>
<path style="fill:none;stroke-width:0.2;stroke-linecap:butt;stroke-linejoin:miter;stroke:rgb(0%,0%,100%);stroke-opacity:1;stroke-miterlimit:10;" d="M -0.000608695 0.00012675 L 492.999756 3.322579 " transform="matrix(2.834644,0,0,-2.834644,141.732194,992.125359)"/>
<path style="fill:none;stroke-width:0.2;stroke-linecap:butt;stroke-linejoin:miter;stroke:rgb(0%,0%,100%);stroke-opacity:1;stroke-miterlimit:10;" d="M -0.000608695 0.00012675 L 492.999756 6.643653 " transform="matrix(2.834644,0,0,-2.834644,141.732194,992.125359)"/>
<path style="fill:none;stroke-width:0.2;stroke-linecap:butt;stroke-linejoin:miter;stroke:rgb(0%,0%,100%);stroke-opacity:1;stroke-miterlimit:10;" d="M -0.000608695 0.00012675 L 492.999756 9.966105 " transform="matrix(2.834644,0,0,-2.834644,141.732194,992.125359)"/>
<path style="fill:none;stroke-width:0.2;stroke-linecap:butt;stroke-linejoin:miter;stroke:rgb(0%,0%,100%);stroke-opacity:1;stroke-miterlimit:10;" d="M -0.000608695 0.00012675 L 492.999756 13.288557 " transform="matrix(2.834644,0,0,-2.834644,141.732194,992.125359)"/>
<path style="fill:none;stroke-width:0.2;stroke-linecap:butt;stroke-linejoin:miter;stroke:rgb(0%,0%,100%);stroke-opacity:1;stroke-miterlimit:10;" d="M -0.000608695 0.00012675 L 492.999756 16.61101 " transform="matrix(2.834644,0,0,-2.834644,141.732194,992.125359)"/>
<path style="fill:none;stroke-width:0.2;stroke-linecap:butt;stroke-linejoin:miter;stroke:rgb(0%,0%,100%);stroke-opacity:1;stroke-miterlimit:10;" d="M -0.000608695 0.00012675 L 492.999756 19.932084 " transform="matrix(2.834644,0,0,-2.834644,141.732194,992.125359)"/>
<path style="fill:none;stroke-width:0.2;stroke-linecap:butt;stroke-linejoin:miter;stroke:rgb(0%,0%,100%);stroke-opacity:1;stroke-miterlimit:10;" d="M -0.000608695 0.00012675 L 492.999756 23.254536 " transform="matrix(2.834644,0,0,-2.834644,141.732194,992.125359)"/>
<path style="fill:none;stroke-width:0.2;stroke-linecap:butt;stroke-linejoin:miter;stroke:rgb(0%,0%,100%);stroke-opacity:1;stroke-miterlimit:10;" d="M -0.000608695 0.00012675 L 492.999756 26.576988 " transform="matrix(2.834644,0,0,-2.834644,141.732194,992.125359)"/>
<path style="fill:none;stroke-width:0.2;stroke-linecap:butt;stroke-linejoin:miter;stroke:rgb(0%,0%,100%);stroke-opacity:1;stroke-miterlimit:10;" d="M -0.000608695 0.00012675 L 492.999756 29.89944 " transform="matrix(2.834644,0,0,-2.834644,141.732194,992.125359)"/>
<path style="fill:none;stroke-width:0.2;stroke-linecap:butt;stroke-linejoin:miter;stroke:rgb(0%,0%,100%);stroke-opacity:1;stroke-miterlimit:10;" d="M -0.000608695 0.00012675 L 492.999756 33.220514 " transform="matrix(2.834644,0,0,-2.834644,141.732194,992.125359)"/>
<path style="fill:none;stroke-width:0.2;stroke-linecap:butt;stroke-linejoin:miter;stroke:rgb(0%,0%,100%);stroke-opacity:1;stroke-miterlimit:10;" d="M -0.000608695 0.00012675 L 492.999756 36.542967 " transform="matrix(2.834644,0,0,-2.834644,141.732194,992.125359)"/>
<path style="fill:none;stroke-width:0.2;stroke-linecap:butt;stroke-linejoin:miter;stroke:rgb(0%,0%,100%);stroke-opacity:1;stroke-miterlimit:10;" d="M -0.000608695 0.00012675 L 492.999756 39.865419 " transform="matrix(2.834644,0,0,-2.834644,141.732194,992.125359)"/>
<path style="fill:none;stroke-width:0.2;stroke-linecap:butt;stroke-linejoin:miter;stroke:rgb(0%,0%,100%);stroke-opacity:1;stroke-miterlimit:10;" d="M -0.000608695 0.00012675 L 492.999756 43.187871 " transform="matrix(2.834644,0,0,-2.834644,141.732194,992.125359)"/>
<path style="fill:none;stroke-width:0.2;stroke-linecap:butt;stroke-linejoin:miter;stroke:rgb(0%,0%,100%);stroke-opacity:1;stroke-miterlimit:10;" d="M -0.000608695 0.00012675 L 492.999756 46.508945 " transform="matrix(2.834644,0,0,-2.834644,141.732194,992.125359)"/>
<path style="fill:none;stroke-width:0.2;stroke-linecap:butt;stroke-linejoin:miter;stroke:rgb(0%,0%,100%);stroke-opacity:1;stroke-miterlimit:10;" d="M -0.000608695 0.00012675 L 492.999756 49.831397 " transform="matrix(2.834644,0,0,-2.834644,141.732194,992.125359)"/>
<path style="fill:none;stroke-width:0.2;stroke-linecap:butt;stroke-linejoin:miter;stroke:rgb(0%,0%,100%);stroke-opacity:1;stroke-miterlimit:10;" d="M -0.000608695 0.00012675 L 492.999756 53.153849 " transform="matrix(2.834644,0,0,-2.834644,141.732194,992.125359)"/>
<path style="fill:none;stroke-width:0.2;stroke-linecap:butt;stroke-linejoin:miter;stroke:rgb(0%,0%,100%);stroke-opacity:1;stroke-miterlimit:10;" d="M -0.000608695 0.00012675 L 492.999756 56.476302 " transform="matrix(2.834644,0,0,-2.834644,141.732194,992.125359)"/>
<path style="fill:none;stroke-width:0.2;stroke-linecap:butt;stroke-linejoin:miter;stroke:rgb(0%,0%,100%);stroke-opacity:1;stroke-miterlimit:10;" d="M -0.000608695 0.00012675 L 492.999756 59.797376 " transform="matrix(2.834644,0,0,-2.834644,141.732194,992.125359)"/>
<path style="fill:none;stroke-width:0.2;stroke-linecap:butt;stroke-linejoin:miter;stroke:rgb(0%,0%,100%);stroke-opacity:1;stroke-miterlimit:10;" d="M -0.000608695 0.00012675 L 492.999756 63.119828 " transform="matrix(2.834644,0,0,-2.834644,141.732194,992.125359)"/>
<path style="fill:none;stroke-width:0.2;stroke-linecap:butt;stroke-linejoin:miter;stroke:rgb(0%,0%,100%);stroke-opacity:1;stroke-miterlimit:10;" d="M -0.000608695 0.00012675 L 492.999756 66.44228 " transform="matrix(2.834644,0,0,-2.834644,141.732194,992.125359)"/>
<path style="fill:none;stroke-width:0.2;stroke-linecap:butt;stroke-linejoin:miter;stroke:rgb(0%,0%,100%);stroke-opacity:1;stroke-miterlimit:10;" d="M -0.000608695 0.00012675 L 492.999756 69.764732 " transform="matrix(2.834644,0,0,-2.834644,141.732194,992.125359)"/>
<path style="fill:none;stroke-width:0.2;stroke-linecap:butt;stroke-linejoin:miter;stroke:rgb(0%,0%,100%);stroke-opacity:1;stroke-miterlimit:10;" d="M -0.000608695 0.00012675 L 492.999756 73.085806 " transform="matrix(2.834644,0,0,-2.834644,141.732194,992.125359)"/>
<path style="fill:none;stroke-width:0.2;stroke-linecap:butt;stroke-linejoin:miter;stroke:rgb(0%,0%,100%);stroke-opacity:1;stroke-miterlimit:10;" d="M -0.000608695 0.00012675 L 492.999756 76.408259 " transform="matrix(2.834644,0,0,-2.834644,141.732194,992.125359)"/>
<path style="fill:none;stroke-width:0.2;stroke-linecap:butt;stroke-linejoin:miter;stroke:rgb(0%,0%,100%);stroke-opacity:1;stroke-miterlimit:10;" d="M -0.000608695 0.00012675 L 492.999756 79.730711 " transform="matrix(2.834644,0,0,-2.834644,141.732194,992.125359)"/>
<path style="fill:none;stroke-width:0.2;stroke-linecap:butt;stroke-linejoin:miter;stroke:rgb(0%,0%,100%);stroke-opacity:1;stroke-miterlimit:10;" d="M -0.000608695 0.00012675 L 492.999756 83.053163 " transform="matrix(2.834644,0,0,-2.834644,141.732194,992.125359)"/>
<path style="fill:none;stroke-width:0.2;stroke-linecap:butt;stroke-linejoin:miter;stroke:rgb(0%,0%,100%);stroke-opacity:1;stroke-miterlimit:10;" d="M -0.000608695 0.00012675 L 492.999756 86.374237 " transform="matrix(2.834644,0,0,-2.834644,141.732194,992.125359)"/>
<path style="fill:none;stroke-width:0.2;stroke-linecap:butt;stroke-linejoin:miter;stroke:rgb(0%,0%,100%);stroke-opacity:1;stroke-miterlimit:10;" d="M -0.000608695 0.00012675 L 492.999756 89.696689 " transform="matrix(2.834644,0,0,-2.834644,141.732194,992.125359)"/>
<path style="fill:none;stroke-width:0.2;stroke-linecap:butt;stroke-linejoin:miter;stroke:rgb(0%,0%,100%);stroke-opacity:1;stroke-miterlimit:10;" d="M -0.000608695 0.00012675 L 492.999756 93.019142 " transform="matrix(2.834644,0,0,-2.834644,141.732194,992.125359)"/>
<path style="fill:none;stroke-width:0.2;stroke-linecap:butt;stroke-linejoin:miter;stroke:rgb(0%,0%,100%);stroke-opacity:1;stroke-miterlimit:10;" d="M -0.000608695 0.00012675 L 492.999756 96.341594 " transform="matrix(2.834644,0,0,-2.834644,141.732194,992.125359)"/>
<path style="fill:none;stroke-width:0.2;stroke-linecap:butt;stroke-linejoin:miter;stroke:rgb(0%,0%,100%);stroke-opacity:1;stroke-miterlimit:10;" d="M -0.000608695 0.00012675 L 492.999756 99.662668 " transform="matrix(2.834644,0,0,-2.834644,141.732194,992.125359)"/>
<path style="fill:none;stroke-width:0.2;stroke-linecap:butt;stroke-linejoin:miter;stroke:rgb(0%,0%,100%);stroke-opacity:1;stroke-miterlimit:10;" d="M -0.000608695 0.00012675 L 492.999756 102.98512 " transform="matrix(2.834644,0,0,-2.834644,141.732194,992.125359)"/>
<path style="fill:none;stroke-width:0.2;stroke-linecap:butt;stroke-linejoin:miter;stroke:rgb(0%,0%,100%);stroke-opacity:1;stroke-miterlimit:10;" d="M -0.000608695 0.00012675 L 492.999756 106.307572 " transform="matrix(2.834644,0,0,-2.834644,141.732194,992.125359)"/>
<path style="fill:none;stroke-width:0.2;stroke-linecap:butt;stroke-linejoin:miter;stroke:rgb(0%,0%,100%);stroke-opacity:1;stroke-miterlimit:10;" d="M -0.000608695 0.00012675 L 492.999756 109.630024 " transform="matrix(2.834644,0,0,-2.834644,141.732194,992.125359)"/>
<path style="fill:none;stroke-width:0.2;stroke-linecap:butt;stroke-linejoin:miter;stroke:rgb(0%,0%,100%);stroke-opacity:1;stroke-miterlimit:10;" d="M -0.000608695 0.00012675 L 492.999756 112.951099 " transform="matrix(2.834644,0,0,-2.834644,141.732194,992.125359)"/>
<path style="fill:none;stroke-width:0.2;stroke-linecap:butt;stroke-linejoin:miter;stroke:rgb(0%,0%,100%);stroke-opacity:1;stroke-miterlimit:10;" d="M -0.000608695 0.00012675 L 492.999756 116.273551 " transform="matrix(2.834644,0,0,-2.834644,141.732194,992.125359)"/>
<path style="fill:none;stroke-width:0.2;stroke-linecap:butt;stroke-linejoin:miter;stroke:rgb(0%,0%,100%);stroke-opacity:1;stroke-miterlimit:10;" d="M -0.000608695 0.00012675 L 492.999756 119.596003 " transform="matrix(2.834644,0,0,-2.834644,141.732194,992.125359)"/>
<path style="fill:none;stroke-width:0.2;stroke-linecap:butt;stroke-linejoin:miter;stroke:rgb(0%,0%,100%);stroke-opacity:1;stroke-miterlimit:10;" d="M -0.000608695 0.00012675 L 492.999756 122.918455 " transform="matrix(2.834644,0,0,-2.834644,141.732194,992.125359)"/>
<path style="fill:none;stroke-width:0.2;stroke-linecap:butt;stroke-linejoin:miter;stroke:rgb(0%,0%,100%);stroke-opacity:1;stroke-miterlimit:10;" d="M -0.000608695 0.00012675 L 492.999756 126.239529 " transform="matrix(2.834644,0,0,-2.834644,141.732194,992.125359)"/>
<path style="fill:none;stroke-width:0.2;stroke-linecap:butt;stroke-linejoin:miter;stroke:rgb(0%,0%,100%);stroke-opacity:1;stroke-miterlimit:10;" d="M -0.000608695 0.00012675 L 492.999756 129.561981 " transform="matrix(2.834644,0,0,-2.834644,141.732194,992.125359)"/>
<path style="fill:none;stroke-width:0.2;stroke-linecap:butt;stroke-linejoin:miter;stroke:rgb(0%,0%,100%);stroke-opacity:1;stroke-miterlimit:10;" d="M -0.000608695 0.00012675 L 492.999756 132.884434 " transform="matrix(2.834644,0,0,-2.834644,141.732194,992.125359)"/>
<path style="fill:none;stroke-width:0.2;stroke-linecap:butt;stroke-linejoin:miter;stroke:rgb(0%,0%,100%);stroke-opacity:1;stroke-miterlimit:10;" d="M -0.000608695 0.00012675 L 492.999756 136.206886 " transform="matrix(2.834644,0,0,-2.834644,141.732194,992.125359)"/>
<path style="fill:none;stroke-width:0.2;stroke-linecap:butt;stroke-linejoin:miter;stroke:rgb(0%,0%,100%);stroke-opacity:1;stroke-miterlimit:10;" d="M -0.000608695 0.00012675 L 492.999756 139.52796 " transform="matrix(2.834644,0,0,-2.834644,141.732194,992.125359)"/>
<path style="fill:none;stroke-width:0.2;stroke-linecap:butt;stroke-linejoin:miter;stroke:rgb(0%,0%,100%);stroke-opacity:1;stroke-miterlimit:10;" d="M -0.000608695 0.00012675 L 492.999756 142.850412 " transform="matrix(2.834644,0,0,-2.834644,141.732194,992.125359)"/>
<path style="fill:none;stroke-width:0.2;stroke-linecap:butt;stroke-linejoin:miter;stroke:rgb(0%,0%,100%);stroke-opacity:1;stroke-miterlimit:10;" d="M -0.000608695 0.00012675 L 492.999756 146.172864 " transform="matrix(2.834644,0,0,-2.834644,141.732194,992.125359)"/>
<path style="fill:none;stroke-width:0.2;stroke-linecap:butt;stroke-linejoin:miter;stroke:rgb(0%,0%,100%);stroke-opacity:1;stroke-miterlimit:10;" d="M -0.000608695 0.00012675 L 492.999756 149.493938 " transform="matrix(2.834644,0,0,-2.834644,141.732194,992.125359)"/>
<path style="fill:none;stroke-width:0.2;stroke-linecap:butt;stroke-linejoin:miter;stroke:rgb(0%,0%,100%);stroke-opacity:1;stroke-miterlimit:10;" d="M -0.000608695 0.00012675 L 492.999756 152.816391 " transform="matrix(2.834644,0,0,-2.834644,141.732194,992.125359)"/>
<path style="fill:none;stroke-width:0.2;stroke-linecap:butt;stroke-linejoin:miter;stroke:rgb(0%,0%,100%);stroke-opacity:1;stroke-miterlimit:10;" d="M -0.000608695 0.00012675 L 492.999756 156.138843 " transform="matrix(2.834644,0,0,-2.834644,141.732194,992.125359)"/>
<path style="fill:none;stroke-width:0.2;stroke-linecap:butt;stroke-linejoin:miter;stroke:rgb(0%,0%,100%);stroke-opacity:1;stroke-miterlimit:10;" d="M -0.000608695 0.00012675 L 492.999756 159.461295 " transform="matrix(2.834644,0,0,-2.834644,141.732194,992.125359)"/>
<path style="fill:none;stroke-width:0.2;stroke-linecap:butt;stroke-linejoin:miter;stroke:rgb(0%,0%,100%);stroke-opacity:1;stroke-miterlimit:10;" d="M -0.000608695 0.00012675 L 492.999756 162.782369 " transform="matrix(2.834644,0,0,-2.834644,141.732194,992.125359)"/>
<path style="fill:none;stroke-width:0.2;stroke-linecap:butt;stroke-linejoin:miter;stroke:rgb(0%,0%,100%);stroke-opacity:1;stroke-miterlimit:10;" d="M -0.000608695 0.00012675 L 492.999756 166.104821 " transform="matrix(2.834644,0,0,-2.834644,141.732194,992.125359)"/>
<path style="fill:none;stroke-width:0.2;stroke-linecap:butt;stroke-linejoin:miter;stroke:rgb(0%,0%,100%);stroke-opacity:1;stroke-miterlimit:10;" d="M -0.000608695 0.00012675 L 492.999756 169.427273 " transform="matrix(2.834644,0,0,-2.834644,141.732194,992.125359)"/>
<path style="fill:none;stroke-width:0.2;stroke-linecap:butt;stroke-linejoin:miter;stroke:rgb(0%,0%,100%);stroke-opacity:1;stroke-miterlimit:10;" d="M -0.000608695 0.00012675 L 492.999756 172.749726 " transform="matrix(2.834644,0,0,-2.834644,141.732194,992.125359)"/>
<path style="fill:none;stroke-width:0.2;stroke-linecap:butt;stroke-linejoin:miter;stroke:rgb(0%,0%,100%);stroke-opacity:1;stroke-miterlimit:10;" d="M -0.000608695 0.00012675 L 492.999756 176.0708 " transform="matrix(2.834644,0,0,-2.834644,141.732194,992.125359)"/>
<path style="fill:none;stroke-width:0.2;stroke-linecap:butt;stroke-linejoin:miter;stroke:rgb(100%,0%,0%);stroke-opacity:1;stroke-miterlimit:10;" d="M 292.999435 0.00012675 L 492.999756 0.00012675 " transform="matrix(2.834644,0,0,-2.834644,141.732194,992.125359)"/>
<path style="fill:none;stroke-width:0.2;stroke-linecap:butt;stroke-linejoin:miter;stroke:rgb(100%,0%,0%);stroke-opacity:1;stroke-miterlimit:10;" d="M 292.999435 0.00012675 L 492.787538 9.21783 " transform="matrix(2.834644,0,0,-2.834644,141.732194,992.125359)"/>
<path style="fill:none;stroke-width:0.2;stroke-linecap:butt;stroke-linejoin:miter;stroke:rgb(100%,0%,0%);stroke-opacity:1;stroke-miterlimit:10;" d="M 292.999435 0.00012675 L 492.150884 18.414863 " transform="matrix(2.834644,0,0,-2.834644,141.732194,992.125359)"/>
<path style="fill:none;stroke-width:0.2;stroke-linecap:butt;stroke-linejoin:miter;stroke:rgb(100%,0%,0%);stroke-opacity:1;stroke-miterlimit:10;" d="M 292.999435 0.00012675 L 491.089794 27.57331 " transform="matrix(2.834644,0,0,-2.834644,141.732194,992.125359)"/>
<path style="fill:none;stroke-width:0.2;stroke-linecap:butt;stroke-linejoin:miter;stroke:rgb(100%,0%,0%);stroke-opacity:1;stroke-miterlimit:10;" d="M 292.999435 0.00012675 L 489.608402 36.67388 " transform="matrix(2.834644,0,0,-2.834644,141.732194,992.125359)"/>
<path style="fill:none;stroke-width:0.2;stroke-linecap:butt;stroke-linejoin:miter;stroke:rgb(100%,0%,0%);stroke-opacity:1;stroke-miterlimit:10;" d="M 292.999435 0.00012675 L 487.709464 45.695902 " transform="matrix(2.834644,0,0,-2.834644,141.732194,992.125359)"/>
<path style="fill:none;stroke-width:0.2;stroke-linecap:butt;stroke-linejoin:miter;stroke:rgb(100%,0%,0%);stroke-opacity:1;stroke-miterlimit:10;" d="M 292.999435 0.00012675 L 485.397115 54.621461 " transform="matrix(2.834644,0,0,-2.834644,141.732194,992.125359)"/>
<path style="fill:none;stroke-width:0.2;stroke-linecap:butt;stroke-linejoin:miter;stroke:rgb(100%,0%,0%);stroke-opacity:1;stroke-miterlimit:10;" d="M 292.999435 0.00012675 L 482.675487 63.429887 " transform="matrix(2.834644,0,0,-2.834644,141.732194,992.125359)"/>
<path style="fill:none;stroke-width:0.2;stroke-linecap:butt;stroke-linejoin:miter;stroke:rgb(100%,0%,0%);stroke-opacity:1;stroke-miterlimit:10;" d="M 292.999435 0.00012675 L 479.550095 72.103265 " transform="matrix(2.834644,0,0,-2.834644,141.732194,992.125359)"/>
<path style="fill:none;stroke-width:0.2;stroke-linecap:butt;stroke-linejoin:miter;stroke:rgb(100%,0%,0%);stroke-opacity:1;stroke-miterlimit:10;" d="M 292.999435 0.00012675 L 476.029205 80.625058 " transform="matrix(2.834644,0,0,-2.834644,141.732194,992.125359)"/>
<path style="fill:none;stroke-width:0.2;stroke-linecap:butt;stroke-linejoin:miter;stroke:rgb(100%,0%,0%);stroke-opacity:1;stroke-miterlimit:10;" d="M 292.999435 0.00012675 L 472.11833 88.974597 " transform="matrix(2.834644,0,0,-2.834644,141.732194,992.125359)"/>
<path style="fill:none;stroke-width:0.2;stroke-linecap:butt;stroke-linejoin:miter;stroke:rgb(100%,0%,0%);stroke-opacity:1;stroke-miterlimit:10;" d="M 292.999435 0.00012675 L 467.828495 97.135344 " transform="matrix(2.834644,0,0,-2.834644,141.732194,992.125359)"/>
<path style="fill:none;stroke-width:0.2;stroke-linecap:butt;stroke-linejoin:miter;stroke:rgb(100%,0%,0%);stroke-opacity:1;stroke-miterlimit:10;" d="M 292.999435 0.00012675 L 463.16521 105.089386 " transform="matrix(2.834644,0,0,-2.834644,141.732194,992.125359)"/>
<path style="fill:none;stroke-width:0.2;stroke-linecap:butt;stroke-linejoin:miter;stroke:rgb(100%,0%,0%);stroke-opacity:1;stroke-miterlimit:10;" d="M 292.999435 0.00012675 L 458.142258 112.818807 " transform="matrix(2.834644,0,0,-2.834644,141.732194,992.125359)"/>
<path style="fill:none;stroke-width:0.2;stroke-linecap:butt;stroke-linejoin:miter;stroke:rgb(100%,0%,0%);stroke-opacity:1;stroke-miterlimit:10;" d="M 292.999435 0.00012675 L 452.766528 120.309827 " transform="matrix(2.834644,0,0,-2.834644,141.732194,992.125359)"/>
<path style="fill:none;stroke-width:0.2;stroke-linecap:butt;stroke-linejoin:miter;stroke:rgb(100%,0%,0%);stroke-opacity:1;stroke-miterlimit:10;" d="M 292.999435 0.00012675 L 447.0518 127.54591 " transform="matrix(2.834644,0,0,-2.834644,141.732194,992.125359)"/>
<path style="fill:none;stroke-width:0.2;stroke-linecap:butt;stroke-linejoin:miter;stroke:rgb(100%,0%,0%);stroke-opacity:1;stroke-miterlimit:10;" d="M 292.999435 0.00012675 L 441.010476 134.51052 " transform="matrix(2.834644,0,0,-2.834644,141.732194,992.125359)"/>
<path style="fill:none;stroke-width:0.2;stroke-linecap:butt;stroke-linejoin:miter;stroke:rgb(100%,0%,0%);stroke-opacity:1;stroke-miterlimit:10;" d="M 292.999435 0.00012675 L 434.653582 141.188497 " transform="matrix(2.834644,0,0,-2.834644,141.732194,992.125359)"/>
<path style="fill:none;stroke-width:0.2;stroke-linecap:butt;stroke-linejoin:miter;stroke:rgb(100%,0%,0%);stroke-opacity:1;stroke-miterlimit:10;" d="M 292.999435 0.00012675 L 427.996275 147.566062 " transform="matrix(2.834644,0,0,-2.834644,141.732194,992.125359)"/>
<path style="fill:none;stroke-width:0.2;stroke-linecap:butt;stroke-linejoin:miter;stroke:rgb(100%,0%,0%);stroke-opacity:1;stroke-miterlimit:10;" d="M 292.999435 0.00012675 L 421.052337 153.630812 " transform="matrix(2.834644,0,0,-2.834644,141.732194,992.125359)"/>
<path style="fill:none;stroke-width:0.2;stroke-linecap:butt;stroke-linejoin:miter;stroke:rgb(100%,0%,0%);stroke-opacity:1;stroke-miterlimit:10;" d="M 292.999435 0.00012675 L 413.835546 159.370344 " transform="matrix(2.834644,0,0,-2.834644,141.732194,992.125359)"/>
<path style="fill:none;stroke-width:0.2;stroke-linecap:butt;stroke-linejoin:miter;stroke:rgb(100%,0%,0%);stroke-opacity:1;stroke-miterlimit:10;" d="M 292.999435 0.00012675 L 406.36244 164.769501 " transform="matrix(2.834644,0,0,-2.834644,141.732194,992.125359)"/>
<path style="fill:none;stroke-width:0.2;stroke-linecap:butt;stroke-linejoin:miter;stroke:rgb(100%,0%,0%);stroke-opacity:1;stroke-miterlimit:10;" d="M 292.999435 0.00012675 L 398.648178 169.818636 " transform="matrix(2.834644,0,0,-2.834644,141.732194,992.125359)"/>
<path style="fill:none;stroke-width:0.2;stroke-linecap:butt;stroke-linejoin:miter;stroke:rgb(100%,0%,0%);stroke-opacity:1;stroke-miterlimit:10;" d="M 292.999435 0.00012675 L 390.709295 174.506725 " transform="matrix(2.834644,0,0,-2.834644,141.732194,992.125359)"/>
<path style="fill:none;stroke-width:0.2;stroke-linecap:butt;stroke-linejoin:miter;stroke:rgb(100%,0%,0%);stroke-opacity:1;stroke-miterlimit:10;" d="M 292.999435 0.00012675 L 382.563706 178.8255 " transform="matrix(2.834644,0,0,-2.834644,141.732194,992.125359)"/>
<path style="fill:none;stroke-width:0.2;stroke-linecap:butt;stroke-linejoin:miter;stroke:rgb(100%,0%,0%);stroke-opacity:1;stroke-miterlimit:10;" d="M 292.999435 0.00012675 L 374.226569 182.762557 " transform="matrix(2.834644,0,0,-2.834644,141.732194,992.125359)"/>
<path style="fill:none;stroke-width:0.2;stroke-linecap:butt;stroke-linejoin:miter;stroke:rgb(100%,0%,0%);stroke-opacity:1;stroke-miterlimit:10;" d="M 292.999435 0.00012675 L 365.717178 186.312386 " transform="matrix(2.834644,0,0,-2.834644,141.732194,992.125359)"/>
<path style="fill:none;stroke-width:0.2;stroke-linecap:butt;stroke-linejoin:miter;stroke:rgb(100%,0%,0%);stroke-opacity:1;stroke-miterlimit:10;" d="M 292.999435 0.00012675 L 357.053447 189.465339 " transform="matrix(2.834644,0,0,-2.834644,141.732194,992.125359)"/>
<path style="fill:none;stroke-width:0.2;stroke-linecap:butt;stroke-linejoin:miter;stroke:rgb(100%,0%,0%);stroke-opacity:1;stroke-miterlimit:10;" d="M 292.999435 0.00012675 L 348.254667 192.215905 " transform="matrix(2.834644,0,0,-2.834644,141.732194,992.125359)"/>
<path style="fill:none;stroke-width:0.2;stroke-linecap:butt;stroke-linejoin:miter;stroke:rgb(100%,0%,0%);stroke-opacity:1;stroke-miterlimit:10;" d="M 292.999435 0.00012675 L 339.337376 194.558572 " transform="matrix(2.834644,0,0,-2.834644,141.732194,992.125359)"/>
<path style="fill:none;stroke-width:0.2;stroke-linecap:butt;stroke-linejoin:miter;stroke:rgb(100%,0%,0%);stroke-opacity:1;stroke-miterlimit:10;" d="M 292.999435 0.00012675 L 330.320867 196.486448 " transform="matrix(2.834644,0,0,-2.834644,141.732194,992.125359)"/>
<path style="fill:none;stroke-width:0.2;stroke-linecap:butt;stroke-linejoin:miter;stroke:rgb(100%,0%,0%);stroke-opacity:1;stroke-miterlimit:10;" d="M 292.999435 0.00012675 L 321.225809 197.998157 " transform="matrix(2.834644,0,0,-2.834644,141.732194,992.125359)"/>
<path style="fill:none;stroke-width:0.2;stroke-linecap:butt;stroke-linejoin:miter;stroke:rgb(100%,0%,0%);stroke-opacity:1;stroke-miterlimit:10;" d="M 292.999435 0.00012675 L 312.071495 199.088186 " transform="matrix(2.834644,0,0,-2.834644,141.732194,992.125359)"/>
<path style="fill:none;stroke-width:0.2;stroke-linecap:butt;stroke-linejoin:miter;stroke:rgb(100%,0%,0%);stroke-opacity:1;stroke-miterlimit:10;" d="M 292.999435 0.00012675 L 302.875841 199.756535 " transform="matrix(2.834644,0,0,-2.834644,141.732194,992.125359)"/>
<path style="fill:none;stroke-width:0.2;stroke-linecap:butt;stroke-linejoin:miter;stroke:rgb(100%,0%,0%);stroke-opacity:1;stroke-miterlimit:10;" d="M 292.999435 0.00012675 L 293.658137 199.99907 " transform="matrix(2.834644,0,0,-2.834644,141.732194,992.125359)"/>
<path style="fill:none;stroke-width:0.2;stroke-linecap:butt;stroke-linejoin:miter;stroke:rgb(100%,0%,0%);stroke-opacity:1;stroke-miterlimit:10;" d="M 292.999435 0.00012675 L 284.440434 199.817169 " transform="matrix(2.834644,0,0,-2.834644,141.732194,992.125359)"/>
<path style="fill:none;stroke-width:0.2;stroke-linecap:butt;stroke-linejoin:miter;stroke:rgb(100%,0%,0%);stroke-opacity:1;stroke-miterlimit:10;" d="M 292.999435 0.00012675 L 275.240645 199.209454 " transform="matrix(2.834644,0,0,-2.834644,141.732194,992.125359)"/>
<path style="fill:none;stroke-width:0.2;stroke-linecap:butt;stroke-linejoin:miter;stroke:rgb(100%,0%,0%);stroke-opacity:1;stroke-miterlimit:10;" d="M 292.999435 0.00012675 L 266.079442 198.180058 " transform="matrix(2.834644,0,0,-2.834644,141.732194,992.125359)"/>
<path style="fill:none;stroke-width:0.2;stroke-linecap:butt;stroke-linejoin:miter;stroke:rgb(100%,0%,0%);stroke-opacity:1;stroke-miterlimit:10;" d="M 292.999435 0.00012675 L 256.97336 196.728983 " transform="matrix(2.834644,0,0,-2.834644,141.732194,992.125359)"/>
<path style="fill:none;stroke-width:0.2;stroke-linecap:butt;stroke-linejoin:miter;stroke:rgb(100%,0%,0%);stroke-opacity:1;stroke-miterlimit:10;" d="M 292.999435 0.00012675 L 247.945826 194.858984 " transform="matrix(2.834644,0,0,-2.834644,141.732194,992.125359)"/>
<path style="fill:none;stroke-width:0.2;stroke-linecap:butt;stroke-linejoin:miter;stroke:rgb(100%,0%,0%);stroke-opacity:1;stroke-miterlimit:10;" d="M 292.999435 0.00012675 L 239.013376 192.575574 " transform="matrix(2.834644,0,0,-2.834644,141.732194,992.125359)"/>
<path style="fill:none;stroke-width:0.2;stroke-linecap:butt;stroke-linejoin:miter;stroke:rgb(100%,0%,0%);stroke-opacity:1;stroke-miterlimit:10;" d="M 292.999435 0.00012675 L 230.195305 189.882885 " transform="matrix(2.834644,0,0,-2.834644,141.732194,992.125359)"/>
<path style="fill:none;stroke-width:0.2;stroke-linecap:butt;stroke-linejoin:miter;stroke:rgb(100%,0%,0%);stroke-opacity:1;stroke-miterlimit:10;" d="M 292.999435 0.00012675 L 221.510902 186.786431 " transform="matrix(2.834644,0,0,-2.834644,141.732194,992.125359)"/>
<path style="fill:none;stroke-width:0.2;stroke-linecap:butt;stroke-linejoin:miter;stroke:rgb(100%,0%,0%);stroke-opacity:1;stroke-miterlimit:10;" d="M 292.999435 0.00012675 L 212.978084 183.293102 " transform="matrix(2.834644,0,0,-2.834644,141.732194,992.125359)"/>
<path style="fill:none;stroke-width:0.2;stroke-linecap:butt;stroke-linejoin:miter;stroke:rgb(100%,0%,0%);stroke-opacity:1;stroke-miterlimit:10;" d="M 292.999435 0.00012675 L 204.616143 179.411166 " transform="matrix(2.834644,0,0,-2.834644,141.732194,992.125359)"/>
<path style="fill:none;stroke-width:0.2;stroke-linecap:butt;stroke-linejoin:miter;stroke:rgb(100%,0%,0%);stroke-opacity:1;stroke-miterlimit:10;" d="M 292.999435 0.00012675 L 196.441616 175.147514 " transform="matrix(2.834644,0,0,-2.834644,141.732194,992.125359)"/>
<path style="fill:none;stroke-width:0.2;stroke-linecap:butt;stroke-linejoin:miter;stroke:rgb(100%,0%,0%);stroke-opacity:1;stroke-miterlimit:10;" d="M 292.999435 0.00012675 L 188.472416 170.510412 " transform="matrix(2.834644,0,0,-2.834644,141.732194,992.125359)"/>
<path style="fill:none;stroke-width:0.2;stroke-linecap:butt;stroke-linejoin:miter;stroke:rgb(100%,0%,0%);stroke-opacity:1;stroke-miterlimit:10;" d="M 292.999435 0.00012675 L 180.72508 165.512264 " transform="matrix(2.834644,0,0,-2.834644,141.732194,992.125359)"/>
<path style="fill:none;stroke-width:0.2;stroke-linecap:butt;stroke-linejoin:miter;stroke:rgb(100%,0%,0%);stroke-opacity:1;stroke-miterlimit:10;" d="M 292.999435 0.00012675 L 173.216145 160.162717 " transform="matrix(2.834644,0,0,-2.834644,141.732194,992.125359)"/>
<path style="fill:none;stroke-width:0.2;stroke-linecap:butt;stroke-linejoin:miter;stroke:rgb(100%,0%,0%);stroke-opacity:1;stroke-miterlimit:10;" d="M 292.999435 0.00012675 L 165.962148 154.471415 " transform="matrix(2.834644,0,0,-2.834644,141.732194,992.125359)"/>
<path style="fill:none;stroke-width:0.2;stroke-linecap:butt;stroke-linejoin:miter;stroke:rgb(100%,0%,0%);stroke-opacity:1;stroke-miterlimit:10;" d="M 292.999435 0.00012675 L 158.978246 148.452141 " transform="matrix(2.834644,0,0,-2.834644,141.732194,992.125359)"/>
<path style="fill:none;stroke-width:0.2;stroke-linecap:butt;stroke-linejoin:miter;stroke:rgb(100%,0%,0%);stroke-opacity:1;stroke-miterlimit:10;" d="M 292.999435 0.00012675 L 152.279598 142.118673 " transform="matrix(2.834644,0,0,-2.834644,141.732194,992.125359)"/>
<path style="fill:none;stroke-width:0.2;stroke-linecap:butt;stroke-linejoin:miter;stroke:rgb(100%,0%,0%);stroke-opacity:1;stroke-miterlimit:10;" d="M 292.999435 0.00012675 L 145.878606 135.482037 " transform="matrix(2.834644,0,0,-2.834644,141.732194,992.125359)"/>
<path style="fill:none;stroke-width:0.2;stroke-linecap:butt;stroke-linejoin:miter;stroke:rgb(100%,0%,0%);stroke-opacity:1;stroke-miterlimit:10;" d="M 292.999435 0.00012675 L 139.79043 128.557391 " transform="matrix(2.834644,0,0,-2.834644,141.732194,992.125359)"/>
<path style="fill:none;stroke-width:1;stroke-linecap:butt;stroke-linejoin:miter;stroke:rgb(0%,0%,0%);stroke-opacity:1;stroke-miterlimit:10;" d="M 342.115503 11.527424 L 341.657994 13.81359 L 341.115047 16.090111 L 340.489417 18.355607 L 339.779727 20.605945 L 338.985976 22.842502 L 338.108165 25.062523 L 337.144916 27.261874 L 336.097606 29.441931 L 334.96348 31.59994 L 333.745294 33.734523 L 332.440291 35.842923 L 331.048471 37.923762 L 329.569835 39.974284 L 328.003005 41.994489 L 326.34798 43.981621 L 324.603383 45.934303 L 322.769213 47.849777 L 320.842714 49.726666 L 318.823887 51.562214 L 316.712731 53.355043 L 314.50649 55.102397 L 312.203787 56.802897 L 309.803243 58.453788 L 307.302102 60.052313 L 304.700364 61.597095 L 301.992518 63.085377 L 299.17994 64.513025 L 296.257119 65.878662 L 293.221299 67.179531 L 290.069724 68.412876 L 286.798259 69.573185 L 283.401393 70.65908 L 279.876369 71.666426 L 276.216297 72.59109 L 272.415665 73.42756 L 268.467583 74.171701 L 264.363783 74.81938 L 260.097374 75.365083 L 255.657332 75.801921 L 251.034011 76.121627 L 246.213631 76.320064 L 241.183788 76.38621 L 235.927947 76.310418 L 230.428193 76.084419 L 224.662478 75.694434 L 218.61013 75.12806 L 212.240834 74.370139 L 205.524271 73.401377 " transform="matrix(2.834644,0,0,-2.834644,141.732194,992.125359)"/>
</g>
</svg>
